<?xml version="1.0" encoding="utf-8" standalone="no"?>
<!DOCTYPE svg PUBLIC "-//W3C//DTD SVG 1.1//EN"
  "http://www.w3.org/Graphics/SVG/1.1/DTD/svg11.dtd">
<svg xmlns:xlink="http://www.w3.org/1999/xlink" width="460.8pt" height="345.6pt" viewBox="0 0 460.8 345.6" xmlns="http://www.w3.org/2000/svg" version="1.1">
 <metadata>
  <rdf:RDF xmlns:dc="http://purl.org/dc/elements/1.1/" xmlns:cc="http://creativecommons.org/ns#" xmlns:rdf="http://www.w3.org/1999/02/22-rdf-syntax-ns#">
   <cc:Work>
    <dc:type rdf:resource="http://purl.org/dc/dcmitype/StillImage"/>
    <dc:date>2022-09-19T22:59:51.211828</dc:date>
    <dc:format>image/svg+xml</dc:format>
    <dc:creator>
     <cc:Agent>
      <dc:title>Matplotlib v3.5.2, https://matplotlib.org/</dc:title>
     </cc:Agent>
    </dc:creator>
   </cc:Work>
  </rdf:RDF>
 </metadata>
 <defs>
  <style type="text/css">*{stroke-linejoin: round; stroke-linecap: butt}</style>
 </defs>
 <g id="figure_1">
  <g id="patch_1">
   <path d="M 0 345.6 
L 460.8 345.6 
L 460.8 0 
L 0 0 
z
" style="fill: #ffffff"/>
  </g>
  <g id="axes_1">
   <g id="patch_2">
    <path d="M 57.6 307.584 
L 414.72 307.584 
L 414.72 41.472 
L 57.6 41.472 
z
" style="fill: #ffffff"/>
   </g>
   <g id="matplotlib.axis_1">
    <g id="xtick_1">
     <g id="line2d_1">
      <defs>
       <path id="m3fc5821177" d="M 0 0 
L 0 3.5 
" style="stroke: #000000; stroke-width: 0.8"/>
      </defs>
      <g>
       <use xlink:href="#m3fc5821177" x="57.6" y="307.584" style="stroke: #000000; stroke-width: 0.8"/>
      </g>
     </g>
     <g id="text_1">
      <!-- 0.0 -->
      <g transform="translate(49.648438 322.182437)scale(0.1 -0.1)">
       <defs>
        <path id="DejaVuSans-30" d="M 2034 4250 
Q 1547 4250 1301 3770 
Q 1056 3291 1056 2328 
Q 1056 1369 1301 889 
Q 1547 409 2034 409 
Q 2525 409 2770 889 
Q 3016 1369 3016 2328 
Q 3016 3291 2770 3770 
Q 2525 4250 2034 4250 
z
M 2034 4750 
Q 2819 4750 3233 4129 
Q 3647 3509 3647 2328 
Q 3647 1150 3233 529 
Q 2819 -91 2034 -91 
Q 1250 -91 836 529 
Q 422 1150 422 2328 
Q 422 3509 836 4129 
Q 1250 4750 2034 4750 
z
" transform="scale(0.015625)"/>
        <path id="DejaVuSans-2e" d="M 684 794 
L 1344 794 
L 1344 0 
L 684 0 
L 684 794 
z
" transform="scale(0.015625)"/>
       </defs>
       <use xlink:href="#DejaVuSans-30"/>
       <use xlink:href="#DejaVuSans-2e" x="63.623047"/>
       <use xlink:href="#DejaVuSans-30" x="95.410156"/>
      </g>
     </g>
    </g>
    <g id="xtick_2">
     <g id="line2d_2">
      <g>
       <use xlink:href="#m3fc5821177" x="129.024" y="307.584" style="stroke: #000000; stroke-width: 0.8"/>
      </g>
     </g>
     <g id="text_2">
      <!-- 0.2 -->
      <g transform="translate(121.072438 322.182437)scale(0.1 -0.1)">
       <defs>
        <path id="DejaVuSans-32" d="M 1228 531 
L 3431 531 
L 3431 0 
L 469 0 
L 469 531 
Q 828 903 1448 1529 
Q 2069 2156 2228 2338 
Q 2531 2678 2651 2914 
Q 2772 3150 2772 3378 
Q 2772 3750 2511 3984 
Q 2250 4219 1831 4219 
Q 1534 4219 1204 4116 
Q 875 4013 500 3803 
L 500 4441 
Q 881 4594 1212 4672 
Q 1544 4750 1819 4750 
Q 2544 4750 2975 4387 
Q 3406 4025 3406 3419 
Q 3406 3131 3298 2873 
Q 3191 2616 2906 2266 
Q 2828 2175 2409 1742 
Q 1991 1309 1228 531 
z
" transform="scale(0.015625)"/>
       </defs>
       <use xlink:href="#DejaVuSans-30"/>
       <use xlink:href="#DejaVuSans-2e" x="63.623047"/>
       <use xlink:href="#DejaVuSans-32" x="95.410156"/>
      </g>
     </g>
    </g>
    <g id="xtick_3">
     <g id="line2d_3">
      <g>
       <use xlink:href="#m3fc5821177" x="200.448" y="307.584" style="stroke: #000000; stroke-width: 0.8"/>
      </g>
     </g>
     <g id="text_3">
      <!-- 0.4 -->
      <g transform="translate(192.496438 322.182437)scale(0.1 -0.1)">
       <defs>
        <path id="DejaVuSans-34" d="M 2419 4116 
L 825 1625 
L 2419 1625 
L 2419 4116 
z
M 2253 4666 
L 3047 4666 
L 3047 1625 
L 3713 1625 
L 3713 1100 
L 3047 1100 
L 3047 0 
L 2419 0 
L 2419 1100 
L 313 1100 
L 313 1709 
L 2253 4666 
z
" transform="scale(0.015625)"/>
       </defs>
       <use xlink:href="#DejaVuSans-30"/>
       <use xlink:href="#DejaVuSans-2e" x="63.623047"/>
       <use xlink:href="#DejaVuSans-34" x="95.410156"/>
      </g>
     </g>
    </g>
    <g id="xtick_4">
     <g id="line2d_4">
      <g>
       <use xlink:href="#m3fc5821177" x="271.872" y="307.584" style="stroke: #000000; stroke-width: 0.8"/>
      </g>
     </g>
     <g id="text_4">
      <!-- 0.6 -->
      <g transform="translate(263.920438 322.182437)scale(0.1 -0.1)">
       <defs>
        <path id="DejaVuSans-36" d="M 2113 2584 
Q 1688 2584 1439 2293 
Q 1191 2003 1191 1497 
Q 1191 994 1439 701 
Q 1688 409 2113 409 
Q 2538 409 2786 701 
Q 3034 994 3034 1497 
Q 3034 2003 2786 2293 
Q 2538 2584 2113 2584 
z
M 3366 4563 
L 3366 3988 
Q 3128 4100 2886 4159 
Q 2644 4219 2406 4219 
Q 1781 4219 1451 3797 
Q 1122 3375 1075 2522 
Q 1259 2794 1537 2939 
Q 1816 3084 2150 3084 
Q 2853 3084 3261 2657 
Q 3669 2231 3669 1497 
Q 3669 778 3244 343 
Q 2819 -91 2113 -91 
Q 1303 -91 875 529 
Q 447 1150 447 2328 
Q 447 3434 972 4092 
Q 1497 4750 2381 4750 
Q 2619 4750 2861 4703 
Q 3103 4656 3366 4563 
z
" transform="scale(0.015625)"/>
       </defs>
       <use xlink:href="#DejaVuSans-30"/>
       <use xlink:href="#DejaVuSans-2e" x="63.623047"/>
       <use xlink:href="#DejaVuSans-36" x="95.410156"/>
      </g>
     </g>
    </g>
    <g id="xtick_5">
     <g id="line2d_5">
      <g>
       <use xlink:href="#m3fc5821177" x="343.296" y="307.584" style="stroke: #000000; stroke-width: 0.8"/>
      </g>
     </g>
     <g id="text_5">
      <!-- 0.8 -->
      <g transform="translate(335.344438 322.182437)scale(0.1 -0.1)">
       <defs>
        <path id="DejaVuSans-38" d="M 2034 2216 
Q 1584 2216 1326 1975 
Q 1069 1734 1069 1313 
Q 1069 891 1326 650 
Q 1584 409 2034 409 
Q 2484 409 2743 651 
Q 3003 894 3003 1313 
Q 3003 1734 2745 1975 
Q 2488 2216 2034 2216 
z
M 1403 2484 
Q 997 2584 770 2862 
Q 544 3141 544 3541 
Q 544 4100 942 4425 
Q 1341 4750 2034 4750 
Q 2731 4750 3128 4425 
Q 3525 4100 3525 3541 
Q 3525 3141 3298 2862 
Q 3072 2584 2669 2484 
Q 3125 2378 3379 2068 
Q 3634 1759 3634 1313 
Q 3634 634 3220 271 
Q 2806 -91 2034 -91 
Q 1263 -91 848 271 
Q 434 634 434 1313 
Q 434 1759 690 2068 
Q 947 2378 1403 2484 
z
M 1172 3481 
Q 1172 3119 1398 2916 
Q 1625 2713 2034 2713 
Q 2441 2713 2670 2916 
Q 2900 3119 2900 3481 
Q 2900 3844 2670 4047 
Q 2441 4250 2034 4250 
Q 1625 4250 1398 4047 
Q 1172 3844 1172 3481 
z
" transform="scale(0.015625)"/>
       </defs>
       <use xlink:href="#DejaVuSans-30"/>
       <use xlink:href="#DejaVuSans-2e" x="63.623047"/>
       <use xlink:href="#DejaVuSans-38" x="95.410156"/>
      </g>
     </g>
    </g>
    <g id="xtick_6">
     <g id="line2d_6">
      <g>
       <use xlink:href="#m3fc5821177" x="414.72" y="307.584" style="stroke: #000000; stroke-width: 0.8"/>
      </g>
     </g>
     <g id="text_6">
      <!-- 1.0 -->
      <g transform="translate(406.768438 322.182437)scale(0.1 -0.1)">
       <defs>
        <path id="DejaVuSans-31" d="M 794 531 
L 1825 531 
L 1825 4091 
L 703 3866 
L 703 4441 
L 1819 4666 
L 2450 4666 
L 2450 531 
L 3481 531 
L 3481 0 
L 794 0 
L 794 531 
z
" transform="scale(0.015625)"/>
       </defs>
       <use xlink:href="#DejaVuSans-31"/>
       <use xlink:href="#DejaVuSans-2e" x="63.623047"/>
       <use xlink:href="#DejaVuSans-30" x="95.410156"/>
      </g>
     </g>
    </g>
    <g id="text_7">
     <!-- False Positive Rate -->
     <g transform="translate(189.693594 335.860562)scale(0.1 -0.1)">
      <defs>
       <path id="DejaVuSans-46" d="M 628 4666 
L 3309 4666 
L 3309 4134 
L 1259 4134 
L 1259 2759 
L 3109 2759 
L 3109 2228 
L 1259 2228 
L 1259 0 
L 628 0 
L 628 4666 
z
" transform="scale(0.015625)"/>
       <path id="DejaVuSans-61" d="M 2194 1759 
Q 1497 1759 1228 1600 
Q 959 1441 959 1056 
Q 959 750 1161 570 
Q 1363 391 1709 391 
Q 2188 391 2477 730 
Q 2766 1069 2766 1631 
L 2766 1759 
L 2194 1759 
z
M 3341 1997 
L 3341 0 
L 2766 0 
L 2766 531 
Q 2569 213 2275 61 
Q 1981 -91 1556 -91 
Q 1019 -91 701 211 
Q 384 513 384 1019 
Q 384 1609 779 1909 
Q 1175 2209 1959 2209 
L 2766 2209 
L 2766 2266 
Q 2766 2663 2505 2880 
Q 2244 3097 1772 3097 
Q 1472 3097 1187 3025 
Q 903 2953 641 2809 
L 641 3341 
Q 956 3463 1253 3523 
Q 1550 3584 1831 3584 
Q 2591 3584 2966 3190 
Q 3341 2797 3341 1997 
z
" transform="scale(0.015625)"/>
       <path id="DejaVuSans-6c" d="M 603 4863 
L 1178 4863 
L 1178 0 
L 603 0 
L 603 4863 
z
" transform="scale(0.015625)"/>
       <path id="DejaVuSans-73" d="M 2834 3397 
L 2834 2853 
Q 2591 2978 2328 3040 
Q 2066 3103 1784 3103 
Q 1356 3103 1142 2972 
Q 928 2841 928 2578 
Q 928 2378 1081 2264 
Q 1234 2150 1697 2047 
L 1894 2003 
Q 2506 1872 2764 1633 
Q 3022 1394 3022 966 
Q 3022 478 2636 193 
Q 2250 -91 1575 -91 
Q 1294 -91 989 -36 
Q 684 19 347 128 
L 347 722 
Q 666 556 975 473 
Q 1284 391 1588 391 
Q 1994 391 2212 530 
Q 2431 669 2431 922 
Q 2431 1156 2273 1281 
Q 2116 1406 1581 1522 
L 1381 1569 
Q 847 1681 609 1914 
Q 372 2147 372 2553 
Q 372 3047 722 3315 
Q 1072 3584 1716 3584 
Q 2034 3584 2315 3537 
Q 2597 3491 2834 3397 
z
" transform="scale(0.015625)"/>
       <path id="DejaVuSans-65" d="M 3597 1894 
L 3597 1613 
L 953 1613 
Q 991 1019 1311 708 
Q 1631 397 2203 397 
Q 2534 397 2845 478 
Q 3156 559 3463 722 
L 3463 178 
Q 3153 47 2828 -22 
Q 2503 -91 2169 -91 
Q 1331 -91 842 396 
Q 353 884 353 1716 
Q 353 2575 817 3079 
Q 1281 3584 2069 3584 
Q 2775 3584 3186 3129 
Q 3597 2675 3597 1894 
z
M 3022 2063 
Q 3016 2534 2758 2815 
Q 2500 3097 2075 3097 
Q 1594 3097 1305 2825 
Q 1016 2553 972 2059 
L 3022 2063 
z
" transform="scale(0.015625)"/>
       <path id="DejaVuSans-20" transform="scale(0.015625)"/>
       <path id="DejaVuSans-50" d="M 1259 4147 
L 1259 2394 
L 2053 2394 
Q 2494 2394 2734 2622 
Q 2975 2850 2975 3272 
Q 2975 3691 2734 3919 
Q 2494 4147 2053 4147 
L 1259 4147 
z
M 628 4666 
L 2053 4666 
Q 2838 4666 3239 4311 
Q 3641 3956 3641 3272 
Q 3641 2581 3239 2228 
Q 2838 1875 2053 1875 
L 1259 1875 
L 1259 0 
L 628 0 
L 628 4666 
z
" transform="scale(0.015625)"/>
       <path id="DejaVuSans-6f" d="M 1959 3097 
Q 1497 3097 1228 2736 
Q 959 2375 959 1747 
Q 959 1119 1226 758 
Q 1494 397 1959 397 
Q 2419 397 2687 759 
Q 2956 1122 2956 1747 
Q 2956 2369 2687 2733 
Q 2419 3097 1959 3097 
z
M 1959 3584 
Q 2709 3584 3137 3096 
Q 3566 2609 3566 1747 
Q 3566 888 3137 398 
Q 2709 -91 1959 -91 
Q 1206 -91 779 398 
Q 353 888 353 1747 
Q 353 2609 779 3096 
Q 1206 3584 1959 3584 
z
" transform="scale(0.015625)"/>
       <path id="DejaVuSans-69" d="M 603 3500 
L 1178 3500 
L 1178 0 
L 603 0 
L 603 3500 
z
M 603 4863 
L 1178 4863 
L 1178 4134 
L 603 4134 
L 603 4863 
z
" transform="scale(0.015625)"/>
       <path id="DejaVuSans-74" d="M 1172 4494 
L 1172 3500 
L 2356 3500 
L 2356 3053 
L 1172 3053 
L 1172 1153 
Q 1172 725 1289 603 
Q 1406 481 1766 481 
L 2356 481 
L 2356 0 
L 1766 0 
Q 1100 0 847 248 
Q 594 497 594 1153 
L 594 3053 
L 172 3053 
L 172 3500 
L 594 3500 
L 594 4494 
L 1172 4494 
z
" transform="scale(0.015625)"/>
       <path id="DejaVuSans-76" d="M 191 3500 
L 800 3500 
L 1894 563 
L 2988 3500 
L 3597 3500 
L 2284 0 
L 1503 0 
L 191 3500 
z
" transform="scale(0.015625)"/>
       <path id="DejaVuSans-52" d="M 2841 2188 
Q 3044 2119 3236 1894 
Q 3428 1669 3622 1275 
L 4263 0 
L 3584 0 
L 2988 1197 
Q 2756 1666 2539 1819 
Q 2322 1972 1947 1972 
L 1259 1972 
L 1259 0 
L 628 0 
L 628 4666 
L 2053 4666 
Q 2853 4666 3247 4331 
Q 3641 3997 3641 3322 
Q 3641 2881 3436 2590 
Q 3231 2300 2841 2188 
z
M 1259 4147 
L 1259 2491 
L 2053 2491 
Q 2509 2491 2742 2702 
Q 2975 2913 2975 3322 
Q 2975 3731 2742 3939 
Q 2509 4147 2053 4147 
L 1259 4147 
z
" transform="scale(0.015625)"/>
      </defs>
      <use xlink:href="#DejaVuSans-46"/>
      <use xlink:href="#DejaVuSans-61" x="48.394531"/>
      <use xlink:href="#DejaVuSans-6c" x="109.673828"/>
      <use xlink:href="#DejaVuSans-73" x="137.457031"/>
      <use xlink:href="#DejaVuSans-65" x="189.556641"/>
      <use xlink:href="#DejaVuSans-20" x="251.080078"/>
      <use xlink:href="#DejaVuSans-50" x="282.867188"/>
      <use xlink:href="#DejaVuSans-6f" x="339.544922"/>
      <use xlink:href="#DejaVuSans-73" x="400.726562"/>
      <use xlink:href="#DejaVuSans-69" x="452.826172"/>
      <use xlink:href="#DejaVuSans-74" x="480.609375"/>
      <use xlink:href="#DejaVuSans-69" x="519.818359"/>
      <use xlink:href="#DejaVuSans-76" x="547.601562"/>
      <use xlink:href="#DejaVuSans-65" x="606.78125"/>
      <use xlink:href="#DejaVuSans-20" x="668.304688"/>
      <use xlink:href="#DejaVuSans-52" x="700.091797"/>
      <use xlink:href="#DejaVuSans-61" x="767.324219"/>
      <use xlink:href="#DejaVuSans-74" x="828.603516"/>
      <use xlink:href="#DejaVuSans-65" x="867.8125"/>
     </g>
    </g>
   </g>
   <g id="matplotlib.axis_2">
    <g id="ytick_1">
     <g id="line2d_7">
      <defs>
       <path id="m76b36b1c2f" d="M 0 0 
L -3.5 0 
" style="stroke: #000000; stroke-width: 0.8"/>
      </defs>
      <g>
       <use xlink:href="#m76b36b1c2f" x="57.6" y="307.584" style="stroke: #000000; stroke-width: 0.8"/>
      </g>
     </g>
     <g id="text_8">
      <!-- 0.0 -->
      <g transform="translate(34.696875 311.383219)scale(0.1 -0.1)">
       <use xlink:href="#DejaVuSans-30"/>
       <use xlink:href="#DejaVuSans-2e" x="63.623047"/>
       <use xlink:href="#DejaVuSans-30" x="95.410156"/>
      </g>
     </g>
    </g>
    <g id="ytick_2">
     <g id="line2d_8">
      <g>
       <use xlink:href="#m76b36b1c2f" x="57.6" y="256.896" style="stroke: #000000; stroke-width: 0.8"/>
      </g>
     </g>
     <g id="text_9">
      <!-- 0.2 -->
      <g transform="translate(34.696875 260.695219)scale(0.1 -0.1)">
       <use xlink:href="#DejaVuSans-30"/>
       <use xlink:href="#DejaVuSans-2e" x="63.623047"/>
       <use xlink:href="#DejaVuSans-32" x="95.410156"/>
      </g>
     </g>
    </g>
    <g id="ytick_3">
     <g id="line2d_9">
      <g>
       <use xlink:href="#m76b36b1c2f" x="57.6" y="206.208" style="stroke: #000000; stroke-width: 0.8"/>
      </g>
     </g>
     <g id="text_10">
      <!-- 0.4 -->
      <g transform="translate(34.696875 210.007219)scale(0.1 -0.1)">
       <use xlink:href="#DejaVuSans-30"/>
       <use xlink:href="#DejaVuSans-2e" x="63.623047"/>
       <use xlink:href="#DejaVuSans-34" x="95.410156"/>
      </g>
     </g>
    </g>
    <g id="ytick_4">
     <g id="line2d_10">
      <g>
       <use xlink:href="#m76b36b1c2f" x="57.6" y="155.52" style="stroke: #000000; stroke-width: 0.8"/>
      </g>
     </g>
     <g id="text_11">
      <!-- 0.6 -->
      <g transform="translate(34.696875 159.319219)scale(0.1 -0.1)">
       <use xlink:href="#DejaVuSans-30"/>
       <use xlink:href="#DejaVuSans-2e" x="63.623047"/>
       <use xlink:href="#DejaVuSans-36" x="95.410156"/>
      </g>
     </g>
    </g>
    <g id="ytick_5">
     <g id="line2d_11">
      <g>
       <use xlink:href="#m76b36b1c2f" x="57.6" y="104.832" style="stroke: #000000; stroke-width: 0.8"/>
      </g>
     </g>
     <g id="text_12">
      <!-- 0.8 -->
      <g transform="translate(34.696875 108.631219)scale(0.1 -0.1)">
       <use xlink:href="#DejaVuSans-30"/>
       <use xlink:href="#DejaVuSans-2e" x="63.623047"/>
       <use xlink:href="#DejaVuSans-38" x="95.410156"/>
      </g>
     </g>
    </g>
    <g id="ytick_6">
     <g id="line2d_12">
      <g>
       <use xlink:href="#m76b36b1c2f" x="57.6" y="54.144" style="stroke: #000000; stroke-width: 0.8"/>
      </g>
     </g>
     <g id="text_13">
      <!-- 1.0 -->
      <g transform="translate(34.696875 57.943219)scale(0.1 -0.1)">
       <use xlink:href="#DejaVuSans-31"/>
       <use xlink:href="#DejaVuSans-2e" x="63.623047"/>
       <use xlink:href="#DejaVuSans-30" x="95.410156"/>
      </g>
     </g>
    </g>
    <g id="text_14">
     <!-- True Positive Rate -->
     <g transform="translate(28.617187 219.057687)rotate(-90)scale(0.1 -0.1)">
      <defs>
       <path id="DejaVuSans-54" d="M -19 4666 
L 3928 4666 
L 3928 4134 
L 2272 4134 
L 2272 0 
L 1638 0 
L 1638 4134 
L -19 4134 
L -19 4666 
z
" transform="scale(0.015625)"/>
       <path id="DejaVuSans-72" d="M 2631 2963 
Q 2534 3019 2420 3045 
Q 2306 3072 2169 3072 
Q 1681 3072 1420 2755 
Q 1159 2438 1159 1844 
L 1159 0 
L 581 0 
L 581 3500 
L 1159 3500 
L 1159 2956 
Q 1341 3275 1631 3429 
Q 1922 3584 2338 3584 
Q 2397 3584 2469 3576 
Q 2541 3569 2628 3553 
L 2631 2963 
z
" transform="scale(0.015625)"/>
       <path id="DejaVuSans-75" d="M 544 1381 
L 544 3500 
L 1119 3500 
L 1119 1403 
Q 1119 906 1312 657 
Q 1506 409 1894 409 
Q 2359 409 2629 706 
Q 2900 1003 2900 1516 
L 2900 3500 
L 3475 3500 
L 3475 0 
L 2900 0 
L 2900 538 
Q 2691 219 2414 64 
Q 2138 -91 1772 -91 
Q 1169 -91 856 284 
Q 544 659 544 1381 
z
M 1991 3584 
L 1991 3584 
z
" transform="scale(0.015625)"/>
      </defs>
      <use xlink:href="#DejaVuSans-54"/>
      <use xlink:href="#DejaVuSans-72" x="46.333984"/>
      <use xlink:href="#DejaVuSans-75" x="87.447266"/>
      <use xlink:href="#DejaVuSans-65" x="150.826172"/>
      <use xlink:href="#DejaVuSans-20" x="212.349609"/>
      <use xlink:href="#DejaVuSans-50" x="244.136719"/>
      <use xlink:href="#DejaVuSans-6f" x="300.814453"/>
      <use xlink:href="#DejaVuSans-73" x="361.996094"/>
      <use xlink:href="#DejaVuSans-69" x="414.095703"/>
      <use xlink:href="#DejaVuSans-74" x="441.878906"/>
      <use xlink:href="#DejaVuSans-69" x="481.087891"/>
      <use xlink:href="#DejaVuSans-76" x="508.871094"/>
      <use xlink:href="#DejaVuSans-65" x="568.050781"/>
      <use xlink:href="#DejaVuSans-20" x="629.574219"/>
      <use xlink:href="#DejaVuSans-52" x="661.361328"/>
      <use xlink:href="#DejaVuSans-61" x="728.59375"/>
      <use xlink:href="#DejaVuSans-74" x="789.873047"/>
      <use xlink:href="#DejaVuSans-65" x="829.082031"/>
     </g>
    </g>
   </g>
   <g id="line2d_13">
    <path d="M 57.6 307.584 
L 57.6 299.618743 
L 58.620343 299.618743 
L 58.620343 293.825829 
L 59.640686 293.825829 
L 59.640686 263.413029 
L 60.661029 263.413029 
L 60.661029 252.551314 
L 61.681371 252.551314 
L 61.681371 248.930743 
L 62.701714 248.930743 
L 62.701714 240.965486 
L 63.722057 240.965486 
L 63.722057 237.344914 
L 64.7424 237.344914 
L 64.7424 229.379657 
L 65.762743 229.379657 
L 65.762743 225.034971 
L 66.783086 225.034971 
L 66.783086 223.586743 
L 67.803429 223.586743 
L 67.803429 220.690286 
L 68.823771 220.690286 
L 68.823771 215.621486 
L 69.844114 215.621486 
L 69.844114 209.828571 
L 70.864457 209.828571 
L 70.864457 205.483886 
L 71.8848 205.483886 
L 71.8848 203.311543 
L 73.925486 203.311543 
L 73.925486 191.0016 
L 74.945829 191.0016 
L 74.945829 189.553371 
L 75.966171 189.553371 
L 75.966171 188.105143 
L 76.986514 188.105143 
L 76.986514 184.484571 
L 78.006857 184.484571 
L 78.006857 182.312229 
L 79.0272 182.312229 
L 79.0272 181.588114 
L 80.047543 181.588114 
L 80.047543 180.139886 
L 81.067886 180.139886 
L 81.067886 178.691657 
L 82.088229 178.691657 
L 82.088229 177.967543 
L 83.108571 177.967543 
L 83.108571 175.7952 
L 85.149257 175.7952 
L 85.149257 168.554057 
L 88.210286 168.554057 
L 88.210286 162.761143 
L 89.230629 162.761143 
L 89.230629 159.864686 
L 90.250971 159.864686 
L 90.250971 157.692343 
L 92.291657 157.692343 
L 92.291657 156.968229 
L 93.312 156.968229 
L 93.312 154.071771 
L 94.332343 154.071771 
L 94.332343 146.830629 
L 95.352686 146.830629 
L 95.352686 143.934171 
L 96.373029 143.934171 
L 96.373029 141.037714 
L 97.393371 141.037714 
L 97.393371 140.3136 
L 98.413714 140.3136 
L 98.413714 138.865371 
L 99.434057 138.865371 
L 99.434057 136.693029 
L 101.474743 136.693029 
L 101.474743 135.968914 
L 102.495086 135.968914 
L 102.495086 134.520686 
L 103.515429 134.520686 
L 103.515429 133.796571 
L 106.576457 133.796571 
L 106.576457 132.348343 
L 107.5968 132.348343 
L 107.5968 130.900114 
L 108.617143 130.900114 
L 108.617143 129.451886 
L 109.637486 129.451886 
L 109.637486 128.003657 
L 110.657829 128.003657 
L 110.657829 120.762514 
L 111.678171 120.762514 
L 111.678171 117.866057 
L 112.698514 117.866057 
L 112.698514 112.073143 
L 114.7392 112.073143 
L 114.7392 109.176686 
L 118.820571 109.176686 
L 118.820571 107.004343 
L 122.901943 107.004343 
L 122.901943 106.280229 
L 123.922286 106.280229 
L 123.922286 104.832 
L 125.962971 104.832 
L 125.962971 101.935543 
L 129.024 101.935543 
L 129.024 100.487314 
L 135.146057 100.487314 
L 135.146057 97.590857 
L 139.227429 97.590857 
L 139.227429 95.418514 
L 141.268114 95.418514 
L 141.268114 94.6944 
L 143.3088 94.6944 
L 143.3088 93.246171 
L 144.329143 93.246171 
L 144.329143 92.522057 
L 147.390171 92.522057 
L 147.390171 91.073829 
L 149.430857 91.073829 
L 149.430857 90.349714 
L 151.471543 90.349714 
L 151.471543 86.729143 
L 153.512229 86.729143 
L 153.512229 86.005029 
L 155.552914 86.005029 
L 155.552914 84.5568 
L 156.573257 84.5568 
L 156.573257 83.832686 
L 157.5936 83.832686 
L 157.5936 83.108571 
L 158.613943 83.108571 
L 158.613943 81.660343 
L 159.634286 81.660343 
L 159.634286 79.488 
L 162.695314 79.488 
L 162.695314 77.315657 
L 164.736 77.315657 
L 164.736 76.591543 
L 166.776686 76.591543 
L 166.776686 75.867429 
L 167.797029 75.867429 
L 167.797029 74.4192 
L 171.8784 74.4192 
L 171.8784 73.695086 
L 174.939429 73.695086 
L 174.939429 72.970971 
L 182.081829 72.970971 
L 182.081829 72.246857 
L 187.183543 72.246857 
L 187.183543 70.798629 
L 194.325943 70.798629 
L 194.325943 70.074514 
L 201.468343 70.074514 
L 201.468343 69.3504 
L 220.854857 69.3504 
L 220.854857 68.626286 
L 252.485486 68.626286 
L 252.485486 67.902171 
L 258.607543 67.902171 
L 258.607543 65.729829 
L 260.648229 65.729829 
L 260.648229 65.005714 
L 265.749943 65.005714 
L 265.749943 64.2816 
L 277.994057 64.2816 
L 277.994057 63.557486 
L 285.136457 63.557486 
L 285.136457 62.833371 
L 290.238171 62.833371 
L 290.238171 62.109257 
L 293.2992 62.109257 
L 293.2992 61.385143 
L 305.543314 61.385143 
L 305.543314 60.661029 
L 316.767086 60.661029 
L 316.767086 59.2128 
L 322.889143 59.2128 
L 322.889143 58.488686 
L 333.092571 58.488686 
L 333.092571 57.764571 
L 348.397714 57.764571 
L 348.397714 57.040457 
L 365.743543 57.040457 
L 365.743543 56.316343 
L 376.967314 56.316343 
L 376.967314 55.592229 
L 390.231771 55.592229 
L 390.231771 54.868114 
L 402.475886 54.868114 
L 402.475886 54.144 
L 414.72 54.144 
L 414.72 54.144 
" clip-path="url(#pd00cd5913c)" style="fill: none; stroke-dasharray: 7.4,3.2; stroke-dashoffset: 0; stroke: #ff0000; stroke-width: 2"/>
   </g>
   <g id="line2d_14">
    <path d="M 57.6 307.584 
L 58.620343 307.584 
L 58.620343 303.963429 
L 59.640686 303.963429 
L 59.640686 301.791086 
L 60.661029 301.791086 
L 60.661029 293.825829 
L 61.681371 293.825829 
L 61.681371 291.653486 
L 62.701714 291.653486 
L 62.701714 288.757029 
L 63.722057 288.757029 
L 63.722057 283.688229 
L 65.762743 283.688229 
L 65.762743 281.515886 
L 66.783086 281.515886 
L 66.783086 277.1712 
L 67.803429 277.1712 
L 67.803429 272.1024 
L 71.8848 272.1024 
L 71.8848 270.654171 
L 72.905143 270.654171 
L 72.905143 265.585371 
L 73.925486 265.585371 
L 73.925486 255.447771 
L 75.966171 255.447771 
L 75.966171 253.999543 
L 76.986514 253.999543 
L 76.986514 247.482514 
L 78.006857 247.482514 
L 78.006857 246.7584 
L 80.047543 246.7584 
L 80.047543 244.586057 
L 81.067886 244.586057 
L 81.067886 243.861943 
L 82.088229 243.861943 
L 82.088229 239.517257 
L 83.108571 239.517257 
L 83.108571 238.069029 
L 84.128914 238.069029 
L 84.128914 233.000229 
L 86.1696 233.000229 
L 86.1696 230.827886 
L 87.189943 230.827886 
L 87.189943 230.103771 
L 88.210286 230.103771 
L 88.210286 228.655543 
L 90.250971 228.655543 
L 90.250971 226.4832 
L 92.291657 226.4832 
L 92.291657 223.586743 
L 93.312 223.586743 
L 93.312 222.862629 
L 94.332343 222.862629 
L 94.332343 222.138514 
L 95.352686 222.138514 
L 95.352686 220.690286 
L 96.373029 220.690286 
L 96.373029 219.966171 
L 97.393371 219.966171 
L 97.393371 218.517943 
L 98.413714 218.517943 
L 98.413714 214.173257 
L 99.434057 214.173257 
L 99.434057 212.000914 
L 100.4544 212.000914 
L 100.4544 209.104457 
L 101.474743 209.104457 
L 101.474743 204.759771 
L 102.495086 204.759771 
L 102.495086 202.587429 
L 103.515429 202.587429 
L 103.515429 199.690971 
L 104.535771 199.690971 
L 104.535771 193.173943 
L 105.556114 193.173943 
L 105.556114 186.656914 
L 106.576457 186.656914 
L 106.576457 185.208686 
L 107.5968 185.208686 
L 107.5968 182.312229 
L 108.617143 182.312229 
L 108.617143 180.864 
L 109.637486 180.864 
L 109.637486 179.415771 
L 110.657829 179.415771 
L 110.657829 175.071086 
L 111.678171 175.071086 
L 111.678171 172.174629 
L 112.698514 172.174629 
L 112.698514 171.450514 
L 115.759543 171.450514 
L 115.759543 168.554057 
L 117.800229 168.554057 
L 117.800229 167.829943 
L 118.820571 167.829943 
L 118.820571 162.761143 
L 119.840914 162.761143 
L 119.840914 161.312914 
L 120.861257 161.312914 
L 120.861257 159.864686 
L 122.901943 159.864686 
L 122.901943 158.416457 
L 123.922286 158.416457 
L 123.922286 156.244114 
L 125.962971 156.244114 
L 125.962971 155.52 
L 128.003657 155.52 
L 128.003657 154.795886 
L 129.024 154.795886 
L 129.024 154.071771 
L 130.044343 154.071771 
L 130.044343 151.899429 
L 131.064686 151.899429 
L 131.064686 151.175314 
L 132.085029 151.175314 
L 132.085029 148.278857 
L 133.105371 148.278857 
L 133.105371 145.3824 
L 134.125714 145.3824 
L 134.125714 142.485943 
L 135.146057 142.485943 
L 135.146057 141.037714 
L 136.1664 141.037714 
L 136.1664 140.3136 
L 138.207086 140.3136 
L 138.207086 134.520686 
L 139.227429 134.520686 
L 139.227429 131.624229 
L 141.268114 131.624229 
L 141.268114 130.900114 
L 142.288457 130.900114 
L 142.288457 127.279543 
L 143.3088 127.279543 
L 143.3088 123.658971 
L 144.329143 123.658971 
L 144.329143 122.934857 
L 145.349486 122.934857 
L 145.349486 122.210743 
L 146.369829 122.210743 
L 146.369829 120.762514 
L 147.390171 120.762514 
L 147.390171 120.0384 
L 148.410514 120.0384 
L 148.410514 116.417829 
L 150.4512 116.417829 
L 150.4512 112.797257 
L 151.471543 112.797257 
L 151.471543 109.9008 
L 152.491886 109.9008 
L 152.491886 108.452571 
L 153.512229 108.452571 
L 153.512229 107.728457 
L 155.552914 107.728457 
L 155.552914 107.004343 
L 156.573257 107.004343 
L 156.573257 104.107886 
L 157.5936 104.107886 
L 157.5936 100.487314 
L 160.654629 100.487314 
L 160.654629 99.7632 
L 166.776686 99.7632 
L 166.776686 99.039086 
L 167.797029 99.039086 
L 167.797029 98.314971 
L 168.817371 98.314971 
L 168.817371 96.866743 
L 172.898743 96.866743 
L 172.898743 95.418514 
L 174.939429 95.418514 
L 174.939429 94.6944 
L 175.959771 94.6944 
L 175.959771 93.970286 
L 178.000457 93.970286 
L 178.000457 91.797943 
L 182.081829 91.797943 
L 182.081829 89.6256 
L 183.102171 89.6256 
L 183.102171 87.453257 
L 185.142857 87.453257 
L 185.142857 86.005029 
L 191.264914 86.005029 
L 191.264914 85.280914 
L 192.285257 85.280914 
L 192.285257 84.5568 
L 196.366629 84.5568 
L 196.366629 83.832686 
L 200.448 83.832686 
L 200.448 83.108571 
L 201.468343 83.108571 
L 201.468343 82.384457 
L 202.488686 82.384457 
L 202.488686 80.212114 
L 204.529371 80.212114 
L 204.529371 79.488 
L 205.549714 79.488 
L 205.549714 78.763886 
L 207.5904 78.763886 
L 207.5904 77.315657 
L 208.610743 77.315657 
L 208.610743 76.591543 
L 220.854857 76.591543 
L 220.854857 75.867429 
L 221.8752 75.867429 
L 221.8752 75.143314 
L 224.936229 75.143314 
L 224.936229 74.4192 
L 227.997257 74.4192 
L 227.997257 72.970971 
L 234.119314 72.970971 
L 234.119314 72.246857 
L 237.180343 72.246857 
L 237.180343 71.522743 
L 249.424457 71.522743 
L 249.424457 70.798629 
L 252.485486 70.798629 
L 252.485486 69.3504 
L 256.566857 69.3504 
L 256.566857 68.626286 
L 257.5872 68.626286 
L 257.5872 67.902171 
L 258.607543 67.902171 
L 258.607543 67.178057 
L 266.770286 67.178057 
L 266.770286 66.453943 
L 268.810971 66.453943 
L 268.810971 65.729829 
L 275.953371 65.729829 
L 275.953371 64.2816 
L 284.116114 64.2816 
L 284.116114 63.557486 
L 286.1568 63.557486 
L 286.1568 62.109257 
L 293.2992 62.109257 
L 293.2992 61.385143 
L 297.380571 61.385143 
L 297.380571 60.661029 
L 298.400914 60.661029 
L 298.400914 59.936914 
L 308.604343 59.936914 
L 308.604343 59.2128 
L 312.685714 59.2128 
L 312.685714 58.488686 
L 313.706057 58.488686 
L 313.706057 57.764571 
L 343.296 57.764571 
L 343.296 57.040457 
L 358.601143 57.040457 
L 358.601143 56.316343 
L 359.621486 56.316343 
L 359.621486 54.868114 
L 368.804571 54.868114 
L 368.804571 54.144 
L 414.72 54.144 
L 414.72 54.144 
" clip-path="url(#pd00cd5913c)" style="fill: none; stroke-dasharray: 7.4,3.2; stroke-dashoffset: 0; stroke: #008000; stroke-width: 2"/>
   </g>
   <g id="line2d_15">
    <path d="M 57.6 307.584 
L 57.6 306.135771 
L 57.6 299.618743 
L 57.6 294.549943 
L 58.620343 290.205257 
L 58.620343 279.343543 
L 58.620343 267.757714 
L 59.640686 260.516571 
L 61.681371 252.551314 
L 61.681371 251.103086 
L 62.701714 240.241371 
L 63.722057 230.103771 
L 63.722057 216.3456 
L 64.7424 208.380343 
L 64.7424 207.656229 
L 67.803429 195.346286 
L 67.803429 194.622171 
L 70.864457 182.312229 
L 72.905143 171.450514 
L 74.945829 161.312914 
L 74.945829 160.5888 
L 81.067886 152.623543 
L 85.149257 141.037714 
L 85.149257 140.3136 
L 86.1696 140.3136 
L 91.271314 132.348343 
L 91.271314 131.624229 
L 93.312 122.210743 
L 93.312 121.486629 
L 98.413714 117.141943 
L 103.515429 110.624914 
L 109.637486 107.004343 
L 109.637486 106.280229 
L 112.698514 101.211429 
L 113.718857 101.211429 
L 116.779886 97.590857 
L 122.901943 93.246171 
L 122.901943 92.522057 
L 126.983314 90.349714 
L 137.186743 88.177371 
L 139.227429 83.832686 
L 145.349486 80.936229 
L 146.369829 80.936229 
L 154.532571 78.039771 
L 161.674971 76.591543 
L 167.797029 74.4192 
L 172.898743 72.246857 
L 173.919086 72.246857 
L 183.102171 70.074514 
L 193.3056 68.626286 
L 194.325943 68.626286 
L 203.509029 67.178057 
L 203.509029 66.453943 
L 207.5904 65.729829 
L 216.773486 65.729829 
L 217.793829 65.729829 
L 229.0176 65.005714 
L 243.3024 64.2816 
L 253.505829 62.833371 
L 267.790629 61.385143 
L 284.116114 59.936914 
L 303.502629 59.2128 
L 317.787429 57.040457 
L 331.051886 56.316343 
L 355.540114 56.316343 
L 379.008 56.316343 
L 401.455543 55.592229 
L 414.72 54.144 
" clip-path="url(#pd00cd5913c)" style="fill: none; stroke-dasharray: 7.4,3.2; stroke-dashoffset: 0; stroke: #0000ff; stroke-width: 2"/>
   </g>
   <g id="line2d_16">
    <path d="M 57.6 307.584 
L 57.6 241.6896 
L 58.620343 241.6896 
L 58.620343 229.379657 
L 59.640686 229.379657 
L 59.640686 222.138514 
L 60.661029 222.138514 
L 60.661029 215.621486 
L 61.681371 215.621486 
L 61.681371 209.828571 
L 63.722057 209.828571 
L 63.722057 205.483886 
L 64.7424 205.483886 
L 64.7424 193.898057 
L 65.762743 193.898057 
L 65.762743 193.173943 
L 66.783086 193.173943 
L 66.783086 191.725714 
L 67.803429 191.725714 
L 67.803429 191.0016 
L 68.823771 191.0016 
L 68.823771 186.656914 
L 69.844114 186.656914 
L 69.844114 183.760457 
L 70.864457 183.760457 
L 70.864457 183.036343 
L 71.8848 183.036343 
L 71.8848 181.588114 
L 72.905143 181.588114 
L 72.905143 172.174629 
L 73.925486 172.174629 
L 73.925486 162.761143 
L 74.945829 162.761143 
L 74.945829 162.037029 
L 75.966171 162.037029 
L 75.966171 159.864686 
L 76.986514 159.864686 
L 76.986514 157.692343 
L 79.0272 157.692343 
L 79.0272 151.175314 
L 80.047543 151.175314 
L 80.047543 149.727086 
L 81.067886 149.727086 
L 81.067886 139.589486 
L 82.088229 139.589486 
L 82.088229 138.865371 
L 83.108571 138.865371 
L 83.108571 138.141257 
L 84.128914 138.141257 
L 84.128914 133.796571 
L 85.149257 133.796571 
L 85.149257 133.072457 
L 86.1696 133.072457 
L 86.1696 130.176 
L 87.189943 130.176 
L 87.189943 127.279543 
L 90.250971 127.279543 
L 90.250971 125.831314 
L 91.271314 125.831314 
L 91.271314 125.1072 
L 92.291657 125.1072 
L 92.291657 124.383086 
L 93.312 124.383086 
L 93.312 122.210743 
L 95.352686 122.210743 
L 95.352686 119.314286 
L 96.373029 119.314286 
L 96.373029 117.866057 
L 98.413714 117.866057 
L 98.413714 117.141943 
L 100.4544 117.141943 
L 100.4544 115.693714 
L 101.474743 115.693714 
L 101.474743 110.624914 
L 105.556114 110.624914 
L 105.556114 108.452571 
L 106.576457 108.452571 
L 106.576457 107.004343 
L 107.5968 107.004343 
L 107.5968 106.280229 
L 109.637486 106.280229 
L 109.637486 104.832 
L 110.657829 104.832 
L 110.657829 103.383771 
L 112.698514 103.383771 
L 112.698514 99.7632 
L 114.7392 99.7632 
L 114.7392 96.142629 
L 115.759543 96.142629 
L 115.759543 95.418514 
L 116.779886 95.418514 
L 116.779886 94.6944 
L 117.800229 94.6944 
L 117.800229 91.797943 
L 119.840914 91.797943 
L 119.840914 91.073829 
L 120.861257 91.073829 
L 120.861257 88.901486 
L 121.8816 88.901486 
L 121.8816 88.177371 
L 130.044343 88.177371 
L 130.044343 87.453257 
L 131.064686 87.453257 
L 131.064686 86.729143 
L 132.085029 86.729143 
L 132.085029 86.005029 
L 135.146057 86.005029 
L 135.146057 83.832686 
L 137.186743 83.832686 
L 137.186743 83.108571 
L 144.329143 83.108571 
L 144.329143 82.384457 
L 146.369829 82.384457 
L 146.369829 81.660343 
L 148.410514 81.660343 
L 148.410514 80.936229 
L 152.491886 80.936229 
L 152.491886 80.212114 
L 153.512229 80.212114 
L 153.512229 79.488 
L 158.613943 79.488 
L 158.613943 78.763886 
L 160.654629 78.763886 
L 160.654629 76.591543 
L 161.674971 76.591543 
L 161.674971 75.867429 
L 162.695314 75.867429 
L 162.695314 75.143314 
L 163.715657 75.143314 
L 163.715657 74.4192 
L 166.776686 74.4192 
L 166.776686 73.695086 
L 167.797029 73.695086 
L 167.797029 72.970971 
L 168.817371 72.970971 
L 168.817371 72.246857 
L 169.837714 72.246857 
L 169.837714 71.522743 
L 172.898743 71.522743 
L 172.898743 70.798629 
L 176.980114 70.798629 
L 176.980114 70.074514 
L 180.041143 70.074514 
L 180.041143 69.3504 
L 185.142857 69.3504 
L 185.142857 68.626286 
L 195.346286 68.626286 
L 195.346286 67.902171 
L 196.366629 67.902171 
L 196.366629 67.178057 
L 204.529371 67.178057 
L 204.529371 66.453943 
L 206.570057 66.453943 
L 206.570057 65.729829 
L 223.915886 65.729829 
L 223.915886 65.005714 
L 229.0176 65.005714 
L 229.0176 64.2816 
L 233.098971 64.2816 
L 233.098971 63.557486 
L 242.282057 63.557486 
L 242.282057 62.833371 
L 243.3024 62.833371 
L 243.3024 61.385143 
L 254.526171 61.385143 
L 254.526171 60.661029 
L 269.831314 60.661029 
L 269.831314 59.936914 
L 281.055086 59.936914 
L 281.055086 59.2128 
L 295.339886 59.2128 
L 295.339886 58.488686 
L 304.522971 58.488686 
L 304.522971 57.764571 
L 323.909486 57.764571 
L 323.909486 57.040457 
L 350.4384 57.040457 
L 350.4384 56.316343 
L 363.702857 56.316343 
L 363.702857 55.592229 
L 367.784229 55.592229 
L 367.784229 54.868114 
L 385.130057 54.868114 
L 385.130057 54.144 
L 414.72 54.144 
L 414.72 54.144 
" clip-path="url(#pd00cd5913c)" style="fill: none; stroke-dasharray: 7.4,3.2; stroke-dashoffset: 0; stroke: #00bfbf; stroke-width: 2"/>
   </g>
   <g id="line2d_17">
    <path d="M 57.6 307.584 
L 57.6 303.963429 
L 58.620343 303.963429 
L 58.620343 299.618743 
L 59.640686 299.618743 
L 59.640686 263.413029 
L 60.661029 263.413029 
L 60.661029 261.9648 
L 61.681371 261.9648 
L 61.681371 259.792457 
L 62.701714 259.792457 
L 62.701714 246.7584 
L 63.722057 246.7584 
L 63.722057 246.034286 
L 64.7424 246.034286 
L 64.7424 238.069029 
L 65.762743 238.069029 
L 65.762743 233.724343 
L 66.783086 233.724343 
L 66.783086 233.000229 
L 67.803429 233.000229 
L 67.803429 231.552 
L 70.864457 231.552 
L 70.864457 225.034971 
L 71.8848 225.034971 
L 71.8848 217.793829 
L 72.905143 217.793829 
L 72.905143 212.000914 
L 73.925486 212.000914 
L 73.925486 209.104457 
L 75.966171 209.104457 
L 75.966171 206.932114 
L 76.986514 206.932114 
L 76.986514 201.863314 
L 78.006857 201.863314 
L 78.006857 193.898057 
L 79.0272 193.898057 
L 79.0272 190.277486 
L 80.047543 190.277486 
L 80.047543 186.656914 
L 81.067886 186.656914 
L 81.067886 185.9328 
L 82.088229 185.9328 
L 82.088229 185.208686 
L 83.108571 185.208686 
L 83.108571 183.036343 
L 84.128914 183.036343 
L 84.128914 175.7952 
L 85.149257 175.7952 
L 85.149257 173.622857 
L 86.1696 173.622857 
L 86.1696 172.898743 
L 88.210286 172.898743 
L 88.210286 159.140571 
L 89.230629 159.140571 
L 89.230629 157.692343 
L 90.250971 157.692343 
L 90.250971 151.899429 
L 91.271314 151.899429 
L 91.271314 150.4512 
L 92.291657 150.4512 
L 92.291657 148.278857 
L 93.312 148.278857 
L 93.312 147.554743 
L 94.332343 147.554743 
L 94.332343 144.658286 
L 95.352686 144.658286 
L 95.352686 143.210057 
L 97.393371 143.210057 
L 97.393371 141.761829 
L 98.413714 141.761829 
L 98.413714 140.3136 
L 100.4544 140.3136 
L 100.4544 138.141257 
L 101.474743 138.141257 
L 101.474743 134.520686 
L 102.495086 134.520686 
L 102.495086 132.348343 
L 105.556114 132.348343 
L 105.556114 126.555429 
L 106.576457 126.555429 
L 106.576457 125.1072 
L 107.5968 125.1072 
L 107.5968 124.383086 
L 108.617143 124.383086 
L 108.617143 122.934857 
L 110.657829 122.934857 
L 110.657829 121.486629 
L 111.678171 121.486629 
L 111.678171 120.762514 
L 113.718857 120.762514 
L 113.718857 118.590171 
L 118.820571 118.590171 
L 118.820571 112.797257 
L 119.840914 112.797257 
L 119.840914 112.073143 
L 120.861257 112.073143 
L 120.861257 109.176686 
L 123.922286 109.176686 
L 123.922286 108.452571 
L 124.942629 108.452571 
L 124.942629 107.728457 
L 125.962971 107.728457 
L 125.962971 106.280229 
L 126.983314 106.280229 
L 126.983314 105.556114 
L 128.003657 105.556114 
L 128.003657 104.832 
L 129.024 104.832 
L 129.024 102.659657 
L 130.044343 102.659657 
L 130.044343 99.7632 
L 132.085029 99.7632 
L 132.085029 97.590857 
L 133.105371 97.590857 
L 133.105371 96.142629 
L 136.1664 92.522057 
L 136.1664 91.797943 
L 137.186743 91.797943 
L 137.186743 91.073829 
L 138.207086 91.073829 
L 138.207086 90.349714 
L 139.227429 90.349714 
L 139.227429 89.6256 
L 140.247771 89.6256 
L 140.247771 87.453257 
L 142.288457 87.453257 
L 142.288457 86.729143 
L 144.329143 86.729143 
L 144.329143 84.5568 
L 145.349486 84.5568 
L 145.349486 83.108571 
L 146.369829 83.108571 
L 146.369829 81.660343 
L 147.390171 81.660343 
L 147.390171 80.936229 
L 148.410514 80.936229 
L 148.410514 79.488 
L 152.491886 79.488 
L 152.491886 78.763886 
L 153.512229 78.763886 
L 153.512229 76.591543 
L 154.532571 76.591543 
L 154.532571 74.4192 
L 155.552914 74.4192 
L 155.552914 73.695086 
L 166.776686 73.695086 
L 166.776686 72.970971 
L 168.817371 72.970971 
L 168.817371 71.522743 
L 169.837714 71.522743 
L 169.837714 70.798629 
L 173.919086 70.798629 
L 173.919086 69.3504 
L 174.939429 69.3504 
L 174.939429 68.626286 
L 178.000457 68.626286 
L 178.000457 67.902171 
L 181.061486 67.902171 
L 181.061486 67.178057 
L 184.122514 67.178057 
L 184.122514 66.453943 
L 205.549714 66.453943 
L 205.549714 65.729829 
L 214.7328 65.729829 
L 214.7328 65.005714 
L 217.793829 65.005714 
L 217.793829 64.2816 
L 225.956571 64.2816 
L 225.956571 63.557486 
L 243.3024 63.557486 
L 243.3024 62.833371 
L 250.4448 62.833371 
L 250.4448 62.109257 
L 263.709257 62.109257 
L 263.709257 61.385143 
L 268.810971 61.385143 
L 268.810971 60.661029 
L 269.831314 60.661029 
L 269.831314 59.936914 
L 308.604343 59.936914 
L 308.604343 59.2128 
L 315.746743 59.2128 
L 315.746743 58.488686 
L 348.397714 58.488686 
L 348.397714 57.764571 
L 367.784229 57.764571 
L 367.784229 56.316343 
L 369.824914 56.316343 
L 369.824914 55.592229 
L 371.8656 55.592229 
L 371.8656 54.868114 
L 391.252114 54.868114 
L 391.252114 54.144 
L 414.72 54.144 
L 414.72 54.144 
" clip-path="url(#pd00cd5913c)" style="fill: none; stroke-dasharray: 7.4,3.2; stroke-dashoffset: 0; stroke: #bf00bf; stroke-width: 2"/>
   </g>
   <g id="line2d_18">
    <path d="M 57.6 307.584 
L 57.6 301.066971 
L 58.620343 301.066971 
L 58.620343 290.929371 
L 59.640686 290.929371 
L 59.640686 277.895314 
L 60.661029 277.895314 
L 60.661029 274.998857 
L 61.681371 274.998857 
L 61.681371 271.378286 
L 62.701714 271.378286 
L 62.701714 261.9648 
L 63.722057 261.9648 
L 63.722057 257.620114 
L 64.7424 257.620114 
L 64.7424 256.896 
L 66.783086 256.896 
L 66.783086 251.8272 
L 68.823771 251.8272 
L 68.823771 251.103086 
L 69.844114 251.103086 
L 69.844114 245.310171 
L 70.864457 245.310171 
L 70.864457 243.861943 
L 71.8848 243.861943 
L 71.8848 243.137829 
L 72.905143 243.137829 
L 72.905143 240.241371 
L 73.925486 240.241371 
L 73.925486 236.6208 
L 74.945829 236.6208 
L 74.945829 235.172571 
L 78.006857 235.172571 
L 78.006857 228.655543 
L 79.0272 228.655543 
L 79.0272 227.207314 
L 80.047543 227.207314 
L 80.047543 222.862629 
L 81.067886 222.862629 
L 81.067886 222.138514 
L 82.088229 222.138514 
L 82.088229 221.4144 
L 83.108571 221.4144 
L 83.108571 217.793829 
L 84.128914 217.793829 
L 84.128914 211.2768 
L 85.149257 211.2768 
L 85.149257 210.552686 
L 87.189943 210.552686 
L 87.189943 209.104457 
L 88.210286 209.104457 
L 88.210286 208.380343 
L 89.230629 208.380343 
L 89.230629 206.208 
L 90.250971 206.208 
L 90.250971 203.311543 
L 91.271314 203.311543 
L 91.271314 201.863314 
L 92.291657 201.863314 
L 92.291657 200.415086 
L 93.312 200.415086 
L 93.312 198.966857 
L 95.352686 198.966857 
L 95.352686 198.242743 
L 96.373029 198.242743 
L 96.373029 196.794514 
L 99.434057 196.794514 
L 99.434057 192.449829 
L 100.4544 192.449829 
L 100.4544 188.105143 
L 102.495086 188.105143 
L 102.495086 185.208686 
L 103.515429 185.208686 
L 103.515429 183.036343 
L 104.535771 183.036343 
L 104.535771 181.588114 
L 106.576457 181.588114 
L 106.576457 177.967543 
L 107.5968 177.967543 
L 107.5968 176.519314 
L 109.637486 176.519314 
L 109.637486 170.002286 
L 110.657829 170.002286 
L 110.657829 168.554057 
L 111.678171 168.554057 
L 111.678171 166.381714 
L 112.698514 166.381714 
L 112.698514 165.6576 
L 113.718857 165.6576 
L 113.718857 163.485257 
L 114.7392 163.485257 
L 114.7392 158.416457 
L 115.759543 158.416457 
L 115.759543 157.692343 
L 117.800229 157.692343 
L 117.800229 152.623543 
L 118.820571 152.623543 
L 118.820571 147.554743 
L 120.861257 147.554743 
L 120.861257 146.830629 
L 121.8816 146.830629 
L 121.8816 144.658286 
L 122.901943 144.658286 
L 122.901943 143.934171 
L 123.922286 143.934171 
L 123.922286 143.210057 
L 125.962971 143.210057 
L 125.962971 140.3136 
L 129.024 140.3136 
L 129.024 138.865371 
L 132.085029 138.865371 
L 132.085029 138.141257 
L 135.146057 138.141257 
L 135.146057 137.417143 
L 136.1664 137.417143 
L 136.1664 136.693029 
L 137.186743 136.693029 
L 137.186743 133.072457 
L 138.207086 133.072457 
L 138.207086 130.900114 
L 140.247771 130.900114 
L 140.247771 128.727771 
L 143.3088 128.727771 
L 143.3088 127.279543 
L 145.349486 127.279543 
L 145.349486 126.555429 
L 146.369829 126.555429 
L 146.369829 125.1072 
L 147.390171 125.1072 
L 147.390171 123.658971 
L 148.410514 123.658971 
L 148.410514 119.314286 
L 149.430857 119.314286 
L 149.430857 118.590171 
L 150.4512 118.590171 
L 150.4512 116.417829 
L 151.471543 116.417829 
L 151.471543 114.9696 
L 152.491886 114.9696 
L 152.491886 112.797257 
L 154.532571 112.797257 
L 154.532571 111.349029 
L 157.5936 111.349029 
L 157.5936 109.9008 
L 158.613943 109.9008 
L 158.613943 109.176686 
L 164.736 109.176686 
L 164.736 106.280229 
L 166.776686 106.280229 
L 166.776686 104.832 
L 169.837714 104.832 
L 169.837714 103.383771 
L 170.858057 103.383771 
L 170.858057 101.211429 
L 174.939429 101.211429 
L 174.939429 100.487314 
L 175.959771 100.487314 
L 175.959771 99.7632 
L 176.980114 99.7632 
L 176.980114 99.039086 
L 178.000457 99.039086 
L 178.000457 97.590857 
L 180.041143 97.590857 
L 180.041143 96.142629 
L 181.061486 96.142629 
L 181.061486 93.246171 
L 183.102171 93.246171 
L 183.102171 92.522057 
L 185.142857 92.522057 
L 185.142857 91.797943 
L 187.183543 91.797943 
L 187.183543 91.073829 
L 191.264914 91.073829 
L 191.264914 87.453257 
L 195.346286 87.453257 
L 195.346286 86.729143 
L 196.366629 86.729143 
L 196.366629 85.280914 
L 199.427657 85.280914 
L 199.427657 83.832686 
L 200.448 83.832686 
L 200.448 83.108571 
L 201.468343 83.108571 
L 201.468343 77.315657 
L 202.488686 77.315657 
L 202.488686 76.591543 
L 203.509029 76.591543 
L 203.509029 75.867429 
L 206.570057 75.867429 
L 206.570057 75.143314 
L 208.610743 75.143314 
L 208.610743 74.4192 
L 211.671771 74.4192 
L 211.671771 73.695086 
L 218.814171 73.695086 
L 218.814171 72.970971 
L 220.854857 72.970971 
L 220.854857 72.246857 
L 224.936229 72.246857 
L 224.936229 70.798629 
L 238.200686 70.798629 
L 238.200686 68.626286 
L 239.221029 68.626286 
L 239.221029 67.178057 
L 245.343086 67.178057 
L 245.343086 66.453943 
L 251.465143 66.453943 
L 251.465143 65.729829 
L 252.485486 65.729829 
L 252.485486 65.005714 
L 253.505829 65.005714 
L 253.505829 64.2816 
L 262.688914 64.2816 
L 262.688914 63.557486 
L 270.851657 63.557486 
L 270.851657 62.833371 
L 271.872 62.833371 
L 271.872 62.109257 
L 273.912686 62.109257 
L 273.912686 61.385143 
L 286.1568 61.385143 
L 286.1568 60.661029 
L 298.400914 60.661029 
L 298.400914 59.936914 
L 313.706057 59.936914 
L 313.706057 59.2128 
L 314.7264 59.2128 
L 314.7264 58.488686 
L 330.031543 58.488686 
L 330.031543 57.764571 
L 331.051886 57.764571 
L 331.051886 57.040457 
L 338.194286 57.040457 
L 338.194286 56.316343 
L 342.275657 56.316343 
L 342.275657 55.592229 
L 343.296 55.592229 
L 343.296 54.868114 
L 374.926629 54.868114 
L 374.926629 54.144 
L 414.72 54.144 
L 414.72 54.144 
" clip-path="url(#pd00cd5913c)" style="fill: none; stroke-dasharray: 7.4,3.2; stroke-dashoffset: 0; stroke: #bfbf00; stroke-width: 2"/>
   </g>
   <g id="patch_3">
    <path d="M 57.6 307.584 
L 57.6 41.472 
" style="fill: none; stroke: #000000; stroke-width: 0.8; stroke-linejoin: miter; stroke-linecap: square"/>
   </g>
   <g id="patch_4">
    <path d="M 414.72 307.584 
L 414.72 41.472 
" style="fill: none; stroke: #000000; stroke-width: 0.8; stroke-linejoin: miter; stroke-linecap: square"/>
   </g>
   <g id="patch_5">
    <path d="M 57.6 307.584 
L 414.72 307.584 
" style="fill: none; stroke: #000000; stroke-width: 0.8; stroke-linejoin: miter; stroke-linecap: square"/>
   </g>
   <g id="patch_6">
    <path d="M 57.6 41.472 
L 414.72 41.472 
" style="fill: none; stroke: #000000; stroke-width: 0.8; stroke-linejoin: miter; stroke-linecap: square"/>
   </g>
   <g id="text_15">
    <!-- Receiver operating characteristic -->
    <g transform="translate(136.599375 35.472)scale(0.12 -0.12)">
     <defs>
      <path id="DejaVuSans-63" d="M 3122 3366 
L 3122 2828 
Q 2878 2963 2633 3030 
Q 2388 3097 2138 3097 
Q 1578 3097 1268 2742 
Q 959 2388 959 1747 
Q 959 1106 1268 751 
Q 1578 397 2138 397 
Q 2388 397 2633 464 
Q 2878 531 3122 666 
L 3122 134 
Q 2881 22 2623 -34 
Q 2366 -91 2075 -91 
Q 1284 -91 818 406 
Q 353 903 353 1747 
Q 353 2603 823 3093 
Q 1294 3584 2113 3584 
Q 2378 3584 2631 3529 
Q 2884 3475 3122 3366 
z
" transform="scale(0.015625)"/>
      <path id="DejaVuSans-70" d="M 1159 525 
L 1159 -1331 
L 581 -1331 
L 581 3500 
L 1159 3500 
L 1159 2969 
Q 1341 3281 1617 3432 
Q 1894 3584 2278 3584 
Q 2916 3584 3314 3078 
Q 3713 2572 3713 1747 
Q 3713 922 3314 415 
Q 2916 -91 2278 -91 
Q 1894 -91 1617 61 
Q 1341 213 1159 525 
z
M 3116 1747 
Q 3116 2381 2855 2742 
Q 2594 3103 2138 3103 
Q 1681 3103 1420 2742 
Q 1159 2381 1159 1747 
Q 1159 1113 1420 752 
Q 1681 391 2138 391 
Q 2594 391 2855 752 
Q 3116 1113 3116 1747 
z
" transform="scale(0.015625)"/>
      <path id="DejaVuSans-6e" d="M 3513 2113 
L 3513 0 
L 2938 0 
L 2938 2094 
Q 2938 2591 2744 2837 
Q 2550 3084 2163 3084 
Q 1697 3084 1428 2787 
Q 1159 2491 1159 1978 
L 1159 0 
L 581 0 
L 581 3500 
L 1159 3500 
L 1159 2956 
Q 1366 3272 1645 3428 
Q 1925 3584 2291 3584 
Q 2894 3584 3203 3211 
Q 3513 2838 3513 2113 
z
" transform="scale(0.015625)"/>
      <path id="DejaVuSans-67" d="M 2906 1791 
Q 2906 2416 2648 2759 
Q 2391 3103 1925 3103 
Q 1463 3103 1205 2759 
Q 947 2416 947 1791 
Q 947 1169 1205 825 
Q 1463 481 1925 481 
Q 2391 481 2648 825 
Q 2906 1169 2906 1791 
z
M 3481 434 
Q 3481 -459 3084 -895 
Q 2688 -1331 1869 -1331 
Q 1566 -1331 1297 -1286 
Q 1028 -1241 775 -1147 
L 775 -588 
Q 1028 -725 1275 -790 
Q 1522 -856 1778 -856 
Q 2344 -856 2625 -561 
Q 2906 -266 2906 331 
L 2906 616 
Q 2728 306 2450 153 
Q 2172 0 1784 0 
Q 1141 0 747 490 
Q 353 981 353 1791 
Q 353 2603 747 3093 
Q 1141 3584 1784 3584 
Q 2172 3584 2450 3431 
Q 2728 3278 2906 2969 
L 2906 3500 
L 3481 3500 
L 3481 434 
z
" transform="scale(0.015625)"/>
      <path id="DejaVuSans-68" d="M 3513 2113 
L 3513 0 
L 2938 0 
L 2938 2094 
Q 2938 2591 2744 2837 
Q 2550 3084 2163 3084 
Q 1697 3084 1428 2787 
Q 1159 2491 1159 1978 
L 1159 0 
L 581 0 
L 581 4863 
L 1159 4863 
L 1159 2956 
Q 1366 3272 1645 3428 
Q 1925 3584 2291 3584 
Q 2894 3584 3203 3211 
Q 3513 2838 3513 2113 
z
" transform="scale(0.015625)"/>
     </defs>
     <use xlink:href="#DejaVuSans-52"/>
     <use xlink:href="#DejaVuSans-65" x="64.982422"/>
     <use xlink:href="#DejaVuSans-63" x="126.505859"/>
     <use xlink:href="#DejaVuSans-65" x="181.486328"/>
     <use xlink:href="#DejaVuSans-69" x="243.009766"/>
     <use xlink:href="#DejaVuSans-76" x="270.792969"/>
     <use xlink:href="#DejaVuSans-65" x="329.972656"/>
     <use xlink:href="#DejaVuSans-72" x="391.496094"/>
     <use xlink:href="#DejaVuSans-20" x="432.609375"/>
     <use xlink:href="#DejaVuSans-6f" x="464.396484"/>
     <use xlink:href="#DejaVuSans-70" x="525.578125"/>
     <use xlink:href="#DejaVuSans-65" x="589.054688"/>
     <use xlink:href="#DejaVuSans-72" x="650.578125"/>
     <use xlink:href="#DejaVuSans-61" x="691.691406"/>
     <use xlink:href="#DejaVuSans-74" x="752.970703"/>
     <use xlink:href="#DejaVuSans-69" x="792.179688"/>
     <use xlink:href="#DejaVuSans-6e" x="819.962891"/>
     <use xlink:href="#DejaVuSans-67" x="883.341797"/>
     <use xlink:href="#DejaVuSans-20" x="946.818359"/>
     <use xlink:href="#DejaVuSans-63" x="978.605469"/>
     <use xlink:href="#DejaVuSans-68" x="1033.585938"/>
     <use xlink:href="#DejaVuSans-61" x="1096.964844"/>
     <use xlink:href="#DejaVuSans-72" x="1158.244141"/>
     <use xlink:href="#DejaVuSans-61" x="1199.357422"/>
     <use xlink:href="#DejaVuSans-63" x="1260.636719"/>
     <use xlink:href="#DejaVuSans-74" x="1315.617188"/>
     <use xlink:href="#DejaVuSans-65" x="1354.826172"/>
     <use xlink:href="#DejaVuSans-72" x="1416.349609"/>
     <use xlink:href="#DejaVuSans-69" x="1457.462891"/>
     <use xlink:href="#DejaVuSans-73" x="1485.246094"/>
     <use xlink:href="#DejaVuSans-74" x="1537.345703"/>
     <use xlink:href="#DejaVuSans-69" x="1576.554688"/>
     <use xlink:href="#DejaVuSans-63" x="1604.337891"/>
    </g>
   </g>
   <g id="legend_1">
    <g id="patch_7">
     <path d="M 219.298125 302.584 
L 407.72 302.584 
Q 409.72 302.584 409.72 300.584 
L 409.72 211.8465 
Q 409.72 209.8465 407.72 209.8465 
L 219.298125 209.8465 
Q 217.298125 209.8465 217.298125 211.8465 
L 217.298125 300.584 
Q 217.298125 302.584 219.298125 302.584 
z
" style="fill: #ffffff; opacity: 0.8; stroke: #cccccc; stroke-linejoin: miter"/>
    </g>
    <g id="line2d_19">
     <path d="M 221.298125 217.944937 
L 231.298125 217.944937 
L 241.298125 217.944937 
" style="fill: none; stroke-dasharray: 7.4,3.2; stroke-dashoffset: 0; stroke: #ff0000; stroke-width: 2"/>
    </g>
    <g id="text_16">
     <!-- gbdt_ROC curve(area=0.8754) -->
     <g transform="translate(249.298125 221.444937)scale(0.1 -0.1)">
      <defs>
       <path id="DejaVuSans-62" d="M 3116 1747 
Q 3116 2381 2855 2742 
Q 2594 3103 2138 3103 
Q 1681 3103 1420 2742 
Q 1159 2381 1159 1747 
Q 1159 1113 1420 752 
Q 1681 391 2138 391 
Q 2594 391 2855 752 
Q 3116 1113 3116 1747 
z
M 1159 2969 
Q 1341 3281 1617 3432 
Q 1894 3584 2278 3584 
Q 2916 3584 3314 3078 
Q 3713 2572 3713 1747 
Q 3713 922 3314 415 
Q 2916 -91 2278 -91 
Q 1894 -91 1617 61 
Q 1341 213 1159 525 
L 1159 0 
L 581 0 
L 581 4863 
L 1159 4863 
L 1159 2969 
z
" transform="scale(0.015625)"/>
       <path id="DejaVuSans-64" d="M 2906 2969 
L 2906 4863 
L 3481 4863 
L 3481 0 
L 2906 0 
L 2906 525 
Q 2725 213 2448 61 
Q 2172 -91 1784 -91 
Q 1150 -91 751 415 
Q 353 922 353 1747 
Q 353 2572 751 3078 
Q 1150 3584 1784 3584 
Q 2172 3584 2448 3432 
Q 2725 3281 2906 2969 
z
M 947 1747 
Q 947 1113 1208 752 
Q 1469 391 1925 391 
Q 2381 391 2643 752 
Q 2906 1113 2906 1747 
Q 2906 2381 2643 2742 
Q 2381 3103 1925 3103 
Q 1469 3103 1208 2742 
Q 947 2381 947 1747 
z
" transform="scale(0.015625)"/>
       <path id="DejaVuSans-5f" d="M 3263 -1063 
L 3263 -1509 
L -63 -1509 
L -63 -1063 
L 3263 -1063 
z
" transform="scale(0.015625)"/>
       <path id="DejaVuSans-4f" d="M 2522 4238 
Q 1834 4238 1429 3725 
Q 1025 3213 1025 2328 
Q 1025 1447 1429 934 
Q 1834 422 2522 422 
Q 3209 422 3611 934 
Q 4013 1447 4013 2328 
Q 4013 3213 3611 3725 
Q 3209 4238 2522 4238 
z
M 2522 4750 
Q 3503 4750 4090 4092 
Q 4678 3434 4678 2328 
Q 4678 1225 4090 567 
Q 3503 -91 2522 -91 
Q 1538 -91 948 565 
Q 359 1222 359 2328 
Q 359 3434 948 4092 
Q 1538 4750 2522 4750 
z
" transform="scale(0.015625)"/>
       <path id="DejaVuSans-43" d="M 4122 4306 
L 4122 3641 
Q 3803 3938 3442 4084 
Q 3081 4231 2675 4231 
Q 1875 4231 1450 3742 
Q 1025 3253 1025 2328 
Q 1025 1406 1450 917 
Q 1875 428 2675 428 
Q 3081 428 3442 575 
Q 3803 722 4122 1019 
L 4122 359 
Q 3791 134 3420 21 
Q 3050 -91 2638 -91 
Q 1578 -91 968 557 
Q 359 1206 359 2328 
Q 359 3453 968 4101 
Q 1578 4750 2638 4750 
Q 3056 4750 3426 4639 
Q 3797 4528 4122 4306 
z
" transform="scale(0.015625)"/>
       <path id="DejaVuSans-28" d="M 1984 4856 
Q 1566 4138 1362 3434 
Q 1159 2731 1159 2009 
Q 1159 1288 1364 580 
Q 1569 -128 1984 -844 
L 1484 -844 
Q 1016 -109 783 600 
Q 550 1309 550 2009 
Q 550 2706 781 3412 
Q 1013 4119 1484 4856 
L 1984 4856 
z
" transform="scale(0.015625)"/>
       <path id="DejaVuSans-3d" d="M 678 2906 
L 4684 2906 
L 4684 2381 
L 678 2381 
L 678 2906 
z
M 678 1631 
L 4684 1631 
L 4684 1100 
L 678 1100 
L 678 1631 
z
" transform="scale(0.015625)"/>
       <path id="DejaVuSans-37" d="M 525 4666 
L 3525 4666 
L 3525 4397 
L 1831 0 
L 1172 0 
L 2766 4134 
L 525 4134 
L 525 4666 
z
" transform="scale(0.015625)"/>
       <path id="DejaVuSans-35" d="M 691 4666 
L 3169 4666 
L 3169 4134 
L 1269 4134 
L 1269 2991 
Q 1406 3038 1543 3061 
Q 1681 3084 1819 3084 
Q 2600 3084 3056 2656 
Q 3513 2228 3513 1497 
Q 3513 744 3044 326 
Q 2575 -91 1722 -91 
Q 1428 -91 1123 -41 
Q 819 9 494 109 
L 494 744 
Q 775 591 1075 516 
Q 1375 441 1709 441 
Q 2250 441 2565 725 
Q 2881 1009 2881 1497 
Q 2881 1984 2565 2268 
Q 2250 2553 1709 2553 
Q 1456 2553 1204 2497 
Q 953 2441 691 2322 
L 691 4666 
z
" transform="scale(0.015625)"/>
       <path id="DejaVuSans-29" d="M 513 4856 
L 1013 4856 
Q 1481 4119 1714 3412 
Q 1947 2706 1947 2009 
Q 1947 1309 1714 600 
Q 1481 -109 1013 -844 
L 513 -844 
Q 928 -128 1133 580 
Q 1338 1288 1338 2009 
Q 1338 2731 1133 3434 
Q 928 4138 513 4856 
z
" transform="scale(0.015625)"/>
      </defs>
      <use xlink:href="#DejaVuSans-67"/>
      <use xlink:href="#DejaVuSans-62" x="63.476562"/>
      <use xlink:href="#DejaVuSans-64" x="126.953125"/>
      <use xlink:href="#DejaVuSans-74" x="190.429688"/>
      <use xlink:href="#DejaVuSans-5f" x="229.638672"/>
      <use xlink:href="#DejaVuSans-52" x="279.638672"/>
      <use xlink:href="#DejaVuSans-4f" x="349.121094"/>
      <use xlink:href="#DejaVuSans-43" x="427.832031"/>
      <use xlink:href="#DejaVuSans-20" x="497.65625"/>
      <use xlink:href="#DejaVuSans-63" x="529.443359"/>
      <use xlink:href="#DejaVuSans-75" x="584.423828"/>
      <use xlink:href="#DejaVuSans-72" x="647.802734"/>
      <use xlink:href="#DejaVuSans-76" x="688.916016"/>
      <use xlink:href="#DejaVuSans-65" x="748.095703"/>
      <use xlink:href="#DejaVuSans-28" x="809.619141"/>
      <use xlink:href="#DejaVuSans-61" x="848.632812"/>
      <use xlink:href="#DejaVuSans-72" x="909.912109"/>
      <use xlink:href="#DejaVuSans-65" x="948.775391"/>
      <use xlink:href="#DejaVuSans-61" x="1010.298828"/>
      <use xlink:href="#DejaVuSans-3d" x="1071.578125"/>
      <use xlink:href="#DejaVuSans-30" x="1155.367188"/>
      <use xlink:href="#DejaVuSans-2e" x="1218.990234"/>
      <use xlink:href="#DejaVuSans-38" x="1250.777344"/>
      <use xlink:href="#DejaVuSans-37" x="1314.400391"/>
      <use xlink:href="#DejaVuSans-35" x="1378.023438"/>
      <use xlink:href="#DejaVuSans-34" x="1441.646484"/>
      <use xlink:href="#DejaVuSans-29" x="1505.269531"/>
     </g>
    </g>
    <g id="line2d_20">
     <path d="M 221.298125 232.901187 
L 231.298125 232.901187 
L 241.298125 232.901187 
" style="fill: none; stroke-dasharray: 7.4,3.2; stroke-dashoffset: 0; stroke: #008000; stroke-width: 2"/>
    </g>
    <g id="text_17">
     <!-- lr_ROC curve(area=0.8072) -->
     <g transform="translate(249.298125 236.401187)scale(0.1 -0.1)">
      <use xlink:href="#DejaVuSans-6c"/>
      <use xlink:href="#DejaVuSans-72" x="27.783203"/>
      <use xlink:href="#DejaVuSans-5f" x="68.896484"/>
      <use xlink:href="#DejaVuSans-52" x="118.896484"/>
      <use xlink:href="#DejaVuSans-4f" x="188.378906"/>
      <use xlink:href="#DejaVuSans-43" x="267.089844"/>
      <use xlink:href="#DejaVuSans-20" x="336.914062"/>
      <use xlink:href="#DejaVuSans-63" x="368.701172"/>
      <use xlink:href="#DejaVuSans-75" x="423.681641"/>
      <use xlink:href="#DejaVuSans-72" x="487.060547"/>
      <use xlink:href="#DejaVuSans-76" x="528.173828"/>
      <use xlink:href="#DejaVuSans-65" x="587.353516"/>
      <use xlink:href="#DejaVuSans-28" x="648.876953"/>
      <use xlink:href="#DejaVuSans-61" x="687.890625"/>
      <use xlink:href="#DejaVuSans-72" x="749.169922"/>
      <use xlink:href="#DejaVuSans-65" x="788.033203"/>
      <use xlink:href="#DejaVuSans-61" x="849.556641"/>
      <use xlink:href="#DejaVuSans-3d" x="910.835938"/>
      <use xlink:href="#DejaVuSans-30" x="994.625"/>
      <use xlink:href="#DejaVuSans-2e" x="1058.248047"/>
      <use xlink:href="#DejaVuSans-38" x="1090.035156"/>
      <use xlink:href="#DejaVuSans-30" x="1153.658203"/>
      <use xlink:href="#DejaVuSans-37" x="1217.28125"/>
      <use xlink:href="#DejaVuSans-32" x="1280.904297"/>
      <use xlink:href="#DejaVuSans-29" x="1344.527344"/>
     </g>
    </g>
    <g id="line2d_21">
     <path d="M 221.298125 247.857437 
L 231.298125 247.857437 
L 241.298125 247.857437 
" style="fill: none; stroke-dasharray: 7.4,3.2; stroke-dashoffset: 0; stroke: #0000ff; stroke-width: 2"/>
    </g>
    <g id="text_18">
     <!-- rf_ROC curve(area=0.9013) -->
     <g transform="translate(249.298125 251.357437)scale(0.1 -0.1)">
      <defs>
       <path id="DejaVuSans-66" d="M 2375 4863 
L 2375 4384 
L 1825 4384 
Q 1516 4384 1395 4259 
Q 1275 4134 1275 3809 
L 1275 3500 
L 2222 3500 
L 2222 3053 
L 1275 3053 
L 1275 0 
L 697 0 
L 697 3053 
L 147 3053 
L 147 3500 
L 697 3500 
L 697 3744 
Q 697 4328 969 4595 
Q 1241 4863 1831 4863 
L 2375 4863 
z
" transform="scale(0.015625)"/>
       <path id="DejaVuSans-39" d="M 703 97 
L 703 672 
Q 941 559 1184 500 
Q 1428 441 1663 441 
Q 2288 441 2617 861 
Q 2947 1281 2994 2138 
Q 2813 1869 2534 1725 
Q 2256 1581 1919 1581 
Q 1219 1581 811 2004 
Q 403 2428 403 3163 
Q 403 3881 828 4315 
Q 1253 4750 1959 4750 
Q 2769 4750 3195 4129 
Q 3622 3509 3622 2328 
Q 3622 1225 3098 567 
Q 2575 -91 1691 -91 
Q 1453 -91 1209 -44 
Q 966 3 703 97 
z
M 1959 2075 
Q 2384 2075 2632 2365 
Q 2881 2656 2881 3163 
Q 2881 3666 2632 3958 
Q 2384 4250 1959 4250 
Q 1534 4250 1286 3958 
Q 1038 3666 1038 3163 
Q 1038 2656 1286 2365 
Q 1534 2075 1959 2075 
z
" transform="scale(0.015625)"/>
       <path id="DejaVuSans-33" d="M 2597 2516 
Q 3050 2419 3304 2112 
Q 3559 1806 3559 1356 
Q 3559 666 3084 287 
Q 2609 -91 1734 -91 
Q 1441 -91 1130 -33 
Q 819 25 488 141 
L 488 750 
Q 750 597 1062 519 
Q 1375 441 1716 441 
Q 2309 441 2620 675 
Q 2931 909 2931 1356 
Q 2931 1769 2642 2001 
Q 2353 2234 1838 2234 
L 1294 2234 
L 1294 2753 
L 1863 2753 
Q 2328 2753 2575 2939 
Q 2822 3125 2822 3475 
Q 2822 3834 2567 4026 
Q 2313 4219 1838 4219 
Q 1578 4219 1281 4162 
Q 984 4106 628 3988 
L 628 4550 
Q 988 4650 1302 4700 
Q 1616 4750 1894 4750 
Q 2613 4750 3031 4423 
Q 3450 4097 3450 3541 
Q 3450 3153 3228 2886 
Q 3006 2619 2597 2516 
z
" transform="scale(0.015625)"/>
      </defs>
      <use xlink:href="#DejaVuSans-72"/>
      <use xlink:href="#DejaVuSans-66" x="41.113281"/>
      <use xlink:href="#DejaVuSans-5f" x="76.318359"/>
      <use xlink:href="#DejaVuSans-52" x="126.318359"/>
      <use xlink:href="#DejaVuSans-4f" x="195.800781"/>
      <use xlink:href="#DejaVuSans-43" x="274.511719"/>
      <use xlink:href="#DejaVuSans-20" x="344.335938"/>
      <use xlink:href="#DejaVuSans-63" x="376.123047"/>
      <use xlink:href="#DejaVuSans-75" x="431.103516"/>
      <use xlink:href="#DejaVuSans-72" x="494.482422"/>
      <use xlink:href="#DejaVuSans-76" x="535.595703"/>
      <use xlink:href="#DejaVuSans-65" x="594.775391"/>
      <use xlink:href="#DejaVuSans-28" x="656.298828"/>
      <use xlink:href="#DejaVuSans-61" x="695.3125"/>
      <use xlink:href="#DejaVuSans-72" x="756.591797"/>
      <use xlink:href="#DejaVuSans-65" x="795.455078"/>
      <use xlink:href="#DejaVuSans-61" x="856.978516"/>
      <use xlink:href="#DejaVuSans-3d" x="918.257812"/>
      <use xlink:href="#DejaVuSans-30" x="1002.046875"/>
      <use xlink:href="#DejaVuSans-2e" x="1065.669922"/>
      <use xlink:href="#DejaVuSans-39" x="1097.457031"/>
      <use xlink:href="#DejaVuSans-30" x="1161.080078"/>
      <use xlink:href="#DejaVuSans-31" x="1224.703125"/>
      <use xlink:href="#DejaVuSans-33" x="1288.326172"/>
      <use xlink:href="#DejaVuSans-29" x="1351.949219"/>
     </g>
    </g>
    <g id="line2d_22">
     <path d="M 221.298125 262.813688 
L 231.298125 262.813688 
L 241.298125 262.813688 
" style="fill: none; stroke-dasharray: 7.4,3.2; stroke-dashoffset: 0; stroke: #00bfbf; stroke-width: 2"/>
    </g>
    <g id="text_19">
     <!-- xgb_ROC curve(area=0.9075) -->
     <g transform="translate(249.298125 266.313688)scale(0.1 -0.1)">
      <defs>
       <path id="DejaVuSans-78" d="M 3513 3500 
L 2247 1797 
L 3578 0 
L 2900 0 
L 1881 1375 
L 863 0 
L 184 0 
L 1544 1831 
L 300 3500 
L 978 3500 
L 1906 2253 
L 2834 3500 
L 3513 3500 
z
" transform="scale(0.015625)"/>
      </defs>
      <use xlink:href="#DejaVuSans-78"/>
      <use xlink:href="#DejaVuSans-67" x="59.179688"/>
      <use xlink:href="#DejaVuSans-62" x="122.65625"/>
      <use xlink:href="#DejaVuSans-5f" x="186.132812"/>
      <use xlink:href="#DejaVuSans-52" x="236.132812"/>
      <use xlink:href="#DejaVuSans-4f" x="305.615234"/>
      <use xlink:href="#DejaVuSans-43" x="384.326172"/>
      <use xlink:href="#DejaVuSans-20" x="454.150391"/>
      <use xlink:href="#DejaVuSans-63" x="485.9375"/>
      <use xlink:href="#DejaVuSans-75" x="540.917969"/>
      <use xlink:href="#DejaVuSans-72" x="604.296875"/>
      <use xlink:href="#DejaVuSans-76" x="645.410156"/>
      <use xlink:href="#DejaVuSans-65" x="704.589844"/>
      <use xlink:href="#DejaVuSans-28" x="766.113281"/>
      <use xlink:href="#DejaVuSans-61" x="805.126953"/>
      <use xlink:href="#DejaVuSans-72" x="866.40625"/>
      <use xlink:href="#DejaVuSans-65" x="905.269531"/>
      <use xlink:href="#DejaVuSans-61" x="966.792969"/>
      <use xlink:href="#DejaVuSans-3d" x="1028.072266"/>
      <use xlink:href="#DejaVuSans-30" x="1111.861328"/>
      <use xlink:href="#DejaVuSans-2e" x="1175.484375"/>
      <use xlink:href="#DejaVuSans-39" x="1207.271484"/>
      <use xlink:href="#DejaVuSans-30" x="1270.894531"/>
      <use xlink:href="#DejaVuSans-37" x="1334.517578"/>
      <use xlink:href="#DejaVuSans-35" x="1398.140625"/>
      <use xlink:href="#DejaVuSans-29" x="1461.763672"/>
     </g>
    </g>
    <g id="line2d_23">
     <path d="M 221.298125 277.769937 
L 231.298125 277.769937 
L 241.298125 277.769937 
" style="fill: none; stroke-dasharray: 7.4,3.2; stroke-dashoffset: 0; stroke: #bf00bf; stroke-width: 2"/>
    </g>
    <g id="text_20">
     <!-- svm_ROC curve(area=0.8809) -->
     <g transform="translate(249.298125 281.269937)scale(0.1 -0.1)">
      <defs>
       <path id="DejaVuSans-6d" d="M 3328 2828 
Q 3544 3216 3844 3400 
Q 4144 3584 4550 3584 
Q 5097 3584 5394 3201 
Q 5691 2819 5691 2113 
L 5691 0 
L 5113 0 
L 5113 2094 
Q 5113 2597 4934 2840 
Q 4756 3084 4391 3084 
Q 3944 3084 3684 2787 
Q 3425 2491 3425 1978 
L 3425 0 
L 2847 0 
L 2847 2094 
Q 2847 2600 2669 2842 
Q 2491 3084 2119 3084 
Q 1678 3084 1418 2786 
Q 1159 2488 1159 1978 
L 1159 0 
L 581 0 
L 581 3500 
L 1159 3500 
L 1159 2956 
Q 1356 3278 1631 3431 
Q 1906 3584 2284 3584 
Q 2666 3584 2933 3390 
Q 3200 3197 3328 2828 
z
" transform="scale(0.015625)"/>
      </defs>
      <use xlink:href="#DejaVuSans-73"/>
      <use xlink:href="#DejaVuSans-76" x="52.099609"/>
      <use xlink:href="#DejaVuSans-6d" x="111.279297"/>
      <use xlink:href="#DejaVuSans-5f" x="208.691406"/>
      <use xlink:href="#DejaVuSans-52" x="258.691406"/>
      <use xlink:href="#DejaVuSans-4f" x="328.173828"/>
      <use xlink:href="#DejaVuSans-43" x="406.884766"/>
      <use xlink:href="#DejaVuSans-20" x="476.708984"/>
      <use xlink:href="#DejaVuSans-63" x="508.496094"/>
      <use xlink:href="#DejaVuSans-75" x="563.476562"/>
      <use xlink:href="#DejaVuSans-72" x="626.855469"/>
      <use xlink:href="#DejaVuSans-76" x="667.96875"/>
      <use xlink:href="#DejaVuSans-65" x="727.148438"/>
      <use xlink:href="#DejaVuSans-28" x="788.671875"/>
      <use xlink:href="#DejaVuSans-61" x="827.685547"/>
      <use xlink:href="#DejaVuSans-72" x="888.964844"/>
      <use xlink:href="#DejaVuSans-65" x="927.828125"/>
      <use xlink:href="#DejaVuSans-61" x="989.351562"/>
      <use xlink:href="#DejaVuSans-3d" x="1050.630859"/>
      <use xlink:href="#DejaVuSans-30" x="1134.419922"/>
      <use xlink:href="#DejaVuSans-2e" x="1198.042969"/>
      <use xlink:href="#DejaVuSans-38" x="1229.830078"/>
      <use xlink:href="#DejaVuSans-38" x="1293.453125"/>
      <use xlink:href="#DejaVuSans-30" x="1357.076172"/>
      <use xlink:href="#DejaVuSans-39" x="1420.699219"/>
      <use xlink:href="#DejaVuSans-29" x="1484.322266"/>
     </g>
    </g>
    <g id="line2d_24">
     <path d="M 221.298125 292.726187 
L 231.298125 292.726187 
L 241.298125 292.726187 
" style="fill: none; stroke-dasharray: 7.4,3.2; stroke-dashoffset: 0; stroke: #bfbf00; stroke-width: 2"/>
    </g>
    <g id="text_21">
     <!-- adab_ROC curve(area=0.8224) -->
     <g transform="translate(249.298125 296.226187)scale(0.1 -0.1)">
      <use xlink:href="#DejaVuSans-61"/>
      <use xlink:href="#DejaVuSans-64" x="61.279297"/>
      <use xlink:href="#DejaVuSans-61" x="124.755859"/>
      <use xlink:href="#DejaVuSans-62" x="186.035156"/>
      <use xlink:href="#DejaVuSans-5f" x="249.511719"/>
      <use xlink:href="#DejaVuSans-52" x="299.511719"/>
      <use xlink:href="#DejaVuSans-4f" x="368.994141"/>
      <use xlink:href="#DejaVuSans-43" x="447.705078"/>
      <use xlink:href="#DejaVuSans-20" x="517.529297"/>
      <use xlink:href="#DejaVuSans-63" x="549.316406"/>
      <use xlink:href="#DejaVuSans-75" x="604.296875"/>
      <use xlink:href="#DejaVuSans-72" x="667.675781"/>
      <use xlink:href="#DejaVuSans-76" x="708.789062"/>
      <use xlink:href="#DejaVuSans-65" x="767.96875"/>
      <use xlink:href="#DejaVuSans-28" x="829.492188"/>
      <use xlink:href="#DejaVuSans-61" x="868.505859"/>
      <use xlink:href="#DejaVuSans-72" x="929.785156"/>
      <use xlink:href="#DejaVuSans-65" x="968.648438"/>
      <use xlink:href="#DejaVuSans-61" x="1030.171875"/>
      <use xlink:href="#DejaVuSans-3d" x="1091.451172"/>
      <use xlink:href="#DejaVuSans-30" x="1175.240234"/>
      <use xlink:href="#DejaVuSans-2e" x="1238.863281"/>
      <use xlink:href="#DejaVuSans-38" x="1270.650391"/>
      <use xlink:href="#DejaVuSans-32" x="1334.273438"/>
      <use xlink:href="#DejaVuSans-32" x="1397.896484"/>
      <use xlink:href="#DejaVuSans-34" x="1461.519531"/>
      <use xlink:href="#DejaVuSans-29" x="1525.142578"/>
     </g>
    </g>
   </g>
  </g>
 </g>
 <defs>
  <clipPath id="pd00cd5913c">
   <rect x="57.6" y="41.472" width="357.12" height="266.112"/>
  </clipPath>
 </defs>
</svg>
