<?xml version="1.0" encoding="utf-8" standalone="no"?>
<!DOCTYPE svg PUBLIC "-//W3C//DTD SVG 1.1//EN"
  "http://www.w3.org/Graphics/SVG/1.1/DTD/svg11.dtd">
<svg xmlns:xlink="http://www.w3.org/1999/xlink" width="460.8pt" height="345.6pt" viewBox="0 0 460.8 345.6" xmlns="http://www.w3.org/2000/svg" version="1.1">
 <metadata>
  <rdf:RDF xmlns:dc="http://purl.org/dc/elements/1.1/" xmlns:cc="http://creativecommons.org/ns#" xmlns:rdf="http://www.w3.org/1999/02/22-rdf-syntax-ns#">
   <cc:Work>
    <dc:type rdf:resource="http://purl.org/dc/dcmitype/StillImage"/>
    <dc:date>2022-09-20T08:06:50.658164</dc:date>
    <dc:format>image/svg+xml</dc:format>
    <dc:creator>
     <cc:Agent>
      <dc:title>Matplotlib v3.5.2, https://matplotlib.org/</dc:title>
     </cc:Agent>
    </dc:creator>
   </cc:Work>
  </rdf:RDF>
 </metadata>
 <defs>
  <style type="text/css">*{stroke-linejoin: round; stroke-linecap: butt}</style>
 </defs>
 <g id="figure_1">
  <g id="patch_1">
   <path d="M 0 345.6 
L 460.8 345.6 
L 460.8 0 
L 0 0 
z
" style="fill: #ffffff"/>
  </g>
  <g id="axes_1">
   <g id="patch_2">
    <path d="M 57.6 307.584 
L 414.72 307.584 
L 414.72 41.472 
L 57.6 41.472 
z
" style="fill: #ffffff"/>
   </g>
   <g id="matplotlib.axis_1">
    <g id="xtick_1">
     <g id="line2d_1">
      <defs>
       <path id="m8997fb6b53" d="M 0 0 
L 0 3.5 
" style="stroke: #000000; stroke-width: 0.8"/>
      </defs>
      <g>
       <use xlink:href="#m8997fb6b53" x="73.832727" y="307.584" style="stroke: #000000; stroke-width: 0.8"/>
      </g>
     </g>
     <g id="text_1">
      <!-- 0.0 -->
      <g transform="translate(65.881165 322.182437)scale(0.1 -0.1)">
       <defs>
        <path id="DejaVuSans-30" d="M 2034 4250 
Q 1547 4250 1301 3770 
Q 1056 3291 1056 2328 
Q 1056 1369 1301 889 
Q 1547 409 2034 409 
Q 2525 409 2770 889 
Q 3016 1369 3016 2328 
Q 3016 3291 2770 3770 
Q 2525 4250 2034 4250 
z
M 2034 4750 
Q 2819 4750 3233 4129 
Q 3647 3509 3647 2328 
Q 3647 1150 3233 529 
Q 2819 -91 2034 -91 
Q 1250 -91 836 529 
Q 422 1150 422 2328 
Q 422 3509 836 4129 
Q 1250 4750 2034 4750 
z
" transform="scale(0.015625)"/>
        <path id="DejaVuSans-2e" d="M 684 794 
L 1344 794 
L 1344 0 
L 684 0 
L 684 794 
z
" transform="scale(0.015625)"/>
       </defs>
       <use xlink:href="#DejaVuSans-30"/>
       <use xlink:href="#DejaVuSans-2e" x="63.623047"/>
       <use xlink:href="#DejaVuSans-30" x="95.410156"/>
      </g>
     </g>
    </g>
    <g id="xtick_2">
     <g id="line2d_2">
      <g>
       <use xlink:href="#m8997fb6b53" x="138.763636" y="307.584" style="stroke: #000000; stroke-width: 0.8"/>
      </g>
     </g>
     <g id="text_2">
      <!-- 0.2 -->
      <g transform="translate(130.812074 322.182437)scale(0.1 -0.1)">
       <defs>
        <path id="DejaVuSans-32" d="M 1228 531 
L 3431 531 
L 3431 0 
L 469 0 
L 469 531 
Q 828 903 1448 1529 
Q 2069 2156 2228 2338 
Q 2531 2678 2651 2914 
Q 2772 3150 2772 3378 
Q 2772 3750 2511 3984 
Q 2250 4219 1831 4219 
Q 1534 4219 1204 4116 
Q 875 4013 500 3803 
L 500 4441 
Q 881 4594 1212 4672 
Q 1544 4750 1819 4750 
Q 2544 4750 2975 4387 
Q 3406 4025 3406 3419 
Q 3406 3131 3298 2873 
Q 3191 2616 2906 2266 
Q 2828 2175 2409 1742 
Q 1991 1309 1228 531 
z
" transform="scale(0.015625)"/>
       </defs>
       <use xlink:href="#DejaVuSans-30"/>
       <use xlink:href="#DejaVuSans-2e" x="63.623047"/>
       <use xlink:href="#DejaVuSans-32" x="95.410156"/>
      </g>
     </g>
    </g>
    <g id="xtick_3">
     <g id="line2d_3">
      <g>
       <use xlink:href="#m8997fb6b53" x="203.694545" y="307.584" style="stroke: #000000; stroke-width: 0.8"/>
      </g>
     </g>
     <g id="text_3">
      <!-- 0.4 -->
      <g transform="translate(195.742983 322.182437)scale(0.1 -0.1)">
       <defs>
        <path id="DejaVuSans-34" d="M 2419 4116 
L 825 1625 
L 2419 1625 
L 2419 4116 
z
M 2253 4666 
L 3047 4666 
L 3047 1625 
L 3713 1625 
L 3713 1100 
L 3047 1100 
L 3047 0 
L 2419 0 
L 2419 1100 
L 313 1100 
L 313 1709 
L 2253 4666 
z
" transform="scale(0.015625)"/>
       </defs>
       <use xlink:href="#DejaVuSans-30"/>
       <use xlink:href="#DejaVuSans-2e" x="63.623047"/>
       <use xlink:href="#DejaVuSans-34" x="95.410156"/>
      </g>
     </g>
    </g>
    <g id="xtick_4">
     <g id="line2d_4">
      <g>
       <use xlink:href="#m8997fb6b53" x="268.625455" y="307.584" style="stroke: #000000; stroke-width: 0.8"/>
      </g>
     </g>
     <g id="text_4">
      <!-- 0.6 -->
      <g transform="translate(260.673892 322.182437)scale(0.1 -0.1)">
       <defs>
        <path id="DejaVuSans-36" d="M 2113 2584 
Q 1688 2584 1439 2293 
Q 1191 2003 1191 1497 
Q 1191 994 1439 701 
Q 1688 409 2113 409 
Q 2538 409 2786 701 
Q 3034 994 3034 1497 
Q 3034 2003 2786 2293 
Q 2538 2584 2113 2584 
z
M 3366 4563 
L 3366 3988 
Q 3128 4100 2886 4159 
Q 2644 4219 2406 4219 
Q 1781 4219 1451 3797 
Q 1122 3375 1075 2522 
Q 1259 2794 1537 2939 
Q 1816 3084 2150 3084 
Q 2853 3084 3261 2657 
Q 3669 2231 3669 1497 
Q 3669 778 3244 343 
Q 2819 -91 2113 -91 
Q 1303 -91 875 529 
Q 447 1150 447 2328 
Q 447 3434 972 4092 
Q 1497 4750 2381 4750 
Q 2619 4750 2861 4703 
Q 3103 4656 3366 4563 
z
" transform="scale(0.015625)"/>
       </defs>
       <use xlink:href="#DejaVuSans-30"/>
       <use xlink:href="#DejaVuSans-2e" x="63.623047"/>
       <use xlink:href="#DejaVuSans-36" x="95.410156"/>
      </g>
     </g>
    </g>
    <g id="xtick_5">
     <g id="line2d_5">
      <g>
       <use xlink:href="#m8997fb6b53" x="333.556364" y="307.584" style="stroke: #000000; stroke-width: 0.8"/>
      </g>
     </g>
     <g id="text_5">
      <!-- 0.8 -->
      <g transform="translate(325.604801 322.182437)scale(0.1 -0.1)">
       <defs>
        <path id="DejaVuSans-38" d="M 2034 2216 
Q 1584 2216 1326 1975 
Q 1069 1734 1069 1313 
Q 1069 891 1326 650 
Q 1584 409 2034 409 
Q 2484 409 2743 651 
Q 3003 894 3003 1313 
Q 3003 1734 2745 1975 
Q 2488 2216 2034 2216 
z
M 1403 2484 
Q 997 2584 770 2862 
Q 544 3141 544 3541 
Q 544 4100 942 4425 
Q 1341 4750 2034 4750 
Q 2731 4750 3128 4425 
Q 3525 4100 3525 3541 
Q 3525 3141 3298 2862 
Q 3072 2584 2669 2484 
Q 3125 2378 3379 2068 
Q 3634 1759 3634 1313 
Q 3634 634 3220 271 
Q 2806 -91 2034 -91 
Q 1263 -91 848 271 
Q 434 634 434 1313 
Q 434 1759 690 2068 
Q 947 2378 1403 2484 
z
M 1172 3481 
Q 1172 3119 1398 2916 
Q 1625 2713 2034 2713 
Q 2441 2713 2670 2916 
Q 2900 3119 2900 3481 
Q 2900 3844 2670 4047 
Q 2441 4250 2034 4250 
Q 1625 4250 1398 4047 
Q 1172 3844 1172 3481 
z
" transform="scale(0.015625)"/>
       </defs>
       <use xlink:href="#DejaVuSans-30"/>
       <use xlink:href="#DejaVuSans-2e" x="63.623047"/>
       <use xlink:href="#DejaVuSans-38" x="95.410156"/>
      </g>
     </g>
    </g>
    <g id="xtick_6">
     <g id="line2d_6">
      <g>
       <use xlink:href="#m8997fb6b53" x="398.487273" y="307.584" style="stroke: #000000; stroke-width: 0.8"/>
      </g>
     </g>
     <g id="text_6">
      <!-- 1.0 -->
      <g transform="translate(390.53571 322.182437)scale(0.1 -0.1)">
       <defs>
        <path id="DejaVuSans-31" d="M 794 531 
L 1825 531 
L 1825 4091 
L 703 3866 
L 703 4441 
L 1819 4666 
L 2450 4666 
L 2450 531 
L 3481 531 
L 3481 0 
L 794 0 
L 794 531 
z
" transform="scale(0.015625)"/>
       </defs>
       <use xlink:href="#DejaVuSans-31"/>
       <use xlink:href="#DejaVuSans-2e" x="63.623047"/>
       <use xlink:href="#DejaVuSans-30" x="95.410156"/>
      </g>
     </g>
    </g>
    <g id="text_7">
     <!-- Recall -->
     <g transform="translate(221.242812 335.860562)scale(0.1 -0.1)">
      <defs>
       <path id="DejaVuSans-52" d="M 2841 2188 
Q 3044 2119 3236 1894 
Q 3428 1669 3622 1275 
L 4263 0 
L 3584 0 
L 2988 1197 
Q 2756 1666 2539 1819 
Q 2322 1972 1947 1972 
L 1259 1972 
L 1259 0 
L 628 0 
L 628 4666 
L 2053 4666 
Q 2853 4666 3247 4331 
Q 3641 3997 3641 3322 
Q 3641 2881 3436 2590 
Q 3231 2300 2841 2188 
z
M 1259 4147 
L 1259 2491 
L 2053 2491 
Q 2509 2491 2742 2702 
Q 2975 2913 2975 3322 
Q 2975 3731 2742 3939 
Q 2509 4147 2053 4147 
L 1259 4147 
z
" transform="scale(0.015625)"/>
       <path id="DejaVuSans-65" d="M 3597 1894 
L 3597 1613 
L 953 1613 
Q 991 1019 1311 708 
Q 1631 397 2203 397 
Q 2534 397 2845 478 
Q 3156 559 3463 722 
L 3463 178 
Q 3153 47 2828 -22 
Q 2503 -91 2169 -91 
Q 1331 -91 842 396 
Q 353 884 353 1716 
Q 353 2575 817 3079 
Q 1281 3584 2069 3584 
Q 2775 3584 3186 3129 
Q 3597 2675 3597 1894 
z
M 3022 2063 
Q 3016 2534 2758 2815 
Q 2500 3097 2075 3097 
Q 1594 3097 1305 2825 
Q 1016 2553 972 2059 
L 3022 2063 
z
" transform="scale(0.015625)"/>
       <path id="DejaVuSans-63" d="M 3122 3366 
L 3122 2828 
Q 2878 2963 2633 3030 
Q 2388 3097 2138 3097 
Q 1578 3097 1268 2742 
Q 959 2388 959 1747 
Q 959 1106 1268 751 
Q 1578 397 2138 397 
Q 2388 397 2633 464 
Q 2878 531 3122 666 
L 3122 134 
Q 2881 22 2623 -34 
Q 2366 -91 2075 -91 
Q 1284 -91 818 406 
Q 353 903 353 1747 
Q 353 2603 823 3093 
Q 1294 3584 2113 3584 
Q 2378 3584 2631 3529 
Q 2884 3475 3122 3366 
z
" transform="scale(0.015625)"/>
       <path id="DejaVuSans-61" d="M 2194 1759 
Q 1497 1759 1228 1600 
Q 959 1441 959 1056 
Q 959 750 1161 570 
Q 1363 391 1709 391 
Q 2188 391 2477 730 
Q 2766 1069 2766 1631 
L 2766 1759 
L 2194 1759 
z
M 3341 1997 
L 3341 0 
L 2766 0 
L 2766 531 
Q 2569 213 2275 61 
Q 1981 -91 1556 -91 
Q 1019 -91 701 211 
Q 384 513 384 1019 
Q 384 1609 779 1909 
Q 1175 2209 1959 2209 
L 2766 2209 
L 2766 2266 
Q 2766 2663 2505 2880 
Q 2244 3097 1772 3097 
Q 1472 3097 1187 3025 
Q 903 2953 641 2809 
L 641 3341 
Q 956 3463 1253 3523 
Q 1550 3584 1831 3584 
Q 2591 3584 2966 3190 
Q 3341 2797 3341 1997 
z
" transform="scale(0.015625)"/>
       <path id="DejaVuSans-6c" d="M 603 4863 
L 1178 4863 
L 1178 0 
L 603 0 
L 603 4863 
z
" transform="scale(0.015625)"/>
      </defs>
      <use xlink:href="#DejaVuSans-52"/>
      <use xlink:href="#DejaVuSans-65" x="64.982422"/>
      <use xlink:href="#DejaVuSans-63" x="126.505859"/>
      <use xlink:href="#DejaVuSans-61" x="181.486328"/>
      <use xlink:href="#DejaVuSans-6c" x="242.765625"/>
      <use xlink:href="#DejaVuSans-6c" x="270.548828"/>
     </g>
    </g>
   </g>
   <g id="matplotlib.axis_2">
    <g id="ytick_1">
     <g id="line2d_7">
      <defs>
       <path id="ma47029b4cb" d="M 0 0 
L -3.5 0 
" style="stroke: #000000; stroke-width: 0.8"/>
      </defs>
      <g>
       <use xlink:href="#ma47029b4cb" x="57.6" y="295.488" style="stroke: #000000; stroke-width: 0.8"/>
      </g>
     </g>
     <g id="text_8">
      <!-- 0.0 -->
      <g transform="translate(34.696875 299.287219)scale(0.1 -0.1)">
       <use xlink:href="#DejaVuSans-30"/>
       <use xlink:href="#DejaVuSans-2e" x="63.623047"/>
       <use xlink:href="#DejaVuSans-30" x="95.410156"/>
      </g>
     </g>
    </g>
    <g id="ytick_2">
     <g id="line2d_8">
      <g>
       <use xlink:href="#ma47029b4cb" x="57.6" y="247.104" style="stroke: #000000; stroke-width: 0.8"/>
      </g>
     </g>
     <g id="text_9">
      <!-- 0.2 -->
      <g transform="translate(34.696875 250.903219)scale(0.1 -0.1)">
       <use xlink:href="#DejaVuSans-30"/>
       <use xlink:href="#DejaVuSans-2e" x="63.623047"/>
       <use xlink:href="#DejaVuSans-32" x="95.410156"/>
      </g>
     </g>
    </g>
    <g id="ytick_3">
     <g id="line2d_9">
      <g>
       <use xlink:href="#ma47029b4cb" x="57.6" y="198.72" style="stroke: #000000; stroke-width: 0.8"/>
      </g>
     </g>
     <g id="text_10">
      <!-- 0.4 -->
      <g transform="translate(34.696875 202.519219)scale(0.1 -0.1)">
       <use xlink:href="#DejaVuSans-30"/>
       <use xlink:href="#DejaVuSans-2e" x="63.623047"/>
       <use xlink:href="#DejaVuSans-34" x="95.410156"/>
      </g>
     </g>
    </g>
    <g id="ytick_4">
     <g id="line2d_10">
      <g>
       <use xlink:href="#ma47029b4cb" x="57.6" y="150.336" style="stroke: #000000; stroke-width: 0.8"/>
      </g>
     </g>
     <g id="text_11">
      <!-- 0.6 -->
      <g transform="translate(34.696875 154.135219)scale(0.1 -0.1)">
       <use xlink:href="#DejaVuSans-30"/>
       <use xlink:href="#DejaVuSans-2e" x="63.623047"/>
       <use xlink:href="#DejaVuSans-36" x="95.410156"/>
      </g>
     </g>
    </g>
    <g id="ytick_5">
     <g id="line2d_11">
      <g>
       <use xlink:href="#ma47029b4cb" x="57.6" y="101.952" style="stroke: #000000; stroke-width: 0.8"/>
      </g>
     </g>
     <g id="text_12">
      <!-- 0.8 -->
      <g transform="translate(34.696875 105.751219)scale(0.1 -0.1)">
       <use xlink:href="#DejaVuSans-30"/>
       <use xlink:href="#DejaVuSans-2e" x="63.623047"/>
       <use xlink:href="#DejaVuSans-38" x="95.410156"/>
      </g>
     </g>
    </g>
    <g id="ytick_6">
     <g id="line2d_12">
      <g>
       <use xlink:href="#ma47029b4cb" x="57.6" y="53.568" style="stroke: #000000; stroke-width: 0.8"/>
      </g>
     </g>
     <g id="text_13">
      <!-- 1.0 -->
      <g transform="translate(34.696875 57.367219)scale(0.1 -0.1)">
       <use xlink:href="#DejaVuSans-31"/>
       <use xlink:href="#DejaVuSans-2e" x="63.623047"/>
       <use xlink:href="#DejaVuSans-30" x="95.410156"/>
      </g>
     </g>
    </g>
    <g id="text_14">
     <!-- Precision -->
     <g transform="translate(28.617187 196.835031)rotate(-90)scale(0.1 -0.1)">
      <defs>
       <path id="DejaVuSans-50" d="M 1259 4147 
L 1259 2394 
L 2053 2394 
Q 2494 2394 2734 2622 
Q 2975 2850 2975 3272 
Q 2975 3691 2734 3919 
Q 2494 4147 2053 4147 
L 1259 4147 
z
M 628 4666 
L 2053 4666 
Q 2838 4666 3239 4311 
Q 3641 3956 3641 3272 
Q 3641 2581 3239 2228 
Q 2838 1875 2053 1875 
L 1259 1875 
L 1259 0 
L 628 0 
L 628 4666 
z
" transform="scale(0.015625)"/>
       <path id="DejaVuSans-72" d="M 2631 2963 
Q 2534 3019 2420 3045 
Q 2306 3072 2169 3072 
Q 1681 3072 1420 2755 
Q 1159 2438 1159 1844 
L 1159 0 
L 581 0 
L 581 3500 
L 1159 3500 
L 1159 2956 
Q 1341 3275 1631 3429 
Q 1922 3584 2338 3584 
Q 2397 3584 2469 3576 
Q 2541 3569 2628 3553 
L 2631 2963 
z
" transform="scale(0.015625)"/>
       <path id="DejaVuSans-69" d="M 603 3500 
L 1178 3500 
L 1178 0 
L 603 0 
L 603 3500 
z
M 603 4863 
L 1178 4863 
L 1178 4134 
L 603 4134 
L 603 4863 
z
" transform="scale(0.015625)"/>
       <path id="DejaVuSans-73" d="M 2834 3397 
L 2834 2853 
Q 2591 2978 2328 3040 
Q 2066 3103 1784 3103 
Q 1356 3103 1142 2972 
Q 928 2841 928 2578 
Q 928 2378 1081 2264 
Q 1234 2150 1697 2047 
L 1894 2003 
Q 2506 1872 2764 1633 
Q 3022 1394 3022 966 
Q 3022 478 2636 193 
Q 2250 -91 1575 -91 
Q 1294 -91 989 -36 
Q 684 19 347 128 
L 347 722 
Q 666 556 975 473 
Q 1284 391 1588 391 
Q 1994 391 2212 530 
Q 2431 669 2431 922 
Q 2431 1156 2273 1281 
Q 2116 1406 1581 1522 
L 1381 1569 
Q 847 1681 609 1914 
Q 372 2147 372 2553 
Q 372 3047 722 3315 
Q 1072 3584 1716 3584 
Q 2034 3584 2315 3537 
Q 2597 3491 2834 3397 
z
" transform="scale(0.015625)"/>
       <path id="DejaVuSans-6f" d="M 1959 3097 
Q 1497 3097 1228 2736 
Q 959 2375 959 1747 
Q 959 1119 1226 758 
Q 1494 397 1959 397 
Q 2419 397 2687 759 
Q 2956 1122 2956 1747 
Q 2956 2369 2687 2733 
Q 2419 3097 1959 3097 
z
M 1959 3584 
Q 2709 3584 3137 3096 
Q 3566 2609 3566 1747 
Q 3566 888 3137 398 
Q 2709 -91 1959 -91 
Q 1206 -91 779 398 
Q 353 888 353 1747 
Q 353 2609 779 3096 
Q 1206 3584 1959 3584 
z
" transform="scale(0.015625)"/>
       <path id="DejaVuSans-6e" d="M 3513 2113 
L 3513 0 
L 2938 0 
L 2938 2094 
Q 2938 2591 2744 2837 
Q 2550 3084 2163 3084 
Q 1697 3084 1428 2787 
Q 1159 2491 1159 1978 
L 1159 0 
L 581 0 
L 581 3500 
L 1159 3500 
L 1159 2956 
Q 1366 3272 1645 3428 
Q 1925 3584 2291 3584 
Q 2894 3584 3203 3211 
Q 3513 2838 3513 2113 
z
" transform="scale(0.015625)"/>
      </defs>
      <use xlink:href="#DejaVuSans-50"/>
      <use xlink:href="#DejaVuSans-72" x="58.552734"/>
      <use xlink:href="#DejaVuSans-65" x="97.416016"/>
      <use xlink:href="#DejaVuSans-63" x="158.939453"/>
      <use xlink:href="#DejaVuSans-69" x="213.919922"/>
      <use xlink:href="#DejaVuSans-73" x="241.703125"/>
      <use xlink:href="#DejaVuSans-69" x="293.802734"/>
      <use xlink:href="#DejaVuSans-6f" x="321.585938"/>
      <use xlink:href="#DejaVuSans-6e" x="382.767578"/>
     </g>
    </g>
   </g>
   <g id="line2d_13">
    <path d="M 398.487273 174.528 
L 398.487273 172.418233 
L 397.559688 172.591231 
L 397.559688 170.4064 
L 396.632104 170.579751 
L 396.632104 168.123159 
L 395.704519 168.296727 
L 395.704519 166.140943 
L 394.776935 166.314667 
L 394.776935 162.834561 
L 393.849351 163.008 
L 393.849351 159.77678 
L 392.921766 159.949759 
L 392.921766 157.705748 
L 391.994182 157.878448 
L 391.994182 156.495437 
L 390.139013 156.841412 
L 390.139013 154.229918 
L 389.211429 154.40258 
L 389.211429 151.437562 
L 388.283844 151.609263 
L 388.283844 150.848 
L 387.35626 151.019873 
L 387.35626 149.732278 
L 386.428675 149.904 
L 386.428675 148.061165 
L 385.501091 148.232348 
L 385.501091 144.96 
L 384.573506 145.129558 
L 384.573506 143.721708 
L 383.645922 143.890852 
L 383.645922 143.319864 
L 380.863169 143.829818 
L 380.863169 142.086621 
L 379.935584 142.256522 
L 379.935584 132.562286 
L 379.008 132.723828 
L 379.008 126.144 
L 378.080416 126.298746 
L 378.080416 123.735273 
L 377.152831 123.887479 
L 377.152831 121.241656 
L 375.297662 121.541097 
L 375.297662 119.595383 
L 374.370078 119.743426 
L 374.370078 116.941121 
L 373.442494 117.085808 
L 373.442494 115.855448 
L 372.514909 115.998968 
L 372.514909 114.329302 
L 370.65974 114.613234 
L 370.65974 114.189639 
L 369.732156 114.331944 
L 369.732156 113.477434 
L 368.804571 113.619064 
L 368.804571 112.755078 
L 366.021818 113.179866 
L 366.021818 111.861976 
L 363.239065 112.286447 
L 363.239065 111.840701 
L 361.383896 112.125653 
L 361.383896 111.676235 
L 360.456312 111.819007 
L 360.456312 111.366621 
L 359.528727 111.509333 
L 359.528727 111.053941 
L 357.673558 111.33994 
L 357.673558 110.4192 
L 356.745974 110.561684 
L 356.745974 109.630065 
L 352.108052 110.345143 
L 352.108052 109.395692 
L 351.180468 109.539208 
L 351.180468 108.578233 
L 349.325299 108.864 
L 349.325299 107.398366 
L 348.397714 107.539654 
L 348.397714 107.045053 
L 346.542545 107.328 
L 346.542545 106.327149 
L 345.614961 106.46784 
L 345.614961 105.454327 
L 342.832208 105.875027 
L 342.832208 103.802754 
L 339.12187 104.357834 
L 339.12187 101.136539 
L 337.266701 101.405288 
L 337.266701 99.746462 
L 333.556364 100.278778 
L 333.556364 99.14713 
L 331.701195 99.412898 
L 331.701195 98.839579 
L 330.77361 98.97234 
L 330.77361 96.63981 
L 327.990857 97.026683 
L 327.990857 94.621091 
L 324.280519 95.12481 
L 324.280519 93.888 
L 316.859844 94.908759 
L 316.859844 94.272 
L 313.149506 94.795524 
L 313.149506 94.148129 
L 303.873662 95.5008 
L 303.873662 94.831946 
L 302.018494 95.109818 
L 302.018494 94.432865 
L 300.163325 94.710857 
L 300.163325 94.025611 
L 298.308156 94.30367 
L 298.308156 93.609931 
L 296.452987 93.888 
L 296.452987 91.765895 
L 295.525403 91.900394 
L 295.525403 91.181004 
L 293.670234 91.448712 
L 293.670234 90.72 
L 292.742649 90.853161 
L 292.742649 89.375653 
L 289.959896 89.767708 
L 289.959896 89.014154 
L 288.104727 89.275749 
L 288.104727 88.512 
L 287.177143 88.641903 
L 287.177143 87.87009 
L 283.466805 88.389818 
L 283.466805 87.602373 
L 279.756468 88.128 
L 279.756468 87.324279 
L 270.480623 88.685419 
L 270.480623 87.848162 
L 266.770286 88.412444 
L 266.770286 87.55676 
L 265.842701 87.697793 
L 265.842701 85.958962 
L 263.059948 86.370712 
L 263.059948 85.480851 
L 259.34961 86.033455 
L 259.34961 85.122783 
L 251.928935 86.259892 
L 251.928935 83.393753 
L 242.653091 84.820823 
L 242.653091 82.785391 
L 239.870338 83.215059 
L 239.870338 82.169379 
L 238.942753 82.31097 
L 238.942753 81.250388 
L 237.087584 81.528603 
L 237.087584 80.448 
L 235.232416 80.722286 
L 235.232416 79.620923 
L 234.304831 79.755216 
L 234.304831 78.63743 
L 231.522078 79.033263 
L 231.522078 77.888 
L 226.884156 78.54887 
L 226.884156 77.36341 
L 225.028987 77.626343 
L 225.028987 76.416 
L 223.173818 76.672719 
L 223.173818 75.436475 
L 212.042805 77.026909 
L 207.404883 77.76 
L 207.404883 75.003949 
L 204.62213 75.418839 
L 204.62213 73.989818 
L 199.056623 74.81773 
L 199.056623 73.316571 
L 191.635948 74.45318 
L 191.635948 72.851478 
L 185.142857 73.881893 
L 185.142857 72.177231 
L 181.432519 72.768 
L 181.432519 70.98624 
L 179.577351 71.269463 
L 179.577351 69.431607 
L 174.011844 70.252138 
L 174.011844 68.293565 
L 164.736 69.696 
L 163.808416 69.851077 
L 163.808416 67.660427 
L 159.170494 68.379429 
L 159.170494 66.038103 
L 150.822234 67.313455 
L 148.967065 67.633116 
L 148.967065 64.952471 
L 144.329143 65.664 
L 144.329143 62.754835 
L 136.908468 63.789972 
L 130.415377 64.908 
L 130.415377 61.248 
L 123.922286 62.208 
L 118.356779 63.2448 
L 113.718857 64.32 
L 110.008519 65.368976 
L 106.298182 66.644757 
L 103.515429 67.798588 
L 100.732675 69.175742 
L 97.949922 70.848 
L 96.094753 72.177231 
L 94.239584 73.728 
L 92.384416 75.560727 
L 91.456831 76.608 
L 91.456831 65.664 
L 89.601662 67.008 
L 87.746494 68.688 
L 85.891325 70.848 
L 84.96374 72.177231 
L 84.036156 73.728 
L 84.036156 53.568 
L 73.832727 53.568 
L 73.832727 53.568 
" clip-path="url(#pac143b675c)" style="fill: none; stroke-dasharray: 7.4,3.2; stroke-dashoffset: 0; stroke: #ff0000; stroke-width: 2"/>
   </g>
   <g id="line2d_14">
    <path d="M 398.487273 174.528 
L 398.487273 166.217771 
L 397.559688 166.390018 
L 397.559688 164.588651 
L 395.704519 164.933972 
L 395.704519 164.730617 
L 394.776935 164.904037 
L 394.776935 161.775029 
L 393.849351 161.94816 
L 393.849351 155.450416 
L 392.921766 155.621647 
L 392.921766 155.386182 
L 391.994182 155.557882 
L 391.994182 154.607593 
L 391.066597 154.779429 
L 391.066597 152.345024 
L 390.139013 152.516215 
L 390.139013 152.268 
L 389.211429 152.439652 
L 389.211429 151.437562 
L 388.283844 151.609263 
L 388.283844 149.820362 
L 386.428675 150.163508 
L 386.428675 149.643564 
L 385.501091 149.815742 
L 385.501091 147.696873 
L 383.645922 148.040409 
L 383.645922 146.132584 
L 382.718338 146.304 
L 382.718338 145.749413 
L 381.790753 145.921073 
L 381.790753 143.659191 
L 380.863169 143.829818 
L 380.863169 143.542042 
L 379.935584 143.713095 
L 379.935584 143.424 
L 379.008 143.595481 
L 379.008 142.427077 
L 377.152831 142.770162 
L 377.152831 141.880544 
L 376.225247 142.052358 
L 376.225247 138.384574 
L 375.297662 138.553868 
L 375.297662 137.608482 
L 374.370078 137.777577 
L 374.370078 135.850363 
L 372.514909 136.186896 
L 372.514909 135.203556 
L 371.587325 135.371876 
L 371.587325 134.375303 
L 370.65974 134.543301 
L 370.65974 134.208 
L 369.732156 134.376351 
L 369.732156 130.236437 
L 368.804571 130.400961 
L 368.804571 130.045935 
L 366.949403 130.376294 
L 366.949403 129.659974 
L 366.021818 129.825391 
L 366.021818 129.464471 
L 365.094234 129.630183 
L 365.094234 128.902737 
L 362.311481 129.401642 
L 362.311481 129.034195 
L 361.383896 129.201525 
L 361.383896 128.832 
L 360.456312 128.999626 
L 360.456312 127.503101 
L 359.528727 127.669622 
L 359.528727 126.144 
L 358.601143 126.309321 
L 358.601143 125.923068 
L 357.673558 126.088641 
L 357.673558 123.730413 
L 355.81839 124.05751 
L 355.81839 123.254557 
L 353.035636 123.747623 
L 353.035636 123.341617 
L 350.252883 123.84 
L 350.252883 122.189538 
L 347.47013 122.688 
L 347.47013 121.847124 
L 346.542545 122.013659 
L 346.542545 121.589516 
L 345.614961 121.756235 
L 345.614961 120.900414 
L 343.759792 121.233743 
L 343.759792 119.4912 
L 341.904623 119.822472 
L 341.904623 119.37999 
L 340.977039 119.546182 
L 340.977039 119.100759 
L 340.049455 119.267086 
L 340.049455 116.542021 
L 339.12187 116.704744 
L 339.12187 115.308 
L 334.483948 116.122512 
L 334.483948 115.648 
L 330.77361 116.311957 
L 330.77361 115.831592 
L 329.846026 115.998968 
L 329.846026 115.028757 
L 328.918442 115.195317 
L 328.918442 114.705391 
L 327.063273 115.039475 
L 327.063273 114.545096 
L 323.352935 115.220742 
L 323.352935 114.72 
L 318.715013 115.581296 
L 318.715013 114.561994 
L 314.077091 115.438345 
L 314.077091 114.91947 
L 313.149506 115.096786 
L 313.149506 114.573913 
L 311.294338 114.929633 
L 311.294338 114.401684 
L 310.366753 114.580082 
L 310.366753 114.048 
L 309.439169 114.226407 
L 309.439169 113.69013 
L 304.801247 114.592865 
L 304.801247 114.048 
L 300.163325 114.972771 
L 300.163325 114.419043 
L 299.23574 114.606277 
L 299.23574 113.486266 
L 295.525403 114.237592 
L 295.525403 113.667623 
L 288.104727 115.218581 
L 288.104727 114.048 
L 287.177143 114.245003 
L 287.177143 113.652706 
L 285.321974 114.048 
L 285.321974 113.449188 
L 281.611636 114.250274 
L 281.611636 113.642094 
L 277.901299 114.459429 
L 277.901299 113.841584 
L 274.190961 114.67582 
L 274.190961 114.048 
L 273.263377 114.258732 
L 273.263377 113.625063 
L 270.480623 114.26171 
L 270.480623 113.619064 
L 269.553039 113.832769 
L 269.553039 113.184 
L 268.625455 113.397677 
L 268.625455 112.082946 
L 267.69787 112.294957 
L 267.69787 110.957781 
L 264.915117 111.593092 
L 264.915117 110.912 
L 263.059948 111.33994 
L 263.059948 109.955368 
L 261.204779 110.382545 
L 261.204779 109.678722 
L 259.34961 110.10869 
L 259.34961 109.395692 
L 252.856519 110.940332 
L 252.856519 110.208 
L 251.928935 110.433657 
L 251.928935 108.947277 
L 248.218597 109.851429 
L 248.218597 107.550149 
L 247.291013 107.774141 
L 247.291013 106.992 
L 243.580675 107.897492 
L 243.580675 107.099234 
L 238.015169 108.501799 
L 238.015169 107.681684 
L 236.16 108.160566 
L 236.16 107.328 
L 234.304831 107.810152 
L 234.304831 106.964757 
L 230.594494 107.944514 
L 230.594494 107.080258 
L 228.739325 107.578047 
L 228.739325 106.699963 
L 220.391065 109.032585 
L 220.391065 108.118588 
L 212.042805 110.636308 
L 212.042805 109.683464 
L 208.332468 110.864842 
L 208.332468 109.888 
L 205.549714 110.796387 
L 205.549714 109.798054 
L 199.984208 111.68286 
L 199.984208 110.650247 
L 196.27387 111.962483 
L 196.27387 110.901642 
L 193.491117 111.913412 
L 193.491117 110.827172 
L 187.92561 112.934871 
L 187.92561 111.808 
L 186.070442 112.536 
L 186.070442 111.385358 
L 185.142857 111.751291 
L 185.142857 110.580994 
L 183.287688 111.316645 
L 183.287688 110.120727 
L 182.360104 110.490353 
L 182.360104 109.273263 
L 181.432519 109.642172 
L 181.432519 108.4032 
L 177.722182 109.905534 
L 177.722182 107.328 
L 174.939429 108.47183 
L 174.939429 105.78095 
L 173.08426 106.543182 
L 173.08426 105.153882 
L 172.156675 105.536 
L 172.156675 104.118448 
L 169.373922 105.276092 
L 169.373922 102.32707 
L 163.808416 104.705561 
L 162.880831 105.124721 
L 162.880831 103.551471 
L 161.025662 104.391529 
L 161.025662 102.772068 
L 155.460156 105.408 
L 155.460156 103.695568 
L 154.532571 104.151273 
L 154.532571 102.39589 
L 151.749818 103.777811 
L 151.749818 100.091077 
L 150.822234 100.542757 
L 150.822234 98.631529 
L 146.184312 100.954392 
L 142.473974 102.992516 
L 142.473974 100.900174 
L 140.618805 101.952 
L 140.618805 97.553455 
L 135.980883 100.203181 
L 132.270545 102.564456 
L 128.560208 105.1776 
L 127.632623 105.875027 
L 127.632623 103.277589 
L 123.922286 106.159304 
L 121.139532 108.549818 
L 121.139532 105.673846 
L 119.284364 107.328 
L 119.284364 94.57139 
L 116.50161 96.768 
L 113.718857 99.213283 
L 112.791273 100.091077 
L 112.791273 96.259765 
L 110.008519 98.928 
L 107.225766 101.952 
L 107.225766 97.553455 
L 104.443013 100.771902 
L 104.443013 90.786462 
L 102.587844 92.79827 
L 100.732675 95.04 
L 98.877506 97.553455 
L 97.949922 98.928 
L 97.949922 92.587355 
L 96.094753 95.278345 
L 94.239584 98.368 
L 94.239584 90.786462 
L 92.384416 93.888 
L 91.456831 95.641043 
L 91.456831 86.557091 
L 89.601662 89.856 
L 87.746494 93.888 
L 85.891325 98.928 
L 84.96374 101.952 
L 84.036156 105.408 
L 83.108571 109.395692 
L 82.180987 114.048 
L 81.253403 119.546182 
L 81.253403 101.952 
L 80.325818 107.328 
L 79.398234 114.048 
L 78.470649 122.688 
L 78.470649 93.888 
L 77.543065 101.952 
L 76.615481 114.048 
L 75.687896 134.208 
L 74.760312 174.528 
L 73.832727 295.488 
L 73.832727 53.568 
L 73.832727 53.568 
" clip-path="url(#pac143b675c)" style="fill: none; stroke-dasharray: 7.4,3.2; stroke-dashoffset: 0; stroke: #008000; stroke-width: 2"/>
   </g>
   <g id="line2d_15">
    <path d="M 398.487273 174.528 
L 396.632104 172.585577 
L 395.704519 168.680991 
L 395.704519 164.116732 
L 395.704519 158.990049 
L 394.776935 156.212925 
L 391.994182 153.401425 
L 391.066597 148.79183 
L 389.211429 144.841846 
L 387.35626 141.206943 
L 385.501091 138.566919 
L 384.573506 134.368318 
L 383.645922 130.923275 
L 383.645922 130.587429 
L 383.645922 127.501971 
L 382.718338 126.245647 
L 381.790753 126.398653 
L 379.935584 123.432828 
L 379.935584 123.061218 
L 378.080416 119.546182 
L 375.297662 116.39005 
L 375.297662 115.981151 
L 372.514909 114.329302 
L 369.732156 112.180447 
L 367.876987 109.350524 
L 364.166649 106.1856 
L 364.166649 105.711158 
L 360.456312 103.320185 
L 354.890805 103.094929 
L 352.108052 98.270609 
L 349.325299 96.456864 
L 348.397714 96.576 
L 342.832208 93.888 
L 338.194286 92.702118 
L 338.194286 92.103929 
L 331.701195 91.069277 
L 330.77361 91.18361 
L 326.135688 87.909956 
L 317.787429 85.504634 
L 312.221922 82.56526 
L 311.294338 82.664907 
L 299.23574 82.493217 
L 298.308156 82.5984 
L 288.104727 79.721514 
L 288.104727 78.885209 
L 287.177143 78.98372 
L 272.335792 77.045468 
L 262.132364 72.261818 
L 261.204779 72.347178 
L 248.218597 71.443862 
L 234.304831 70.476387 
L 218.535896 68.141494 
L 217.608312 68.229818 
L 201.839377 65.246897 
L 200.911792 65.328 
L 190.708364 64.564364 
L 173.08426 66.41331 
L 160.098078 65.910857 
L 146.184312 65.368976 
L 145.256727 65.514667 
L 144.329143 65.664 
L 134.125714 60.789493 
L 124.84987 57.888 
L 110.008519 59.616 
L 96.094753 63.2448 
L 90.529247 53.568 
L 84.036156 53.568 
L 75.687896 53.568 
L 73.832727 53.568 
" clip-path="url(#pac143b675c)" style="fill: none; stroke-dasharray: 7.4,3.2; stroke-dashoffset: 0; stroke: #0000ff; stroke-width: 2"/>
   </g>
   <g id="line2d_16">
    <path d="M 398.487273 174.528 
L 398.487273 169.300221 
L 397.559688 169.472955 
L 397.559688 166.192319 
L 396.632104 166.365055 
L 396.632104 165.568 
L 395.704519 165.741107 
L 395.704519 163.080681 
L 394.776935 163.253687 
L 394.776935 157.589614 
L 393.849351 157.761267 
L 393.849351 153.303332 
L 392.921766 153.473529 
L 392.921766 151.258399 
L 391.994182 151.428 
L 391.994182 147.839317 
L 391.066597 148.007358 
L 391.066597 145.057745 
L 390.139013 145.224393 
L 390.139013 141.003506 
L 389.211429 141.16755 
L 389.211429 137.915586 
L 387.35626 138.24 
L 387.35626 137.937017 
L 386.428675 138.099892 
L 386.428675 135.316998 
L 385.501091 135.477921 
L 385.501091 134.208 
L 384.573506 134.368318 
L 384.573506 132.750651 
L 383.645922 132.909972 
L 383.645922 127.152 
L 382.718338 127.30562 
L 382.718338 126.600453 
L 381.790753 126.753882 
L 381.790753 123.869538 
L 380.863169 124.020077 
L 380.863169 123.65212 
L 379.935584 123.802839 
L 379.935584 120.029538 
L 379.008 120.17593 
L 379.008 118.223679 
L 378.080416 118.368 
L 378.080416 117.173933 
L 377.152831 117.317189 
L 377.152831 115.697455 
L 376.225247 115.838979 
L 376.225247 114.602862 
L 375.297662 114.743172 
L 375.297662 114.32671 
L 374.370078 114.46703 
L 374.370078 114.048 
L 373.442494 114.188325 
L 373.442494 113.766698 
L 372.514909 113.907021 
L 372.514909 112.628282 
L 371.587325 112.767247 
L 371.587325 112.336302 
L 370.65974 112.475234 
L 370.65974 112.041555 
L 369.732156 112.180447 
L 369.732156 111.744 
L 366.949403 112.162532 
L 366.949403 111.279036 
L 366.021818 111.418435 
L 366.021818 109.168196 
L 365.094234 109.304471 
L 365.094234 108.847017 
L 364.166649 108.983172 
L 364.166649 107.127403 
L 363.239065 107.260968 
L 363.239065 106.317474 
L 362.311481 106.45001 
L 362.311481 105.495273 
L 361.383896 105.626734 
L 361.383896 102.201402 
L 360.456312 102.32707 
L 360.456312 101.323636 
L 357.673558 101.698681 
L 357.673558 100.164728 
L 356.745974 100.288 
L 356.745974 99.770228 
L 355.81839 99.893106 
L 355.81839 99.37152 
L 354.890805 99.493989 
L 354.890805 95.209967 
L 353.963221 95.324055 
L 353.963221 94.774154 
L 351.180468 95.116587 
L 351.180468 94.56 
L 350.252883 94.674184 
L 350.252883 93.549176 
L 346.542545 94.002221 
L 346.542545 93.429818 
L 345.614961 93.543385 
L 345.614961 92.9664 
L 344.687377 93.079289 
L 344.687377 92.497655 
L 340.049455 93.065143 
L 340.049455 91.877912 
L 335.411532 92.448 
L 335.411532 91.232192 
L 333.556364 91.459084 
L 333.556364 90.842683 
L 331.701195 91.069277 
L 331.701195 89.819009 
L 330.77361 89.930209 
L 330.77361 89.297723 
L 328.918442 89.51896 
L 328.918442 88.879304 
L 326.135688 89.211386 
L 326.135688 86.592 
L 319.642597 87.342545 
L 319.642597 86.664547 
L 317.787429 86.881574 
L 317.787429 85.504634 
L 316.859844 85.610384 
L 316.859844 84.2112 
L 315.004675 84.416859 
L 315.004675 83.706182 
L 311.294338 84.117625 
L 311.294338 82.664907 
L 308.511584 82.968 
L 308.511584 82.227512 
L 307.584 82.32772 
L 307.584 81.579789 
L 306.656416 81.678423 
L 306.656416 80.922912 
L 304.801247 81.117609 
L 304.801247 78.804259 
L 301.090909 79.172672 
L 301.090909 78.380308 
L 297.380571 78.749264 
L 297.380571 77.940537 
L 296.452987 78.03182 
L 296.452987 77.214316 
L 290.887481 77.76 
L 290.887481 76.919351 
L 289.959896 77.00986 
L 289.959896 76.159751 
L 289.032312 76.248 
L 289.032312 75.388235 
L 276.04613 76.655801 
L 276.04613 75.744 
L 274.190961 75.930353 
L 274.190961 75.003949 
L 265.842701 75.850105 
L 265.842701 73.906407 
L 263.059948 74.180018 
L 263.059948 73.183135 
L 260.277195 73.451836 
L 260.277195 72.433321 
L 259.34961 72.520258 
L 259.34961 71.488 
L 247.291013 72.635586 
L 247.291013 71.532356 
L 235.232416 72.768 
L 235.232416 71.583319 
L 233.377247 71.777032 
L 233.377247 70.567784 
L 232.449662 70.660174 
L 232.449662 69.431607 
L 228.739325 69.786101 
L 228.739325 68.518112 
L 223.173818 69.039628 
L 223.173818 67.715368 
L 222.246234 67.798588 
L 222.246234 66.451314 
L 220.391065 66.605605 
L 220.391065 65.226795 
L 219.463481 65.297455 
L 219.463481 63.893854 
L 204.62213 65.010162 
L 204.62213 63.442286 
L 199.056623 63.862468 
L 199.056623 60.529727 
L 191.635948 60.95487 
L 191.635948 59.150769 
L 183.287688 59.566017 
L 183.287688 57.6 
L 174.011844 57.966545 
L 174.011844 55.78745 
L 158.242909 56.197565 
L 158.242909 53.568 
L 73.832727 53.568 
L 73.832727 53.568 
" clip-path="url(#pac143b675c)" style="fill: none; stroke-dasharray: 7.4,3.2; stroke-dashoffset: 0; stroke: #00bfbf; stroke-width: 2"/>
   </g>
   <g id="line2d_17">
    <path d="M 398.487273 174.528 
L 398.487273 170.418576 
L 397.559688 170.591432 
L 397.559688 166.979507 
L 396.632104 167.15239 
L 396.632104 166.759927 
L 395.704519 166.933268 
L 395.704519 166.538323 
L 393.849351 166.886459 
L 393.849351 163.008 
L 392.921766 163.18199 
L 392.921766 156.090211 
L 391.994182 156.262228 
L 391.994182 154.607593 
L 391.066597 154.779429 
L 391.066597 145.057745 
L 390.139013 145.224393 
L 390.139013 144.95019 
L 389.211429 145.11725 
L 389.211429 143.730066 
L 388.283844 143.896725 
L 388.283844 140.164364 
L 387.35626 140.328683 
L 387.35626 138.24 
L 386.428675 138.403145 
L 386.428675 133.083538 
L 385.501091 133.242251 
L 385.501091 130.60946 
L 384.573506 130.766049 
L 384.573506 129.755485 
L 383.645922 129.911607 
L 383.645922 126.800568 
L 382.718338 126.953774 
L 382.718338 119.209313 
L 381.790753 119.353263 
L 381.790753 118.186808 
L 380.863169 118.32977 
L 380.863169 117.146085 
L 379.935584 117.288 
L 379.935584 116.086652 
L 379.008 116.227459 
L 379.008 115.822808 
L 377.152831 116.105143 
L 377.152831 114.463195 
L 376.225247 114.602862 
L 376.225247 114.187034 
L 374.370078 114.46703 
L 374.370078 113.627026 
L 373.442494 113.766698 
L 373.442494 108.995971 
L 372.514909 109.128574 
L 372.514909 108.681669 
L 369.732156 109.081043 
L 369.732156 108.629695 
L 366.949403 109.032585 
L 366.949403 108.576704 
L 366.021818 108.711529 
L 366.021818 106.862257 
L 364.166649 107.127403 
L 364.166649 106.657676 
L 363.239065 106.7904 
L 363.239065 106.317474 
L 361.383896 106.583214 
L 361.383896 106.106182 
L 359.528727 106.372873 
L 359.528727 105.891664 
L 356.745974 106.294154 
L 356.745974 105.318928 
L 355.81839 105.452651 
L 355.81839 104.465455 
L 353.035636 104.865173 
L 353.035636 104.36485 
L 352.108052 104.498526 
L 352.108052 103.994596 
L 351.180468 104.128 
L 351.180468 103.620414 
L 350.252883 103.753532 
L 350.252883 103.24224 
L 349.325299 103.375059 
L 344.687377 102.480787 
L 342.832208 102.749538 
L 342.832208 102.218579 
L 340.049455 102.624 
L 340.049455 101.546547 
L 336.339117 102.088678 
L 336.339117 101.540805 
L 333.556364 101.952 
L 333.556364 101.397456 
L 332.628779 101.534897 
L 332.628779 100.975954 
L 331.701195 101.112971 
L 331.701195 100.549565 
L 329.846026 100.82351 
L 329.846026 100.254316 
L 328.918442 100.391226 
L 328.918442 99.817412 
L 327.990857 99.953841 
L 327.990857 98.208 
L 324.280519 98.745831 
L 324.280519 98.151444 
L 323.352935 98.286545 
L 323.352935 97.687149 
L 315.93226 98.786692 
L 315.93226 95.674329 
L 313.149506 96.077904 
L 313.149506 94.795524 
L 312.221922 94.928516 
L 312.221922 94.279456 
L 310.366753 94.544678 
L 310.366753 93.227016 
L 308.511584 93.488792 
L 308.511584 92.819921 
L 307.584 92.950326 
L 307.584 92.2752 
L 305.728831 92.53498 
L 305.728831 91.851636 
L 298.308156 92.911391 
L 298.308156 90.786462 
L 295.525403 91.181004 
L 295.525403 90.456511 
L 290.887481 91.122368 
L 290.887481 90.381913 
L 288.104727 90.786462 
L 288.104727 89.275749 
L 286.249558 89.541234 
L 286.249558 88.772776 
L 284.39439 89.037474 
L 284.39439 87.473455 
L 282.539221 87.732275 
L 282.539221 86.936276 
L 278.828883 87.455626 
L 278.828883 86.643 
L 277.901299 86.772706 
L 277.901299 85.950992 
L 275.118545 86.33804 
L 275.118545 85.50144 
L 273.263377 85.758968 
L 273.263377 84.909862 
L 265.842701 85.958962 
L 265.842701 85.078588 
L 263.987532 85.345627 
L 263.987532 84.451404 
L 251.001351 86.407819 
L 246.363429 87.168 
L 246.363429 85.221084 
L 245.435844 85.36969 
L 245.435844 84.378566 
L 242.653091 84.820823 
L 242.653091 83.808 
L 233.377247 85.335273 
L 233.377247 84.268508 
L 230.594494 84.743258 
L 230.594494 83.651316 
L 229.666909 83.808 
L 229.666909 82.699728 
L 228.739325 82.853053 
L 228.739325 81.728 
L 224.101403 82.493217 
L 224.101403 81.329311 
L 219.463481 82.109124 
L 219.463481 80.903593 
L 209.260052 82.714988 
L 209.260052 81.425455 
L 202.766961 82.659646 
L 202.766961 81.304051 
L 199.984208 81.844364 
L 199.984208 79.033263 
L 196.27387 79.721514 
L 196.27387 78.253714 
L 188.853195 79.674475 
L 188.853195 78.110609 
L 180.504935 79.822884 
L 179.577351 80.028 
L 179.577351 78.331465 
L 172.156675 79.996235 
L 171.229091 80.220203 
L 171.229091 74.604522 
L 169.373922 74.97685 
L 169.373922 73.008 
L 168.446338 73.183135 
L 168.446338 71.162182 
L 162.880831 72.177231 
L 162.880831 70.009165 
L 155.460156 71.393684 
L 152.677403 71.974957 
L 152.677403 69.518769 
L 151.749818 69.696 
L 151.749818 67.159011 
L 144.329143 68.501333 
L 137.836052 69.913946 
L 135.053299 70.60462 
L 135.053299 67.392 
L 132.270545 68.010985 
L 132.270545 64.564364 
L 130.415377 64.908 
L 130.415377 61.248 
L 123.922286 62.208 
L 118.356779 63.2448 
L 113.718857 64.32 
L 110.008519 65.368976 
L 106.298182 66.644757 
L 103.515429 67.798588 
L 100.732675 69.175742 
L 97.949922 70.848 
L 96.094753 72.177231 
L 94.239584 73.728 
L 92.384416 75.560727 
L 90.529247 77.76 
L 88.674078 80.448 
L 86.818909 83.808 
L 85.891325 85.824 
L 84.96374 88.128 
L 84.036156 90.786462 
L 84.036156 73.728 
L 83.108571 75.560727 
L 82.180987 77.76 
L 81.253403 80.448 
L 80.325818 83.808 
L 79.398234 88.128 
L 78.470649 93.888 
L 78.470649 53.568 
L 73.832727 53.568 
L 73.832727 53.568 
" clip-path="url(#pac143b675c)" style="fill: none; stroke-dasharray: 7.4,3.2; stroke-dashoffset: 0; stroke: #bf00bf; stroke-width: 2"/>
   </g>
   <g id="line2d_18">
    <path d="M 398.487273 174.528 
L 398.487273 167.391177 
L 397.559688 167.563636 
L 397.559688 161.258938 
L 396.632104 161.43042 
L 396.632104 161.216612 
L 395.704519 161.388575 
L 395.704519 160.526199 
L 394.776935 160.698435 
L 394.776935 159.161746 
L 393.849351 159.334003 
L 393.849351 159.111529 
L 392.921766 159.284268 
L 392.921766 155.856322 
L 391.994182 156.028235 
L 391.994182 155.793455 
L 391.066597 155.965841 
L 391.066597 152.345024 
L 390.139013 152.516215 
L 390.139013 149.479646 
L 389.211429 149.649702 
L 389.211429 146.479304 
L 388.283844 146.647927 
L 388.283844 146.105705 
L 387.35626 146.274569 
L 387.35626 146.001784 
L 386.428675 146.171077 
L 386.428675 143.950751 
L 385.501091 144.119061 
L 385.501091 141.538909 
L 384.573506 141.705837 
L 384.573506 141.413475 
L 383.645922 141.5808 
L 383.645922 141.287084 
L 382.718338 141.454807 
L 382.718338 139.667188 
L 381.790753 139.834047 
L 381.790753 138.002824 
L 379.935584 138.335244 
L 379.935584 138.025278 
L 377.152831 138.528 
L 377.152831 134.372236 
L 375.297662 134.702724 
L 375.297662 133.37666 
L 374.370078 133.541554 
L 374.370078 132.869577 
L 373.442494 133.034445 
L 373.442494 130.635342 
L 372.514909 130.798275 
L 372.514909 129.747064 
L 371.587325 129.909493 
L 371.587325 129.200377 
L 370.65974 129.362678 
L 370.65974 128.286272 
L 369.732156 128.448 
L 369.732156 128.085657 
L 368.804571 128.247652 
L 368.804571 127.883294 
L 361.383896 129.201525 
L 361.383896 128.832 
L 360.456312 128.999626 
L 360.456312 128.628 
L 358.601143 128.964592 
L 358.601143 127.836894 
L 356.745974 128.173714 
L 356.745974 127.793455 
L 355.81839 127.962533 
L 355.81839 126.422069 
L 351.180468 127.269209 
L 351.180468 125.68969 
L 350.252883 125.859388 
L 350.252883 125.057362 
L 349.325299 125.226768 
L 349.325299 124.416 
L 348.397714 124.585088 
L 348.397714 123.76541 
L 344.687377 124.445288 
L 344.687377 124.030136 
L 342.832208 124.373854 
L 342.832208 123.535059 
L 340.977039 123.879724 
L 340.977039 123.456 
L 340.049455 123.62899 
L 340.049455 123.202541 
L 339.12187 123.375761 
L 339.12187 122.946554 
L 338.194286 123.12 
L 338.194286 121.378909 
L 335.411532 121.89655 
L 335.411532 121.453714 
L 333.556364 121.801846 
L 333.556364 120.455442 
L 331.701195 120.802909 
L 331.701195 119.890715 
L 327.990857 120.590691 
L 327.990857 117.77733 
L 327.063273 117.949935 
L 327.063273 117.471396 
L 325.208104 117.817756 
L 325.208104 116.361443 
L 323.352935 116.706462 
L 323.352935 115.718718 
L 320.570182 116.238084 
L 320.570182 115.737385 
L 318.715013 116.086652 
L 318.715013 115.581296 
L 315.93226 116.109818 
L 315.93226 115.598769 
L 315.004675 115.776 
L 315.004675 115.261066 
L 309.439169 116.340245 
L 309.439169 115.816421 
L 307.584 116.182588 
L 307.584 115.653664 
L 305.728831 116.022125 
L 305.728831 115.488 
L 304.801247 115.672836 
L 304.801247 114.592865 
L 302.946078 114.961595 
L 302.946078 113.310439 
L 300.163325 113.861908 
L 300.163325 112.737288 
L 297.380571 113.292 
L 297.380571 112.720853 
L 292.742649 113.662777 
L 292.742649 113.081866 
L 291.815065 113.272615 
L 291.815065 112.686714 
L 290.887481 112.877419 
L 290.887481 111.092951 
L 289.959896 111.280941 
L 289.959896 109.457109 
L 288.104727 109.828465 
L 288.104727 107.959409 
L 284.39439 108.699429 
L 284.39439 107.420055 
L 283.466805 107.605113 
L 283.466805 106.957241 
L 282.539221 107.141979 
L 282.539221 106.488 
L 279.756468 107.045053 
L 279.756468 106.381521 
L 278.828883 106.568141 
L 278.828883 105.223516 
L 272.335792 106.543182 
L 272.335792 105.851077 
L 265.842701 107.226947 
L 265.842701 105.800727 
L 264.915117 105.999331 
L 264.915117 105.276092 
L 258.422026 106.695529 
L 258.422026 105.952252 
L 255.639273 106.578359 
L 255.639273 105.82272 
L 254.711688 106.032578 
L 254.711688 105.268645 
L 251.928935 105.901714 
L 251.928935 105.124721 
L 250.073766 105.55081 
L 250.073766 104.762689 
L 241.725506 106.74869 
L 241.725506 105.107478 
L 239.870338 105.559579 
L 239.870338 104.72289 
L 235.232416 105.875027 
L 235.232416 104.151273 
L 233.377247 104.615339 
L 233.377247 103.735742 
L 230.594494 104.439028 
L 230.594494 103.542085 
L 226.884156 104.498526 
L 226.884156 102.653217 
L 221.318649 104.118448 
L 221.318649 103.1616 
L 215.753143 104.695423 
L 215.753143 101.698681 
L 213.897974 102.208 
L 213.897974 101.179915 
L 212.97039 101.434524 
L 212.97039 99.336649 
L 211.115221 99.836852 
L 211.115221 98.761846 
L 209.260052 99.264 
L 209.260052 98.167777 
L 207.404883 98.671729 
L 207.404883 97.553455 
L 203.694545 98.576372 
L 203.694545 97.424842 
L 200.911792 98.208 
L 200.911792 97.026683 
L 199.984208 97.288482 
L 199.984208 96.087273 
L 198.129039 96.608982 
L 198.129039 94.138435 
L 197.201455 94.392 
L 197.201455 93.127245 
L 189.780779 95.223099 
L 188.853195 95.5008 
L 188.853195 94.158604 
L 184.215273 95.568 
L 184.215273 94.169958 
L 183.287688 94.455887 
L 183.287688 93.030128 
L 182.360104 93.312 
L 182.360104 91.857496 
L 176.794597 93.584842 
L 176.794597 92.055273 
L 174.939429 92.647385 
L 174.939429 91.074977 
L 168.446338 93.227016 
L 166.591169 93.888 
L 166.591169 88.718769 
L 164.736 89.330087 
L 164.736 87.521684 
L 160.098078 89.079193 
L 160.098078 87.168 
L 156.38774 88.460308 
L 156.38774 86.45033 
L 155.460156 86.772706 
L 155.460156 84.706218 
L 153.604987 85.335273 
L 153.604987 83.190857 
L 148.039481 85.122783 
L 146.184312 85.824 
L 146.184312 83.468225 
L 145.256727 83.808 
L 145.256727 78.885209 
L 139.691221 80.784 
L 138.763636 81.128506 
L 138.763636 75.560727 
L 137.836052 75.850105 
L 137.836052 72.9216 
L 132.270545 74.604522 
L 132.270545 71.356235 
L 127.632623 72.768 
L 122.994701 74.423172 
L 120.211948 75.560727 
L 120.211948 71.488 
L 116.50161 72.9216 
L 115.574026 73.316571 
L 115.574026 68.688 
L 111.863688 70.062545 
L 111.863688 64.820093 
L 108.153351 65.974154 
L 104.443013 67.392 
L 101.66026 68.688 
L 98.877506 70.252138 
L 97.022338 71.488 
L 95.167169 72.9216 
L 95.167169 63.648 
L 93.312 64.564364 
L 91.456831 65.664 
L 89.601662 67.008 
L 87.746494 68.688 
L 85.891325 70.848 
L 84.96374 72.177231 
L 84.036156 73.728 
L 83.108571 75.560727 
L 82.180987 77.76 
L 82.180987 53.568 
L 73.832727 53.568 
L 73.832727 53.568 
" clip-path="url(#pac143b675c)" style="fill: none; stroke-dasharray: 7.4,3.2; stroke-dashoffset: 0; stroke: #bfbf00; stroke-width: 2"/>
   </g>
   <g id="patch_3">
    <path d="M 57.6 307.584 
L 57.6 41.472 
" style="fill: none; stroke: #000000; stroke-width: 0.8; stroke-linejoin: miter; stroke-linecap: square"/>
   </g>
   <g id="patch_4">
    <path d="M 414.72 307.584 
L 414.72 41.472 
" style="fill: none; stroke: #000000; stroke-width: 0.8; stroke-linejoin: miter; stroke-linecap: square"/>
   </g>
   <g id="patch_5">
    <path d="M 57.6 307.584 
L 414.72 307.584 
" style="fill: none; stroke: #000000; stroke-width: 0.8; stroke-linejoin: miter; stroke-linecap: square"/>
   </g>
   <g id="patch_6">
    <path d="M 57.6 41.472 
L 414.72 41.472 
" style="fill: none; stroke: #000000; stroke-width: 0.8; stroke-linejoin: miter; stroke-linecap: square"/>
   </g>
   <g id="text_15">
    <!-- Precision/Recall Curve -->
    <g transform="translate(169.860938 35.472)scale(0.12 -0.12)">
     <defs>
      <path id="DejaVuSans-2f" d="M 1625 4666 
L 2156 4666 
L 531 -594 
L 0 -594 
L 1625 4666 
z
" transform="scale(0.015625)"/>
      <path id="DejaVuSans-20" transform="scale(0.015625)"/>
      <path id="DejaVuSans-43" d="M 4122 4306 
L 4122 3641 
Q 3803 3938 3442 4084 
Q 3081 4231 2675 4231 
Q 1875 4231 1450 3742 
Q 1025 3253 1025 2328 
Q 1025 1406 1450 917 
Q 1875 428 2675 428 
Q 3081 428 3442 575 
Q 3803 722 4122 1019 
L 4122 359 
Q 3791 134 3420 21 
Q 3050 -91 2638 -91 
Q 1578 -91 968 557 
Q 359 1206 359 2328 
Q 359 3453 968 4101 
Q 1578 4750 2638 4750 
Q 3056 4750 3426 4639 
Q 3797 4528 4122 4306 
z
" transform="scale(0.015625)"/>
      <path id="DejaVuSans-75" d="M 544 1381 
L 544 3500 
L 1119 3500 
L 1119 1403 
Q 1119 906 1312 657 
Q 1506 409 1894 409 
Q 2359 409 2629 706 
Q 2900 1003 2900 1516 
L 2900 3500 
L 3475 3500 
L 3475 0 
L 2900 0 
L 2900 538 
Q 2691 219 2414 64 
Q 2138 -91 1772 -91 
Q 1169 -91 856 284 
Q 544 659 544 1381 
z
M 1991 3584 
L 1991 3584 
z
" transform="scale(0.015625)"/>
      <path id="DejaVuSans-76" d="M 191 3500 
L 800 3500 
L 1894 563 
L 2988 3500 
L 3597 3500 
L 2284 0 
L 1503 0 
L 191 3500 
z
" transform="scale(0.015625)"/>
     </defs>
     <use xlink:href="#DejaVuSans-50"/>
     <use xlink:href="#DejaVuSans-72" x="58.552734"/>
     <use xlink:href="#DejaVuSans-65" x="97.416016"/>
     <use xlink:href="#DejaVuSans-63" x="158.939453"/>
     <use xlink:href="#DejaVuSans-69" x="213.919922"/>
     <use xlink:href="#DejaVuSans-73" x="241.703125"/>
     <use xlink:href="#DejaVuSans-69" x="293.802734"/>
     <use xlink:href="#DejaVuSans-6f" x="321.585938"/>
     <use xlink:href="#DejaVuSans-6e" x="382.767578"/>
     <use xlink:href="#DejaVuSans-2f" x="446.146484"/>
     <use xlink:href="#DejaVuSans-52" x="479.837891"/>
     <use xlink:href="#DejaVuSans-65" x="544.820312"/>
     <use xlink:href="#DejaVuSans-63" x="606.34375"/>
     <use xlink:href="#DejaVuSans-61" x="661.324219"/>
     <use xlink:href="#DejaVuSans-6c" x="722.603516"/>
     <use xlink:href="#DejaVuSans-6c" x="750.386719"/>
     <use xlink:href="#DejaVuSans-20" x="778.169922"/>
     <use xlink:href="#DejaVuSans-43" x="809.957031"/>
     <use xlink:href="#DejaVuSans-75" x="879.78125"/>
     <use xlink:href="#DejaVuSans-72" x="943.160156"/>
     <use xlink:href="#DejaVuSans-76" x="984.273438"/>
     <use xlink:href="#DejaVuSans-65" x="1043.453125"/>
    </g>
   </g>
   <g id="legend_1">
    <g id="patch_7">
     <path d="M 223.123125 302.584 
L 407.72 302.584 
Q 409.72 302.584 409.72 300.584 
L 409.72 211.8465 
Q 409.72 209.8465 407.72 209.8465 
L 223.123125 209.8465 
Q 221.123125 209.8465 221.123125 211.8465 
L 221.123125 300.584 
Q 221.123125 302.584 223.123125 302.584 
z
" style="fill: #ffffff; opacity: 0.8; stroke: #cccccc; stroke-linejoin: miter"/>
    </g>
    <g id="line2d_19">
     <path d="M 225.123125 217.944937 
L 235.123125 217.944937 
L 245.123125 217.944937 
" style="fill: none; stroke-dasharray: 7.4,3.2; stroke-dashoffset: 0; stroke: #ff0000; stroke-width: 2"/>
    </g>
    <g id="text_16">
     <!-- gbdt_P_R curve(area=0.8658) -->
     <g transform="translate(253.123125 221.444937)scale(0.1 -0.1)">
      <defs>
       <path id="DejaVuSans-67" d="M 2906 1791 
Q 2906 2416 2648 2759 
Q 2391 3103 1925 3103 
Q 1463 3103 1205 2759 
Q 947 2416 947 1791 
Q 947 1169 1205 825 
Q 1463 481 1925 481 
Q 2391 481 2648 825 
Q 2906 1169 2906 1791 
z
M 3481 434 
Q 3481 -459 3084 -895 
Q 2688 -1331 1869 -1331 
Q 1566 -1331 1297 -1286 
Q 1028 -1241 775 -1147 
L 775 -588 
Q 1028 -725 1275 -790 
Q 1522 -856 1778 -856 
Q 2344 -856 2625 -561 
Q 2906 -266 2906 331 
L 2906 616 
Q 2728 306 2450 153 
Q 2172 0 1784 0 
Q 1141 0 747 490 
Q 353 981 353 1791 
Q 353 2603 747 3093 
Q 1141 3584 1784 3584 
Q 2172 3584 2450 3431 
Q 2728 3278 2906 2969 
L 2906 3500 
L 3481 3500 
L 3481 434 
z
" transform="scale(0.015625)"/>
       <path id="DejaVuSans-62" d="M 3116 1747 
Q 3116 2381 2855 2742 
Q 2594 3103 2138 3103 
Q 1681 3103 1420 2742 
Q 1159 2381 1159 1747 
Q 1159 1113 1420 752 
Q 1681 391 2138 391 
Q 2594 391 2855 752 
Q 3116 1113 3116 1747 
z
M 1159 2969 
Q 1341 3281 1617 3432 
Q 1894 3584 2278 3584 
Q 2916 3584 3314 3078 
Q 3713 2572 3713 1747 
Q 3713 922 3314 415 
Q 2916 -91 2278 -91 
Q 1894 -91 1617 61 
Q 1341 213 1159 525 
L 1159 0 
L 581 0 
L 581 4863 
L 1159 4863 
L 1159 2969 
z
" transform="scale(0.015625)"/>
       <path id="DejaVuSans-64" d="M 2906 2969 
L 2906 4863 
L 3481 4863 
L 3481 0 
L 2906 0 
L 2906 525 
Q 2725 213 2448 61 
Q 2172 -91 1784 -91 
Q 1150 -91 751 415 
Q 353 922 353 1747 
Q 353 2572 751 3078 
Q 1150 3584 1784 3584 
Q 2172 3584 2448 3432 
Q 2725 3281 2906 2969 
z
M 947 1747 
Q 947 1113 1208 752 
Q 1469 391 1925 391 
Q 2381 391 2643 752 
Q 2906 1113 2906 1747 
Q 2906 2381 2643 2742 
Q 2381 3103 1925 3103 
Q 1469 3103 1208 2742 
Q 947 2381 947 1747 
z
" transform="scale(0.015625)"/>
       <path id="DejaVuSans-74" d="M 1172 4494 
L 1172 3500 
L 2356 3500 
L 2356 3053 
L 1172 3053 
L 1172 1153 
Q 1172 725 1289 603 
Q 1406 481 1766 481 
L 2356 481 
L 2356 0 
L 1766 0 
Q 1100 0 847 248 
Q 594 497 594 1153 
L 594 3053 
L 172 3053 
L 172 3500 
L 594 3500 
L 594 4494 
L 1172 4494 
z
" transform="scale(0.015625)"/>
       <path id="DejaVuSans-5f" d="M 3263 -1063 
L 3263 -1509 
L -63 -1509 
L -63 -1063 
L 3263 -1063 
z
" transform="scale(0.015625)"/>
       <path id="DejaVuSans-28" d="M 1984 4856 
Q 1566 4138 1362 3434 
Q 1159 2731 1159 2009 
Q 1159 1288 1364 580 
Q 1569 -128 1984 -844 
L 1484 -844 
Q 1016 -109 783 600 
Q 550 1309 550 2009 
Q 550 2706 781 3412 
Q 1013 4119 1484 4856 
L 1984 4856 
z
" transform="scale(0.015625)"/>
       <path id="DejaVuSans-3d" d="M 678 2906 
L 4684 2906 
L 4684 2381 
L 678 2381 
L 678 2906 
z
M 678 1631 
L 4684 1631 
L 4684 1100 
L 678 1100 
L 678 1631 
z
" transform="scale(0.015625)"/>
       <path id="DejaVuSans-35" d="M 691 4666 
L 3169 4666 
L 3169 4134 
L 1269 4134 
L 1269 2991 
Q 1406 3038 1543 3061 
Q 1681 3084 1819 3084 
Q 2600 3084 3056 2656 
Q 3513 2228 3513 1497 
Q 3513 744 3044 326 
Q 2575 -91 1722 -91 
Q 1428 -91 1123 -41 
Q 819 9 494 109 
L 494 744 
Q 775 591 1075 516 
Q 1375 441 1709 441 
Q 2250 441 2565 725 
Q 2881 1009 2881 1497 
Q 2881 1984 2565 2268 
Q 2250 2553 1709 2553 
Q 1456 2553 1204 2497 
Q 953 2441 691 2322 
L 691 4666 
z
" transform="scale(0.015625)"/>
       <path id="DejaVuSans-29" d="M 513 4856 
L 1013 4856 
Q 1481 4119 1714 3412 
Q 1947 2706 1947 2009 
Q 1947 1309 1714 600 
Q 1481 -109 1013 -844 
L 513 -844 
Q 928 -128 1133 580 
Q 1338 1288 1338 2009 
Q 1338 2731 1133 3434 
Q 928 4138 513 4856 
z
" transform="scale(0.015625)"/>
      </defs>
      <use xlink:href="#DejaVuSans-67"/>
      <use xlink:href="#DejaVuSans-62" x="63.476562"/>
      <use xlink:href="#DejaVuSans-64" x="126.953125"/>
      <use xlink:href="#DejaVuSans-74" x="190.429688"/>
      <use xlink:href="#DejaVuSans-5f" x="229.638672"/>
      <use xlink:href="#DejaVuSans-50" x="279.638672"/>
      <use xlink:href="#DejaVuSans-5f" x="339.941406"/>
      <use xlink:href="#DejaVuSans-52" x="389.941406"/>
      <use xlink:href="#DejaVuSans-20" x="459.423828"/>
      <use xlink:href="#DejaVuSans-63" x="491.210938"/>
      <use xlink:href="#DejaVuSans-75" x="546.191406"/>
      <use xlink:href="#DejaVuSans-72" x="609.570312"/>
      <use xlink:href="#DejaVuSans-76" x="650.683594"/>
      <use xlink:href="#DejaVuSans-65" x="709.863281"/>
      <use xlink:href="#DejaVuSans-28" x="771.386719"/>
      <use xlink:href="#DejaVuSans-61" x="810.400391"/>
      <use xlink:href="#DejaVuSans-72" x="871.679688"/>
      <use xlink:href="#DejaVuSans-65" x="910.542969"/>
      <use xlink:href="#DejaVuSans-61" x="972.066406"/>
      <use xlink:href="#DejaVuSans-3d" x="1033.345703"/>
      <use xlink:href="#DejaVuSans-30" x="1117.134766"/>
      <use xlink:href="#DejaVuSans-2e" x="1180.757812"/>
      <use xlink:href="#DejaVuSans-38" x="1212.544922"/>
      <use xlink:href="#DejaVuSans-36" x="1276.167969"/>
      <use xlink:href="#DejaVuSans-35" x="1339.791016"/>
      <use xlink:href="#DejaVuSans-38" x="1403.414062"/>
      <use xlink:href="#DejaVuSans-29" x="1467.037109"/>
     </g>
    </g>
    <g id="line2d_20">
     <path d="M 225.123125 232.901187 
L 235.123125 232.901187 
L 245.123125 232.901187 
" style="fill: none; stroke-dasharray: 7.4,3.2; stroke-dashoffset: 0; stroke: #008000; stroke-width: 2"/>
    </g>
    <g id="text_17">
     <!-- lr_P_R curve(area=0.7525) -->
     <g transform="translate(253.123125 236.401187)scale(0.1 -0.1)">
      <defs>
       <path id="DejaVuSans-37" d="M 525 4666 
L 3525 4666 
L 3525 4397 
L 1831 0 
L 1172 0 
L 2766 4134 
L 525 4134 
L 525 4666 
z
" transform="scale(0.015625)"/>
      </defs>
      <use xlink:href="#DejaVuSans-6c"/>
      <use xlink:href="#DejaVuSans-72" x="27.783203"/>
      <use xlink:href="#DejaVuSans-5f" x="68.896484"/>
      <use xlink:href="#DejaVuSans-50" x="118.896484"/>
      <use xlink:href="#DejaVuSans-5f" x="179.199219"/>
      <use xlink:href="#DejaVuSans-52" x="229.199219"/>
      <use xlink:href="#DejaVuSans-20" x="298.681641"/>
      <use xlink:href="#DejaVuSans-63" x="330.46875"/>
      <use xlink:href="#DejaVuSans-75" x="385.449219"/>
      <use xlink:href="#DejaVuSans-72" x="448.828125"/>
      <use xlink:href="#DejaVuSans-76" x="489.941406"/>
      <use xlink:href="#DejaVuSans-65" x="549.121094"/>
      <use xlink:href="#DejaVuSans-28" x="610.644531"/>
      <use xlink:href="#DejaVuSans-61" x="649.658203"/>
      <use xlink:href="#DejaVuSans-72" x="710.9375"/>
      <use xlink:href="#DejaVuSans-65" x="749.800781"/>
      <use xlink:href="#DejaVuSans-61" x="811.324219"/>
      <use xlink:href="#DejaVuSans-3d" x="872.603516"/>
      <use xlink:href="#DejaVuSans-30" x="956.392578"/>
      <use xlink:href="#DejaVuSans-2e" x="1020.015625"/>
      <use xlink:href="#DejaVuSans-37" x="1051.802734"/>
      <use xlink:href="#DejaVuSans-35" x="1115.425781"/>
      <use xlink:href="#DejaVuSans-32" x="1179.048828"/>
      <use xlink:href="#DejaVuSans-35" x="1242.671875"/>
      <use xlink:href="#DejaVuSans-29" x="1306.294922"/>
     </g>
    </g>
    <g id="line2d_21">
     <path d="M 225.123125 247.857437 
L 235.123125 247.857437 
L 245.123125 247.857437 
" style="fill: none; stroke-dasharray: 7.4,3.2; stroke-dashoffset: 0; stroke: #0000ff; stroke-width: 2"/>
    </g>
    <g id="text_18">
     <!-- rf_P_R curve(area=0.8976) -->
     <g transform="translate(253.123125 251.357437)scale(0.1 -0.1)">
      <defs>
       <path id="DejaVuSans-66" d="M 2375 4863 
L 2375 4384 
L 1825 4384 
Q 1516 4384 1395 4259 
Q 1275 4134 1275 3809 
L 1275 3500 
L 2222 3500 
L 2222 3053 
L 1275 3053 
L 1275 0 
L 697 0 
L 697 3053 
L 147 3053 
L 147 3500 
L 697 3500 
L 697 3744 
Q 697 4328 969 4595 
Q 1241 4863 1831 4863 
L 2375 4863 
z
" transform="scale(0.015625)"/>
       <path id="DejaVuSans-39" d="M 703 97 
L 703 672 
Q 941 559 1184 500 
Q 1428 441 1663 441 
Q 2288 441 2617 861 
Q 2947 1281 2994 2138 
Q 2813 1869 2534 1725 
Q 2256 1581 1919 1581 
Q 1219 1581 811 2004 
Q 403 2428 403 3163 
Q 403 3881 828 4315 
Q 1253 4750 1959 4750 
Q 2769 4750 3195 4129 
Q 3622 3509 3622 2328 
Q 3622 1225 3098 567 
Q 2575 -91 1691 -91 
Q 1453 -91 1209 -44 
Q 966 3 703 97 
z
M 1959 2075 
Q 2384 2075 2632 2365 
Q 2881 2656 2881 3163 
Q 2881 3666 2632 3958 
Q 2384 4250 1959 4250 
Q 1534 4250 1286 3958 
Q 1038 3666 1038 3163 
Q 1038 2656 1286 2365 
Q 1534 2075 1959 2075 
z
" transform="scale(0.015625)"/>
      </defs>
      <use xlink:href="#DejaVuSans-72"/>
      <use xlink:href="#DejaVuSans-66" x="41.113281"/>
      <use xlink:href="#DejaVuSans-5f" x="76.318359"/>
      <use xlink:href="#DejaVuSans-50" x="126.318359"/>
      <use xlink:href="#DejaVuSans-5f" x="186.621094"/>
      <use xlink:href="#DejaVuSans-52" x="236.621094"/>
      <use xlink:href="#DejaVuSans-20" x="306.103516"/>
      <use xlink:href="#DejaVuSans-63" x="337.890625"/>
      <use xlink:href="#DejaVuSans-75" x="392.871094"/>
      <use xlink:href="#DejaVuSans-72" x="456.25"/>
      <use xlink:href="#DejaVuSans-76" x="497.363281"/>
      <use xlink:href="#DejaVuSans-65" x="556.542969"/>
      <use xlink:href="#DejaVuSans-28" x="618.066406"/>
      <use xlink:href="#DejaVuSans-61" x="657.080078"/>
      <use xlink:href="#DejaVuSans-72" x="718.359375"/>
      <use xlink:href="#DejaVuSans-65" x="757.222656"/>
      <use xlink:href="#DejaVuSans-61" x="818.746094"/>
      <use xlink:href="#DejaVuSans-3d" x="880.025391"/>
      <use xlink:href="#DejaVuSans-30" x="963.814453"/>
      <use xlink:href="#DejaVuSans-2e" x="1027.4375"/>
      <use xlink:href="#DejaVuSans-38" x="1059.224609"/>
      <use xlink:href="#DejaVuSans-39" x="1122.847656"/>
      <use xlink:href="#DejaVuSans-37" x="1186.470703"/>
      <use xlink:href="#DejaVuSans-36" x="1250.09375"/>
      <use xlink:href="#DejaVuSans-29" x="1313.716797"/>
     </g>
    </g>
    <g id="line2d_22">
     <path d="M 225.123125 262.813688 
L 235.123125 262.813688 
L 245.123125 262.813688 
" style="fill: none; stroke-dasharray: 7.4,3.2; stroke-dashoffset: 0; stroke: #00bfbf; stroke-width: 2"/>
    </g>
    <g id="text_19">
     <!-- xgb_P_R curve(area=0.9113) -->
     <g transform="translate(253.123125 266.313688)scale(0.1 -0.1)">
      <defs>
       <path id="DejaVuSans-78" d="M 3513 3500 
L 2247 1797 
L 3578 0 
L 2900 0 
L 1881 1375 
L 863 0 
L 184 0 
L 1544 1831 
L 300 3500 
L 978 3500 
L 1906 2253 
L 2834 3500 
L 3513 3500 
z
" transform="scale(0.015625)"/>
       <path id="DejaVuSans-33" d="M 2597 2516 
Q 3050 2419 3304 2112 
Q 3559 1806 3559 1356 
Q 3559 666 3084 287 
Q 2609 -91 1734 -91 
Q 1441 -91 1130 -33 
Q 819 25 488 141 
L 488 750 
Q 750 597 1062 519 
Q 1375 441 1716 441 
Q 2309 441 2620 675 
Q 2931 909 2931 1356 
Q 2931 1769 2642 2001 
Q 2353 2234 1838 2234 
L 1294 2234 
L 1294 2753 
L 1863 2753 
Q 2328 2753 2575 2939 
Q 2822 3125 2822 3475 
Q 2822 3834 2567 4026 
Q 2313 4219 1838 4219 
Q 1578 4219 1281 4162 
Q 984 4106 628 3988 
L 628 4550 
Q 988 4650 1302 4700 
Q 1616 4750 1894 4750 
Q 2613 4750 3031 4423 
Q 3450 4097 3450 3541 
Q 3450 3153 3228 2886 
Q 3006 2619 2597 2516 
z
" transform="scale(0.015625)"/>
      </defs>
      <use xlink:href="#DejaVuSans-78"/>
      <use xlink:href="#DejaVuSans-67" x="59.179688"/>
      <use xlink:href="#DejaVuSans-62" x="122.65625"/>
      <use xlink:href="#DejaVuSans-5f" x="186.132812"/>
      <use xlink:href="#DejaVuSans-50" x="236.132812"/>
      <use xlink:href="#DejaVuSans-5f" x="296.435547"/>
      <use xlink:href="#DejaVuSans-52" x="346.435547"/>
      <use xlink:href="#DejaVuSans-20" x="415.917969"/>
      <use xlink:href="#DejaVuSans-63" x="447.705078"/>
      <use xlink:href="#DejaVuSans-75" x="502.685547"/>
      <use xlink:href="#DejaVuSans-72" x="566.064453"/>
      <use xlink:href="#DejaVuSans-76" x="607.177734"/>
      <use xlink:href="#DejaVuSans-65" x="666.357422"/>
      <use xlink:href="#DejaVuSans-28" x="727.880859"/>
      <use xlink:href="#DejaVuSans-61" x="766.894531"/>
      <use xlink:href="#DejaVuSans-72" x="828.173828"/>
      <use xlink:href="#DejaVuSans-65" x="867.037109"/>
      <use xlink:href="#DejaVuSans-61" x="928.560547"/>
      <use xlink:href="#DejaVuSans-3d" x="989.839844"/>
      <use xlink:href="#DejaVuSans-30" x="1073.628906"/>
      <use xlink:href="#DejaVuSans-2e" x="1137.251953"/>
      <use xlink:href="#DejaVuSans-39" x="1169.039062"/>
      <use xlink:href="#DejaVuSans-31" x="1232.662109"/>
      <use xlink:href="#DejaVuSans-31" x="1296.285156"/>
      <use xlink:href="#DejaVuSans-33" x="1359.908203"/>
      <use xlink:href="#DejaVuSans-29" x="1423.53125"/>
     </g>
    </g>
    <g id="line2d_23">
     <path d="M 225.123125 277.769937 
L 235.123125 277.769937 
L 245.123125 277.769937 
" style="fill: none; stroke-dasharray: 7.4,3.2; stroke-dashoffset: 0; stroke: #bf00bf; stroke-width: 2"/>
    </g>
    <g id="text_20">
     <!-- svm_P_R curve(area=0.8598) -->
     <g transform="translate(253.123125 281.269937)scale(0.1 -0.1)">
      <defs>
       <path id="DejaVuSans-6d" d="M 3328 2828 
Q 3544 3216 3844 3400 
Q 4144 3584 4550 3584 
Q 5097 3584 5394 3201 
Q 5691 2819 5691 2113 
L 5691 0 
L 5113 0 
L 5113 2094 
Q 5113 2597 4934 2840 
Q 4756 3084 4391 3084 
Q 3944 3084 3684 2787 
Q 3425 2491 3425 1978 
L 3425 0 
L 2847 0 
L 2847 2094 
Q 2847 2600 2669 2842 
Q 2491 3084 2119 3084 
Q 1678 3084 1418 2786 
Q 1159 2488 1159 1978 
L 1159 0 
L 581 0 
L 581 3500 
L 1159 3500 
L 1159 2956 
Q 1356 3278 1631 3431 
Q 1906 3584 2284 3584 
Q 2666 3584 2933 3390 
Q 3200 3197 3328 2828 
z
" transform="scale(0.015625)"/>
      </defs>
      <use xlink:href="#DejaVuSans-73"/>
      <use xlink:href="#DejaVuSans-76" x="52.099609"/>
      <use xlink:href="#DejaVuSans-6d" x="111.279297"/>
      <use xlink:href="#DejaVuSans-5f" x="208.691406"/>
      <use xlink:href="#DejaVuSans-50" x="258.691406"/>
      <use xlink:href="#DejaVuSans-5f" x="318.994141"/>
      <use xlink:href="#DejaVuSans-52" x="368.994141"/>
      <use xlink:href="#DejaVuSans-20" x="438.476562"/>
      <use xlink:href="#DejaVuSans-63" x="470.263672"/>
      <use xlink:href="#DejaVuSans-75" x="525.244141"/>
      <use xlink:href="#DejaVuSans-72" x="588.623047"/>
      <use xlink:href="#DejaVuSans-76" x="629.736328"/>
      <use xlink:href="#DejaVuSans-65" x="688.916016"/>
      <use xlink:href="#DejaVuSans-28" x="750.439453"/>
      <use xlink:href="#DejaVuSans-61" x="789.453125"/>
      <use xlink:href="#DejaVuSans-72" x="850.732422"/>
      <use xlink:href="#DejaVuSans-65" x="889.595703"/>
      <use xlink:href="#DejaVuSans-61" x="951.119141"/>
      <use xlink:href="#DejaVuSans-3d" x="1012.398438"/>
      <use xlink:href="#DejaVuSans-30" x="1096.1875"/>
      <use xlink:href="#DejaVuSans-2e" x="1159.810547"/>
      <use xlink:href="#DejaVuSans-38" x="1191.597656"/>
      <use xlink:href="#DejaVuSans-35" x="1255.220703"/>
      <use xlink:href="#DejaVuSans-39" x="1318.84375"/>
      <use xlink:href="#DejaVuSans-38" x="1382.466797"/>
      <use xlink:href="#DejaVuSans-29" x="1446.089844"/>
     </g>
    </g>
    <g id="line2d_24">
     <path d="M 225.123125 292.726187 
L 235.123125 292.726187 
L 245.123125 292.726187 
" style="fill: none; stroke-dasharray: 7.4,3.2; stroke-dashoffset: 0; stroke: #bfbf00; stroke-width: 2"/>
    </g>
    <g id="text_21">
     <!-- adab_P_R curve(area=0.8004) -->
     <g transform="translate(253.123125 296.226187)scale(0.1 -0.1)">
      <use xlink:href="#DejaVuSans-61"/>
      <use xlink:href="#DejaVuSans-64" x="61.279297"/>
      <use xlink:href="#DejaVuSans-61" x="124.755859"/>
      <use xlink:href="#DejaVuSans-62" x="186.035156"/>
      <use xlink:href="#DejaVuSans-5f" x="249.511719"/>
      <use xlink:href="#DejaVuSans-50" x="299.511719"/>
      <use xlink:href="#DejaVuSans-5f" x="359.814453"/>
      <use xlink:href="#DejaVuSans-52" x="409.814453"/>
      <use xlink:href="#DejaVuSans-20" x="479.296875"/>
      <use xlink:href="#DejaVuSans-63" x="511.083984"/>
      <use xlink:href="#DejaVuSans-75" x="566.064453"/>
      <use xlink:href="#DejaVuSans-72" x="629.443359"/>
      <use xlink:href="#DejaVuSans-76" x="670.556641"/>
      <use xlink:href="#DejaVuSans-65" x="729.736328"/>
      <use xlink:href="#DejaVuSans-28" x="791.259766"/>
      <use xlink:href="#DejaVuSans-61" x="830.273438"/>
      <use xlink:href="#DejaVuSans-72" x="891.552734"/>
      <use xlink:href="#DejaVuSans-65" x="930.416016"/>
      <use xlink:href="#DejaVuSans-61" x="991.939453"/>
      <use xlink:href="#DejaVuSans-3d" x="1053.21875"/>
      <use xlink:href="#DejaVuSans-30" x="1137.007812"/>
      <use xlink:href="#DejaVuSans-2e" x="1200.630859"/>
      <use xlink:href="#DejaVuSans-38" x="1232.417969"/>
      <use xlink:href="#DejaVuSans-30" x="1296.041016"/>
      <use xlink:href="#DejaVuSans-30" x="1359.664062"/>
      <use xlink:href="#DejaVuSans-34" x="1423.287109"/>
      <use xlink:href="#DejaVuSans-29" x="1486.910156"/>
     </g>
    </g>
   </g>
  </g>
 </g>
 <defs>
  <clipPath id="pac143b675c">
   <rect x="57.6" y="41.472" width="357.12" height="266.112"/>
  </clipPath>
 </defs>
</svg>
