<?xml version="1.0" encoding="utf-8" standalone="no"?>
<!DOCTYPE svg PUBLIC "-//W3C//DTD SVG 1.1//EN"
  "http://www.w3.org/Graphics/SVG/1.1/DTD/svg11.dtd">
<svg xmlns:xlink="http://www.w3.org/1999/xlink" width="460.8pt" height="345.6pt" viewBox="0 0 460.8 345.6" xmlns="http://www.w3.org/2000/svg" version="1.1">
 <metadata>
  <rdf:RDF xmlns:dc="http://purl.org/dc/elements/1.1/" xmlns:cc="http://creativecommons.org/ns#" xmlns:rdf="http://www.w3.org/1999/02/22-rdf-syntax-ns#">
   <cc:Work>
    <dc:type rdf:resource="http://purl.org/dc/dcmitype/StillImage"/>
    <dc:date>2022-09-16T14:02:16.872032</dc:date>
    <dc:format>image/svg+xml</dc:format>
    <dc:creator>
     <cc:Agent>
      <dc:title>Matplotlib v3.5.2, https://matplotlib.org/</dc:title>
     </cc:Agent>
    </dc:creator>
   </cc:Work>
  </rdf:RDF>
 </metadata>
 <defs>
  <style type="text/css">*{stroke-linejoin: round; stroke-linecap: butt}</style>
 </defs>
 <g id="figure_1">
  <g id="patch_1">
   <path d="M 0 345.6 
L 460.8 345.6 
L 460.8 0 
L 0 0 
z
" style="fill: #ffffff"/>
  </g>
  <g id="axes_1">
   <g id="patch_2">
    <path d="M 57.6 307.584 
L 414.72 307.584 
L 414.72 41.472 
L 57.6 41.472 
z
" style="fill: #ffffff"/>
   </g>
   <g id="matplotlib.axis_1">
    <g id="xtick_1">
     <g id="line2d_1">
      <defs>
       <path id="m60aa988184" d="M 0 0 
L 0 3.5 
" style="stroke: #000000; stroke-width: 0.8"/>
      </defs>
      <g>
       <use xlink:href="#m60aa988184" x="57.6" y="307.584" style="stroke: #000000; stroke-width: 0.8"/>
      </g>
     </g>
     <g id="text_1">
      <!-- 0.0 -->
      <g transform="translate(49.648438 322.182437)scale(0.1 -0.1)">
       <defs>
        <path id="DejaVuSans-30" d="M 2034 4250 
Q 1547 4250 1301 3770 
Q 1056 3291 1056 2328 
Q 1056 1369 1301 889 
Q 1547 409 2034 409 
Q 2525 409 2770 889 
Q 3016 1369 3016 2328 
Q 3016 3291 2770 3770 
Q 2525 4250 2034 4250 
z
M 2034 4750 
Q 2819 4750 3233 4129 
Q 3647 3509 3647 2328 
Q 3647 1150 3233 529 
Q 2819 -91 2034 -91 
Q 1250 -91 836 529 
Q 422 1150 422 2328 
Q 422 3509 836 4129 
Q 1250 4750 2034 4750 
z
" transform="scale(0.015625)"/>
        <path id="DejaVuSans-2e" d="M 684 794 
L 1344 794 
L 1344 0 
L 684 0 
L 684 794 
z
" transform="scale(0.015625)"/>
       </defs>
       <use xlink:href="#DejaVuSans-30"/>
       <use xlink:href="#DejaVuSans-2e" x="63.623047"/>
       <use xlink:href="#DejaVuSans-30" x="95.410156"/>
      </g>
     </g>
    </g>
    <g id="xtick_2">
     <g id="line2d_2">
      <g>
       <use xlink:href="#m60aa988184" x="129.024" y="307.584" style="stroke: #000000; stroke-width: 0.8"/>
      </g>
     </g>
     <g id="text_2">
      <!-- 0.2 -->
      <g transform="translate(121.072438 322.182437)scale(0.1 -0.1)">
       <defs>
        <path id="DejaVuSans-32" d="M 1228 531 
L 3431 531 
L 3431 0 
L 469 0 
L 469 531 
Q 828 903 1448 1529 
Q 2069 2156 2228 2338 
Q 2531 2678 2651 2914 
Q 2772 3150 2772 3378 
Q 2772 3750 2511 3984 
Q 2250 4219 1831 4219 
Q 1534 4219 1204 4116 
Q 875 4013 500 3803 
L 500 4441 
Q 881 4594 1212 4672 
Q 1544 4750 1819 4750 
Q 2544 4750 2975 4387 
Q 3406 4025 3406 3419 
Q 3406 3131 3298 2873 
Q 3191 2616 2906 2266 
Q 2828 2175 2409 1742 
Q 1991 1309 1228 531 
z
" transform="scale(0.015625)"/>
       </defs>
       <use xlink:href="#DejaVuSans-30"/>
       <use xlink:href="#DejaVuSans-2e" x="63.623047"/>
       <use xlink:href="#DejaVuSans-32" x="95.410156"/>
      </g>
     </g>
    </g>
    <g id="xtick_3">
     <g id="line2d_3">
      <g>
       <use xlink:href="#m60aa988184" x="200.448" y="307.584" style="stroke: #000000; stroke-width: 0.8"/>
      </g>
     </g>
     <g id="text_3">
      <!-- 0.4 -->
      <g transform="translate(192.496438 322.182437)scale(0.1 -0.1)">
       <defs>
        <path id="DejaVuSans-34" d="M 2419 4116 
L 825 1625 
L 2419 1625 
L 2419 4116 
z
M 2253 4666 
L 3047 4666 
L 3047 1625 
L 3713 1625 
L 3713 1100 
L 3047 1100 
L 3047 0 
L 2419 0 
L 2419 1100 
L 313 1100 
L 313 1709 
L 2253 4666 
z
" transform="scale(0.015625)"/>
       </defs>
       <use xlink:href="#DejaVuSans-30"/>
       <use xlink:href="#DejaVuSans-2e" x="63.623047"/>
       <use xlink:href="#DejaVuSans-34" x="95.410156"/>
      </g>
     </g>
    </g>
    <g id="xtick_4">
     <g id="line2d_4">
      <g>
       <use xlink:href="#m60aa988184" x="271.872" y="307.584" style="stroke: #000000; stroke-width: 0.8"/>
      </g>
     </g>
     <g id="text_4">
      <!-- 0.6 -->
      <g transform="translate(263.920438 322.182437)scale(0.1 -0.1)">
       <defs>
        <path id="DejaVuSans-36" d="M 2113 2584 
Q 1688 2584 1439 2293 
Q 1191 2003 1191 1497 
Q 1191 994 1439 701 
Q 1688 409 2113 409 
Q 2538 409 2786 701 
Q 3034 994 3034 1497 
Q 3034 2003 2786 2293 
Q 2538 2584 2113 2584 
z
M 3366 4563 
L 3366 3988 
Q 3128 4100 2886 4159 
Q 2644 4219 2406 4219 
Q 1781 4219 1451 3797 
Q 1122 3375 1075 2522 
Q 1259 2794 1537 2939 
Q 1816 3084 2150 3084 
Q 2853 3084 3261 2657 
Q 3669 2231 3669 1497 
Q 3669 778 3244 343 
Q 2819 -91 2113 -91 
Q 1303 -91 875 529 
Q 447 1150 447 2328 
Q 447 3434 972 4092 
Q 1497 4750 2381 4750 
Q 2619 4750 2861 4703 
Q 3103 4656 3366 4563 
z
" transform="scale(0.015625)"/>
       </defs>
       <use xlink:href="#DejaVuSans-30"/>
       <use xlink:href="#DejaVuSans-2e" x="63.623047"/>
       <use xlink:href="#DejaVuSans-36" x="95.410156"/>
      </g>
     </g>
    </g>
    <g id="xtick_5">
     <g id="line2d_5">
      <g>
       <use xlink:href="#m60aa988184" x="343.296" y="307.584" style="stroke: #000000; stroke-width: 0.8"/>
      </g>
     </g>
     <g id="text_5">
      <!-- 0.8 -->
      <g transform="translate(335.344438 322.182437)scale(0.1 -0.1)">
       <defs>
        <path id="DejaVuSans-38" d="M 2034 2216 
Q 1584 2216 1326 1975 
Q 1069 1734 1069 1313 
Q 1069 891 1326 650 
Q 1584 409 2034 409 
Q 2484 409 2743 651 
Q 3003 894 3003 1313 
Q 3003 1734 2745 1975 
Q 2488 2216 2034 2216 
z
M 1403 2484 
Q 997 2584 770 2862 
Q 544 3141 544 3541 
Q 544 4100 942 4425 
Q 1341 4750 2034 4750 
Q 2731 4750 3128 4425 
Q 3525 4100 3525 3541 
Q 3525 3141 3298 2862 
Q 3072 2584 2669 2484 
Q 3125 2378 3379 2068 
Q 3634 1759 3634 1313 
Q 3634 634 3220 271 
Q 2806 -91 2034 -91 
Q 1263 -91 848 271 
Q 434 634 434 1313 
Q 434 1759 690 2068 
Q 947 2378 1403 2484 
z
M 1172 3481 
Q 1172 3119 1398 2916 
Q 1625 2713 2034 2713 
Q 2441 2713 2670 2916 
Q 2900 3119 2900 3481 
Q 2900 3844 2670 4047 
Q 2441 4250 2034 4250 
Q 1625 4250 1398 4047 
Q 1172 3844 1172 3481 
z
" transform="scale(0.015625)"/>
       </defs>
       <use xlink:href="#DejaVuSans-30"/>
       <use xlink:href="#DejaVuSans-2e" x="63.623047"/>
       <use xlink:href="#DejaVuSans-38" x="95.410156"/>
      </g>
     </g>
    </g>
    <g id="xtick_6">
     <g id="line2d_6">
      <g>
       <use xlink:href="#m60aa988184" x="414.72" y="307.584" style="stroke: #000000; stroke-width: 0.8"/>
      </g>
     </g>
     <g id="text_6">
      <!-- 1.0 -->
      <g transform="translate(406.768438 322.182437)scale(0.1 -0.1)">
       <defs>
        <path id="DejaVuSans-31" d="M 794 531 
L 1825 531 
L 1825 4091 
L 703 3866 
L 703 4441 
L 1819 4666 
L 2450 4666 
L 2450 531 
L 3481 531 
L 3481 0 
L 794 0 
L 794 531 
z
" transform="scale(0.015625)"/>
       </defs>
       <use xlink:href="#DejaVuSans-31"/>
       <use xlink:href="#DejaVuSans-2e" x="63.623047"/>
       <use xlink:href="#DejaVuSans-30" x="95.410156"/>
      </g>
     </g>
    </g>
    <g id="text_7">
     <!-- False Positive Rate -->
     <g transform="translate(189.693594 335.860562)scale(0.1 -0.1)">
      <defs>
       <path id="DejaVuSans-46" d="M 628 4666 
L 3309 4666 
L 3309 4134 
L 1259 4134 
L 1259 2759 
L 3109 2759 
L 3109 2228 
L 1259 2228 
L 1259 0 
L 628 0 
L 628 4666 
z
" transform="scale(0.015625)"/>
       <path id="DejaVuSans-61" d="M 2194 1759 
Q 1497 1759 1228 1600 
Q 959 1441 959 1056 
Q 959 750 1161 570 
Q 1363 391 1709 391 
Q 2188 391 2477 730 
Q 2766 1069 2766 1631 
L 2766 1759 
L 2194 1759 
z
M 3341 1997 
L 3341 0 
L 2766 0 
L 2766 531 
Q 2569 213 2275 61 
Q 1981 -91 1556 -91 
Q 1019 -91 701 211 
Q 384 513 384 1019 
Q 384 1609 779 1909 
Q 1175 2209 1959 2209 
L 2766 2209 
L 2766 2266 
Q 2766 2663 2505 2880 
Q 2244 3097 1772 3097 
Q 1472 3097 1187 3025 
Q 903 2953 641 2809 
L 641 3341 
Q 956 3463 1253 3523 
Q 1550 3584 1831 3584 
Q 2591 3584 2966 3190 
Q 3341 2797 3341 1997 
z
" transform="scale(0.015625)"/>
       <path id="DejaVuSans-6c" d="M 603 4863 
L 1178 4863 
L 1178 0 
L 603 0 
L 603 4863 
z
" transform="scale(0.015625)"/>
       <path id="DejaVuSans-73" d="M 2834 3397 
L 2834 2853 
Q 2591 2978 2328 3040 
Q 2066 3103 1784 3103 
Q 1356 3103 1142 2972 
Q 928 2841 928 2578 
Q 928 2378 1081 2264 
Q 1234 2150 1697 2047 
L 1894 2003 
Q 2506 1872 2764 1633 
Q 3022 1394 3022 966 
Q 3022 478 2636 193 
Q 2250 -91 1575 -91 
Q 1294 -91 989 -36 
Q 684 19 347 128 
L 347 722 
Q 666 556 975 473 
Q 1284 391 1588 391 
Q 1994 391 2212 530 
Q 2431 669 2431 922 
Q 2431 1156 2273 1281 
Q 2116 1406 1581 1522 
L 1381 1569 
Q 847 1681 609 1914 
Q 372 2147 372 2553 
Q 372 3047 722 3315 
Q 1072 3584 1716 3584 
Q 2034 3584 2315 3537 
Q 2597 3491 2834 3397 
z
" transform="scale(0.015625)"/>
       <path id="DejaVuSans-65" d="M 3597 1894 
L 3597 1613 
L 953 1613 
Q 991 1019 1311 708 
Q 1631 397 2203 397 
Q 2534 397 2845 478 
Q 3156 559 3463 722 
L 3463 178 
Q 3153 47 2828 -22 
Q 2503 -91 2169 -91 
Q 1331 -91 842 396 
Q 353 884 353 1716 
Q 353 2575 817 3079 
Q 1281 3584 2069 3584 
Q 2775 3584 3186 3129 
Q 3597 2675 3597 1894 
z
M 3022 2063 
Q 3016 2534 2758 2815 
Q 2500 3097 2075 3097 
Q 1594 3097 1305 2825 
Q 1016 2553 972 2059 
L 3022 2063 
z
" transform="scale(0.015625)"/>
       <path id="DejaVuSans-20" transform="scale(0.015625)"/>
       <path id="DejaVuSans-50" d="M 1259 4147 
L 1259 2394 
L 2053 2394 
Q 2494 2394 2734 2622 
Q 2975 2850 2975 3272 
Q 2975 3691 2734 3919 
Q 2494 4147 2053 4147 
L 1259 4147 
z
M 628 4666 
L 2053 4666 
Q 2838 4666 3239 4311 
Q 3641 3956 3641 3272 
Q 3641 2581 3239 2228 
Q 2838 1875 2053 1875 
L 1259 1875 
L 1259 0 
L 628 0 
L 628 4666 
z
" transform="scale(0.015625)"/>
       <path id="DejaVuSans-6f" d="M 1959 3097 
Q 1497 3097 1228 2736 
Q 959 2375 959 1747 
Q 959 1119 1226 758 
Q 1494 397 1959 397 
Q 2419 397 2687 759 
Q 2956 1122 2956 1747 
Q 2956 2369 2687 2733 
Q 2419 3097 1959 3097 
z
M 1959 3584 
Q 2709 3584 3137 3096 
Q 3566 2609 3566 1747 
Q 3566 888 3137 398 
Q 2709 -91 1959 -91 
Q 1206 -91 779 398 
Q 353 888 353 1747 
Q 353 2609 779 3096 
Q 1206 3584 1959 3584 
z
" transform="scale(0.015625)"/>
       <path id="DejaVuSans-69" d="M 603 3500 
L 1178 3500 
L 1178 0 
L 603 0 
L 603 3500 
z
M 603 4863 
L 1178 4863 
L 1178 4134 
L 603 4134 
L 603 4863 
z
" transform="scale(0.015625)"/>
       <path id="DejaVuSans-74" d="M 1172 4494 
L 1172 3500 
L 2356 3500 
L 2356 3053 
L 1172 3053 
L 1172 1153 
Q 1172 725 1289 603 
Q 1406 481 1766 481 
L 2356 481 
L 2356 0 
L 1766 0 
Q 1100 0 847 248 
Q 594 497 594 1153 
L 594 3053 
L 172 3053 
L 172 3500 
L 594 3500 
L 594 4494 
L 1172 4494 
z
" transform="scale(0.015625)"/>
       <path id="DejaVuSans-76" d="M 191 3500 
L 800 3500 
L 1894 563 
L 2988 3500 
L 3597 3500 
L 2284 0 
L 1503 0 
L 191 3500 
z
" transform="scale(0.015625)"/>
       <path id="DejaVuSans-52" d="M 2841 2188 
Q 3044 2119 3236 1894 
Q 3428 1669 3622 1275 
L 4263 0 
L 3584 0 
L 2988 1197 
Q 2756 1666 2539 1819 
Q 2322 1972 1947 1972 
L 1259 1972 
L 1259 0 
L 628 0 
L 628 4666 
L 2053 4666 
Q 2853 4666 3247 4331 
Q 3641 3997 3641 3322 
Q 3641 2881 3436 2590 
Q 3231 2300 2841 2188 
z
M 1259 4147 
L 1259 2491 
L 2053 2491 
Q 2509 2491 2742 2702 
Q 2975 2913 2975 3322 
Q 2975 3731 2742 3939 
Q 2509 4147 2053 4147 
L 1259 4147 
z
" transform="scale(0.015625)"/>
      </defs>
      <use xlink:href="#DejaVuSans-46"/>
      <use xlink:href="#DejaVuSans-61" x="48.394531"/>
      <use xlink:href="#DejaVuSans-6c" x="109.673828"/>
      <use xlink:href="#DejaVuSans-73" x="137.457031"/>
      <use xlink:href="#DejaVuSans-65" x="189.556641"/>
      <use xlink:href="#DejaVuSans-20" x="251.080078"/>
      <use xlink:href="#DejaVuSans-50" x="282.867188"/>
      <use xlink:href="#DejaVuSans-6f" x="339.544922"/>
      <use xlink:href="#DejaVuSans-73" x="400.726562"/>
      <use xlink:href="#DejaVuSans-69" x="452.826172"/>
      <use xlink:href="#DejaVuSans-74" x="480.609375"/>
      <use xlink:href="#DejaVuSans-69" x="519.818359"/>
      <use xlink:href="#DejaVuSans-76" x="547.601562"/>
      <use xlink:href="#DejaVuSans-65" x="606.78125"/>
      <use xlink:href="#DejaVuSans-20" x="668.304688"/>
      <use xlink:href="#DejaVuSans-52" x="700.091797"/>
      <use xlink:href="#DejaVuSans-61" x="767.324219"/>
      <use xlink:href="#DejaVuSans-74" x="828.603516"/>
      <use xlink:href="#DejaVuSans-65" x="867.8125"/>
     </g>
    </g>
   </g>
   <g id="matplotlib.axis_2">
    <g id="ytick_1">
     <g id="line2d_7">
      <defs>
       <path id="m6c0064ddcb" d="M 0 0 
L -3.5 0 
" style="stroke: #000000; stroke-width: 0.8"/>
      </defs>
      <g>
       <use xlink:href="#m6c0064ddcb" x="57.6" y="307.584" style="stroke: #000000; stroke-width: 0.8"/>
      </g>
     </g>
     <g id="text_8">
      <!-- 0.0 -->
      <g transform="translate(34.696875 311.383219)scale(0.1 -0.1)">
       <use xlink:href="#DejaVuSans-30"/>
       <use xlink:href="#DejaVuSans-2e" x="63.623047"/>
       <use xlink:href="#DejaVuSans-30" x="95.410156"/>
      </g>
     </g>
    </g>
    <g id="ytick_2">
     <g id="line2d_8">
      <g>
       <use xlink:href="#m6c0064ddcb" x="57.6" y="256.896" style="stroke: #000000; stroke-width: 0.8"/>
      </g>
     </g>
     <g id="text_9">
      <!-- 0.2 -->
      <g transform="translate(34.696875 260.695219)scale(0.1 -0.1)">
       <use xlink:href="#DejaVuSans-30"/>
       <use xlink:href="#DejaVuSans-2e" x="63.623047"/>
       <use xlink:href="#DejaVuSans-32" x="95.410156"/>
      </g>
     </g>
    </g>
    <g id="ytick_3">
     <g id="line2d_9">
      <g>
       <use xlink:href="#m6c0064ddcb" x="57.6" y="206.208" style="stroke: #000000; stroke-width: 0.8"/>
      </g>
     </g>
     <g id="text_10">
      <!-- 0.4 -->
      <g transform="translate(34.696875 210.007219)scale(0.1 -0.1)">
       <use xlink:href="#DejaVuSans-30"/>
       <use xlink:href="#DejaVuSans-2e" x="63.623047"/>
       <use xlink:href="#DejaVuSans-34" x="95.410156"/>
      </g>
     </g>
    </g>
    <g id="ytick_4">
     <g id="line2d_10">
      <g>
       <use xlink:href="#m6c0064ddcb" x="57.6" y="155.52" style="stroke: #000000; stroke-width: 0.8"/>
      </g>
     </g>
     <g id="text_11">
      <!-- 0.6 -->
      <g transform="translate(34.696875 159.319219)scale(0.1 -0.1)">
       <use xlink:href="#DejaVuSans-30"/>
       <use xlink:href="#DejaVuSans-2e" x="63.623047"/>
       <use xlink:href="#DejaVuSans-36" x="95.410156"/>
      </g>
     </g>
    </g>
    <g id="ytick_5">
     <g id="line2d_11">
      <g>
       <use xlink:href="#m6c0064ddcb" x="57.6" y="104.832" style="stroke: #000000; stroke-width: 0.8"/>
      </g>
     </g>
     <g id="text_12">
      <!-- 0.8 -->
      <g transform="translate(34.696875 108.631219)scale(0.1 -0.1)">
       <use xlink:href="#DejaVuSans-30"/>
       <use xlink:href="#DejaVuSans-2e" x="63.623047"/>
       <use xlink:href="#DejaVuSans-38" x="95.410156"/>
      </g>
     </g>
    </g>
    <g id="ytick_6">
     <g id="line2d_12">
      <g>
       <use xlink:href="#m6c0064ddcb" x="57.6" y="54.144" style="stroke: #000000; stroke-width: 0.8"/>
      </g>
     </g>
     <g id="text_13">
      <!-- 1.0 -->
      <g transform="translate(34.696875 57.943219)scale(0.1 -0.1)">
       <use xlink:href="#DejaVuSans-31"/>
       <use xlink:href="#DejaVuSans-2e" x="63.623047"/>
       <use xlink:href="#DejaVuSans-30" x="95.410156"/>
      </g>
     </g>
    </g>
    <g id="text_14">
     <!-- True Positive Rate -->
     <g transform="translate(28.617187 219.057687)rotate(-90)scale(0.1 -0.1)">
      <defs>
       <path id="DejaVuSans-54" d="M -19 4666 
L 3928 4666 
L 3928 4134 
L 2272 4134 
L 2272 0 
L 1638 0 
L 1638 4134 
L -19 4134 
L -19 4666 
z
" transform="scale(0.015625)"/>
       <path id="DejaVuSans-72" d="M 2631 2963 
Q 2534 3019 2420 3045 
Q 2306 3072 2169 3072 
Q 1681 3072 1420 2755 
Q 1159 2438 1159 1844 
L 1159 0 
L 581 0 
L 581 3500 
L 1159 3500 
L 1159 2956 
Q 1341 3275 1631 3429 
Q 1922 3584 2338 3584 
Q 2397 3584 2469 3576 
Q 2541 3569 2628 3553 
L 2631 2963 
z
" transform="scale(0.015625)"/>
       <path id="DejaVuSans-75" d="M 544 1381 
L 544 3500 
L 1119 3500 
L 1119 1403 
Q 1119 906 1312 657 
Q 1506 409 1894 409 
Q 2359 409 2629 706 
Q 2900 1003 2900 1516 
L 2900 3500 
L 3475 3500 
L 3475 0 
L 2900 0 
L 2900 538 
Q 2691 219 2414 64 
Q 2138 -91 1772 -91 
Q 1169 -91 856 284 
Q 544 659 544 1381 
z
M 1991 3584 
L 1991 3584 
z
" transform="scale(0.015625)"/>
      </defs>
      <use xlink:href="#DejaVuSans-54"/>
      <use xlink:href="#DejaVuSans-72" x="46.333984"/>
      <use xlink:href="#DejaVuSans-75" x="87.447266"/>
      <use xlink:href="#DejaVuSans-65" x="150.826172"/>
      <use xlink:href="#DejaVuSans-20" x="212.349609"/>
      <use xlink:href="#DejaVuSans-50" x="244.136719"/>
      <use xlink:href="#DejaVuSans-6f" x="300.814453"/>
      <use xlink:href="#DejaVuSans-73" x="361.996094"/>
      <use xlink:href="#DejaVuSans-69" x="414.095703"/>
      <use xlink:href="#DejaVuSans-74" x="441.878906"/>
      <use xlink:href="#DejaVuSans-69" x="481.087891"/>
      <use xlink:href="#DejaVuSans-76" x="508.871094"/>
      <use xlink:href="#DejaVuSans-65" x="568.050781"/>
      <use xlink:href="#DejaVuSans-20" x="629.574219"/>
      <use xlink:href="#DejaVuSans-52" x="661.361328"/>
      <use xlink:href="#DejaVuSans-61" x="728.59375"/>
      <use xlink:href="#DejaVuSans-74" x="789.873047"/>
      <use xlink:href="#DejaVuSans-65" x="829.082031"/>
     </g>
    </g>
   </g>
   <g id="line2d_13">
    <path d="M 57.6 307.584 
L 57.6 299.267316 
L 58.216788 299.267316 
L 58.216788 297.516435 
L 58.833575 297.078715 
L 58.833575 284.822549 
L 59.450363 284.822549 
L 59.450363 275.630425 
L 60.06715 275.630425 
L 60.06715 254.619855 
L 60.683938 254.619855 
L 60.683938 239.737368 
L 61.300725 239.737368 
L 61.300725 224.417161 
L 62.534301 224.417161 
L 62.534301 216.538197 
L 63.767876 216.538197 
L 63.767876 214.787316 
L 64.384663 214.787316 
L 64.384663 213.911876 
L 65.001451 213.911876 
L 65.001451 209.534674 
L 65.618238 209.534674 
L 65.618238 208.659233 
L 66.235026 208.659233 
L 66.235026 208.221513 
L 66.851813 208.221513 
L 66.851813 206.908352 
L 67.468601 206.908352 
L 67.468601 203.406591 
L 68.085389 203.406591 
L 68.085389 202.09343 
L 68.702176 202.09343 
L 68.702176 201.21799 
L 69.318964 201.21799 
L 69.318964 198.591668 
L 69.935751 198.591668 
L 69.935751 193.339026 
L 71.169326 193.339026 
L 71.169326 191.150425 
L 71.786114 191.150425 
L 71.786114 190.274984 
L 72.402902 190.274984 
L 72.402902 182.833741 
L 73.019689 182.833741 
L 73.019689 179.331979 
L 73.636477 179.331979 
L 73.636477 177.143378 
L 74.253264 177.143378 
L 74.253264 173.641617 
L 75.486839 173.641617 
L 75.486839 171.890736 
L 76.103627 171.890736 
L 76.103627 171.453016 
L 76.720415 171.453016 
L 76.720415 171.015295 
L 77.95399 171.015295 
L 77.95399 169.702135 
L 78.570777 169.702135 
L 78.570777 165.324933 
L 79.187565 165.324933 
L 79.187565 164.449492 
L 79.804352 164.449492 
L 79.804352 163.574052 
L 80.42114 163.574052 
L 80.42114 161.823171 
L 82.271503 161.823171 
L 82.271503 161.385451 
L 83.505078 161.385451 
L 83.505078 160.947731 
L 84.738653 160.947731 
L 84.738653 160.51001 
L 85.35544 160.51001 
L 85.35544 157.883689 
L 86.589016 157.883689 
L 86.589016 155.257368 
L 87.205803 155.257368 
L 87.205803 154.381927 
L 87.822591 154.381927 
L 87.822591 153.506487 
L 88.439378 153.506487 
L 88.439378 152.631047 
L 89.056166 152.631047 
L 89.056166 152.193326 
L 89.672953 152.193326 
L 89.672953 150.880166 
L 90.289741 150.880166 
L 90.289741 149.567005 
L 91.523316 149.567005 
L 91.523316 149.129285 
L 92.140104 149.129285 
L 92.140104 148.691565 
L 92.756891 148.691565 
L 92.756891 147.378404 
L 93.373679 147.378404 
L 93.373679 145.627523 
L 94.607254 145.627523 
L 94.607254 144.752083 
L 96.457617 144.752083 
L 96.457617 142.563482 
L 97.074404 142.563482 
L 97.074404 140.374881 
L 97.691192 140.374881 
L 97.691192 139.06172 
L 98.307979 139.06172 
L 98.307979 138.18628 
L 99.541554 138.18628 
L 99.541554 137.74856 
L 100.77513 137.74856 
L 100.77513 135.997679 
L 101.391917 135.997679 
L 101.391917 135.559959 
L 102.008705 135.559959 
L 102.008705 134.246798 
L 103.24228 134.246798 
L 103.24228 133.809078 
L 104.475855 133.809078 
L 104.475855 132.058197 
L 105.092642 132.058197 
L 105.092642 131.620477 
L 105.70943 131.620477 
L 105.70943 129.431876 
L 106.326218 129.431876 
L 106.326218 128.556435 
L 106.943005 128.556435 
L 106.943005 128.118715 
L 107.559793 128.118715 
L 107.559793 126.805554 
L 108.793368 126.805554 
L 108.793368 126.367834 
L 110.643731 126.367834 
L 110.643731 123.741513 
L 112.494093 123.741513 
L 112.494093 123.303793 
L 113.110881 123.303793 
L 113.110881 122.866073 
L 115.578031 122.866073 
L 115.578031 121.115192 
L 116.811606 121.115192 
L 116.811606 119.364311 
L 119.895544 119.364311 
L 119.895544 118.926591 
L 120.512332 118.926591 
L 120.512332 117.61343 
L 121.129119 117.61343 
L 121.129119 114.987109 
L 122.362694 114.987109 
L 122.362694 114.111668 
L 125.446632 114.111668 
L 125.446632 113.236228 
L 126.06342 113.236228 
L 126.06342 111.485347 
L 127.913782 111.485347 
L 127.913782 109.734466 
L 128.53057 109.734466 
L 128.53057 109.296746 
L 129.147358 109.296746 
L 129.147358 107.545865 
L 129.764145 107.545865 
L 129.764145 106.670425 
L 130.99772 106.670425 
L 130.99772 104.919544 
L 131.614508 104.919544 
L 131.614508 104.481824 
L 132.231295 104.481824 
L 132.231295 104.044104 
L 133.46487 104.044104 
L 133.46487 103.606383 
L 134.081658 103.606383 
L 134.081658 102.730943 
L 136.548808 102.730943 
L 136.548808 102.293223 
L 137.165596 102.293223 
L 137.165596 101.855503 
L 139.632746 101.855503 
L 139.632746 101.417782 
L 140.249534 101.417782 
L 140.249534 100.980062 
L 140.866321 100.980062 
L 140.866321 100.542342 
L 142.716684 100.542342 
L 142.716684 100.104622 
L 143.333472 100.104622 
L 143.333472 99.229181 
L 143.950259 99.229181 
L 143.950259 97.04058 
L 146.417409 97.04058 
L 146.417409 96.60286 
L 150.118135 96.60286 
L 150.118135 95.72742 
L 151.35171 95.72742 
L 151.35171 94.414259 
L 151.968497 94.414259 
L 151.968497 93.976539 
L 153.202073 93.976539 
L 153.202073 93.101098 
L 153.81886 93.101098 
L 153.81886 92.663378 
L 155.669223 92.663378 
L 155.669223 92.225658 
L 156.28601 92.225658 
L 156.28601 91.787938 
L 158.136373 91.787938 
L 158.136373 91.350218 
L 158.753161 91.350218 
L 158.753161 90.474777 
L 159.986736 90.474777 
L 159.986736 90.037057 
L 161.837098 90.037057 
L 161.837098 89.161617 
L 162.453886 89.161617 
L 162.453886 88.723896 
L 166.154611 88.723896 
L 166.154611 88.286176 
L 168.004974 88.286176 
L 168.004974 87.410736 
L 168.621762 87.410736 
L 168.621762 85.222135 
L 169.855337 85.222135 
L 169.855337 84.784415 
L 170.472124 84.784415 
L 170.472124 84.346694 
L 173.556062 84.346694 
L 173.556062 83.471254 
L 174.789637 83.471254 
L 174.789637 83.033534 
L 175.406425 83.033534 
L 175.406425 82.595813 
L 176.023212 82.595813 
L 176.023212 81.720373 
L 176.64 81.720373 
L 176.64 80.844933 
L 177.256788 80.844933 
L 177.256788 80.407212 
L 179.723938 80.407212 
L 179.723938 79.531772 
L 185.275026 79.531772 
L 185.275026 78.656332 
L 187.742176 78.656332 
L 187.742176 77.780891 
L 188.358964 77.780891 
L 188.358964 76.905451 
L 190.209326 76.905451 
L 190.209326 76.467731 
L 191.442902 76.467731 
L 191.442902 75.59229 
L 192.059689 75.59229 
L 192.059689 74.27913 
L 194.526839 74.27913 
L 194.526839 72.528249 
L 197.610777 72.528249 
L 197.610777 72.090528 
L 198.844352 72.090528 
L 198.844352 71.652808 
L 199.46114 71.652808 
L 199.46114 71.215088 
L 201.311503 71.215088 
L 201.311503 70.777368 
L 201.92829 70.777368 
L 201.92829 70.339648 
L 202.545078 70.339648 
L 202.545078 69.901927 
L 206.245803 69.901927 
L 206.245803 69.464207 
L 207.479378 69.464207 
L 207.479378 68.588767 
L 209.329741 68.588767 
L 209.329741 68.151047 
L 211.180104 68.151047 
L 211.180104 67.713326 
L 211.796891 67.713326 
L 211.796891 67.275606 
L 213.030466 67.275606 
L 213.030466 65.962446 
L 214.264041 65.962446 
L 214.264041 65.524725 
L 216.731192 65.524725 
L 216.731192 65.087005 
L 219.198342 65.087005 
L 219.198342 64.211565 
L 224.74943 64.211565 
L 224.74943 63.773845 
L 227.833368 63.773845 
L 227.833368 63.336124 
L 229.683731 63.336124 
L 229.683731 62.898404 
L 236.468394 62.898404 
L 236.468394 62.460684 
L 237.085181 62.460684 
L 237.085181 62.022964 
L 242.636269 62.022964 
L 242.636269 61.585244 
L 245.720207 61.585244 
L 245.720207 61.147523 
L 247.57057 61.147523 
L 247.57057 60.709803 
L 249.420933 60.709803 
L 249.420933 60.272083 
L 261.756684 60.272083 
L 261.756684 59.834363 
L 263.607047 59.834363 
L 263.607047 58.958922 
L 264.223834 58.958922 
L 264.223834 58.521202 
L 273.475648 58.521202 
L 273.475648 57.645762 
L 282.727461 57.645762 
L 282.727461 57.208041 
L 284.577824 57.208041 
L 284.577824 56.770321 
L 292.596062 56.770321 
L 292.596062 55.894881 
L 305.548601 55.894881 
L 305.548601 55.457161 
L 308.632539 55.457161 
L 308.632539 55.01944 
L 309.866114 55.01944 
L 309.866114 54.58172 
L 340.705492 54.58172 
L 340.705492 54.144 
L 414.72 54.144 
L 414.72 54.144 
" clip-path="url(#pc6599f7042)" style="fill: none; stroke-dasharray: 7.4,3.2; stroke-dashoffset: 0; stroke: #ff0000; stroke-width: 2"/>
   </g>
   <g id="line2d_14">
    <path d="M 57.6 307.584 
L 57.6 301.455917 
L 58.216788 301.455917 
L 58.216788 298.829596 
L 58.833575 298.829596 
L 58.833575 292.701513 
L 59.450363 292.701513 
L 59.450363 266.876021 
L 60.06715 266.876021 
L 60.06715 255.057575 
L 60.683938 255.057575 
L 60.683938 253.744415 
L 61.300725 253.744415 
L 61.300725 250.680373 
L 61.917513 250.680373 
L 61.917513 247.616332 
L 62.534301 247.616332 
L 62.534301 246.303171 
L 64.384663 246.303171 
L 64.384663 240.612808 
L 65.001451 240.612808 
L 65.001451 240.175088 
L 65.618238 240.175088 
L 65.618238 238.424207 
L 66.235026 238.424207 
L 66.235026 236.235606 
L 66.851813 236.235606 
L 66.851813 235.360166 
L 67.468601 235.360166 
L 67.468601 232.733845 
L 68.085389 232.733845 
L 68.085389 230.545244 
L 68.702176 230.545244 
L 68.702176 225.292601 
L 69.318964 225.292601 
L 69.318964 224.417161 
L 69.935751 224.417161 
L 69.935751 220.477679 
L 70.552539 220.477679 
L 70.552539 216.975917 
L 71.169326 216.975917 
L 71.169326 213.911876 
L 71.786114 213.911876 
L 71.786114 211.723275 
L 72.402902 211.723275 
L 72.402902 209.534674 
L 73.019689 209.534674 
L 73.019689 206.470632 
L 73.636477 206.470632 
L 73.636477 200.780269 
L 74.253264 200.780269 
L 74.253264 195.527627 
L 74.870052 195.527627 
L 74.870052 195.089907 
L 75.486839 195.089907 
L 75.486839 192.901306 
L 76.103627 192.901306 
L 76.103627 191.588145 
L 77.95399 191.588145 
L 77.95399 191.150425 
L 78.570777 191.150425 
L 78.570777 189.399544 
L 79.187565 189.399544 
L 79.187565 185.897782 
L 79.804352 185.897782 
L 79.804352 183.271461 
L 81.037927 183.271461 
L 81.037927 182.396021 
L 83.505078 182.396021 
L 83.505078 181.52058 
L 84.738653 181.52058 
L 84.738653 179.769699 
L 85.35544 179.769699 
L 85.35544 179.331979 
L 85.972228 179.331979 
L 85.972228 178.894259 
L 86.589016 178.894259 
L 86.589016 177.581098 
L 87.205803 177.581098 
L 87.205803 176.267938 
L 87.822591 176.267938 
L 87.822591 173.641617 
L 88.439378 173.641617 
L 88.439378 173.203896 
L 89.056166 173.203896 
L 89.056166 172.328456 
L 89.672953 172.328456 
L 89.672953 171.890736 
L 92.140104 171.890736 
L 92.140104 170.139855 
L 92.756891 170.139855 
L 92.756891 169.702135 
L 93.373679 169.702135 
L 93.373679 168.826694 
L 95.224041 168.826694 
L 95.224041 168.388974 
L 96.457617 168.388974 
L 96.457617 167.951254 
L 97.074404 167.951254 
L 97.074404 167.075813 
L 98.307979 167.075813 
L 98.307979 164.449492 
L 98.924767 164.449492 
L 98.924767 163.136332 
L 99.541554 163.136332 
L 99.541554 161.385451 
L 100.158342 161.385451 
L 100.158342 160.51001 
L 100.77513 160.51001 
L 100.77513 159.19685 
L 102.008705 159.19685 
L 102.008705 156.570528 
L 102.625492 156.570528 
L 102.625492 155.695088 
L 103.24228 155.695088 
L 103.24228 153.944207 
L 103.859067 153.944207 
L 103.859067 150.880166 
L 105.092642 150.880166 
L 105.092642 149.129285 
L 105.70943 149.129285 
L 105.70943 148.691565 
L 106.326218 148.691565 
L 106.326218 146.502964 
L 106.943005 146.502964 
L 106.943005 144.752083 
L 107.559793 144.752083 
L 107.559793 143.438922 
L 108.17658 143.438922 
L 108.17658 143.001202 
L 108.793368 143.001202 
L 108.793368 142.125762 
L 109.410155 142.125762 
L 109.410155 140.374881 
L 110.026943 140.374881 
L 110.026943 139.937161 
L 110.643731 139.937161 
L 110.643731 138.624 
L 111.260518 138.624 
L 111.260518 137.74856 
L 112.494093 137.74856 
L 112.494093 136.873119 
L 113.110881 136.873119 
L 113.110881 135.997679 
L 115.578031 135.997679 
L 115.578031 135.559959 
L 116.811606 135.559959 
L 116.811606 134.684518 
L 118.045181 134.684518 
L 118.045181 132.058197 
L 118.661969 132.058197 
L 118.661969 130.307316 
L 121.129119 130.307316 
L 121.129119 129.869596 
L 121.745907 129.869596 
L 121.745907 129.431876 
L 122.979482 129.431876 
L 122.979482 128.994155 
L 123.596269 128.994155 
L 123.596269 128.556435 
L 124.213057 128.556435 
L 124.213057 128.118715 
L 126.680207 128.118715 
L 126.680207 127.680995 
L 128.53057 127.680995 
L 128.53057 127.243275 
L 129.147358 127.243275 
L 129.147358 126.367834 
L 130.380933 126.367834 
L 130.380933 125.054674 
L 135.315233 125.054674 
L 135.315233 124.616953 
L 135.932021 124.616953 
L 135.932021 123.741513 
L 136.548808 123.741513 
L 136.548808 123.303793 
L 137.782383 123.303793 
L 137.782383 122.866073 
L 138.399171 122.866073 
L 138.399171 122.428352 
L 139.015959 122.428352 
L 139.015959 121.990632 
L 140.249534 121.990632 
L 140.249534 121.115192 
L 140.866321 121.115192 
L 140.866321 120.677472 
L 141.483109 120.677472 
L 141.483109 120.239751 
L 142.099896 120.239751 
L 142.099896 119.802031 
L 142.716684 119.802031 
L 142.716684 119.364311 
L 144.567047 119.364311 
L 144.567047 118.926591 
L 145.183834 118.926591 
L 145.183834 118.48887 
L 147.034197 118.48887 
L 147.034197 118.05115 
L 148.267772 118.05115 
L 148.267772 117.61343 
L 149.501347 117.61343 
L 149.501347 115.862549 
L 150.734922 115.862549 
L 150.734922 114.987109 
L 151.35171 114.987109 
L 151.35171 114.549389 
L 152.585285 114.549389 
L 152.585285 113.673948 
L 153.81886 113.673948 
L 153.81886 112.798508 
L 154.435648 112.798508 
L 154.435648 112.360788 
L 159.986736 112.360788 
L 159.986736 111.923067 
L 161.837098 111.923067 
L 161.837098 111.485347 
L 162.453886 111.485347 
L 162.453886 110.609907 
L 163.687461 110.609907 
L 163.687461 110.172187 
L 165.537824 110.172187 
L 165.537824 109.734466 
L 166.771399 109.734466 
L 166.771399 108.859026 
L 168.004974 108.859026 
L 168.004974 108.421306 
L 169.855337 108.421306 
L 169.855337 107.108145 
L 171.088912 107.108145 
L 171.088912 106.670425 
L 172.322487 106.670425 
L 172.322487 106.232705 
L 172.939275 106.232705 
L 172.939275 105.357264 
L 173.556062 105.357264 
L 173.556062 104.919544 
L 174.17285 104.919544 
L 174.17285 104.481824 
L 175.406425 104.481824 
L 175.406425 104.044104 
L 176.023212 104.044104 
L 176.023212 103.168663 
L 179.723938 103.168663 
L 179.723938 102.730943 
L 182.191088 102.730943 
L 182.191088 101.855503 
L 183.424663 101.855503 
L 183.424663 101.417782 
L 184.041451 101.417782 
L 184.041451 100.542342 
L 184.658238 100.542342 
L 184.658238 99.666902 
L 185.891813 99.666902 
L 185.891813 99.229181 
L 187.742176 99.229181 
L 187.742176 97.478301 
L 192.059689 97.478301 
L 192.059689 97.04058 
L 193.293264 97.04058 
L 193.293264 96.16514 
L 194.526839 96.16514 
L 194.526839 95.72742 
L 198.844352 95.72742 
L 198.844352 95.289699 
L 199.46114 95.289699 
L 199.46114 94.851979 
L 200.694715 94.851979 
L 200.694715 94.414259 
L 201.311503 94.414259 
L 201.311503 93.976539 
L 201.92829 93.976539 
L 201.92829 93.101098 
L 202.545078 93.101098 
L 202.545078 91.787938 
L 203.778653 91.787938 
L 203.778653 90.474777 
L 204.39544 90.474777 
L 204.39544 90.037057 
L 205.012228 90.037057 
L 205.012228 89.599337 
L 208.096166 89.599337 
L 208.096166 88.723896 
L 210.563316 88.723896 
L 210.563316 88.286176 
L 213.647254 88.286176 
L 213.647254 86.097575 
L 214.264041 86.097575 
L 214.264041 85.659855 
L 215.497617 85.659855 
L 215.497617 85.222135 
L 216.731192 85.222135 
L 216.731192 84.784415 
L 217.347979 84.784415 
L 217.347979 83.908974 
L 217.964767 83.908974 
L 217.964767 83.033534 
L 219.198342 83.033534 
L 219.198342 82.595813 
L 219.81513 82.595813 
L 219.81513 82.158093 
L 222.28228 82.158093 
L 222.28228 81.720373 
L 222.899067 81.720373 
L 222.899067 81.282653 
L 224.74943 81.282653 
L 224.74943 80.844933 
L 227.21658 80.844933 
L 227.21658 79.969492 
L 229.066943 79.969492 
L 229.066943 78.656332 
L 232.150881 78.656332 
L 232.150881 78.218611 
L 233.384456 78.218611 
L 233.384456 77.343171 
L 234.618031 77.343171 
L 234.618031 76.905451 
L 235.851606 76.905451 
L 235.851606 76.467731 
L 237.701969 76.467731 
L 237.701969 74.27913 
L 240.169119 74.27913 
L 240.169119 72.965969 
L 240.785907 72.965969 
L 240.785907 72.528249 
L 241.402694 72.528249 
L 241.402694 71.215088 
L 242.636269 71.215088 
L 242.636269 70.777368 
L 243.869845 70.777368 
L 243.869845 70.339648 
L 246.336995 70.339648 
L 246.336995 69.901927 
L 247.57057 69.901927 
L 247.57057 69.464207 
L 250.03772 69.464207 
L 250.03772 68.588767 
L 251.888083 68.588767 
L 251.888083 68.151047 
L 253.121658 68.151047 
L 253.121658 67.713326 
L 253.738446 67.713326 
L 253.738446 67.275606 
L 254.972021 67.275606 
L 254.972021 66.837886 
L 258.055959 66.837886 
L 258.055959 65.524725 
L 260.523109 65.524725 
L 260.523109 65.087005 
L 261.139896 65.087005 
L 261.139896 64.649285 
L 261.756684 64.649285 
L 261.756684 64.211565 
L 264.840622 64.211565 
L 264.840622 63.773845 
L 266.074197 63.773845 
L 266.074197 63.336124 
L 268.541347 63.336124 
L 268.541347 62.898404 
L 271.625285 62.898404 
L 271.625285 62.460684 
L 275.32601 62.460684 
L 275.32601 62.022964 
L 275.942798 62.022964 
L 275.942798 61.585244 
L 280.877098 61.585244 
L 280.877098 60.709803 
L 282.727461 60.709803 
L 282.727461 60.272083 
L 283.344249 60.272083 
L 283.344249 59.834363 
L 296.296788 59.834363 
L 296.296788 59.396642 
L 308.015751 59.396642 
L 308.015751 58.083482 
L 311.716477 58.083482 
L 311.716477 57.645762 
L 332.070466 57.645762 
L 332.070466 57.208041 
L 337.004767 57.208041 
L 337.004767 56.770321 
L 338.238342 56.770321 
L 338.238342 56.332601 
L 340.088705 56.332601 
L 340.088705 55.457161 
L 346.25658 55.457161 
L 346.25658 55.01944 
L 348.106943 55.01944 
L 348.106943 54.58172 
L 361.059482 54.58172 
L 361.059482 54.144 
L 414.72 54.144 
L 414.72 54.144 
" clip-path="url(#pc6599f7042)" style="fill: none; stroke-dasharray: 7.4,3.2; stroke-dashoffset: 0; stroke: #008000; stroke-width: 2"/>
   </g>
   <g id="line2d_15">
    <path d="M 57.6 307.584 
L 57.6 283.947109 
L 58.833575 260.310218 
L 58.833575 259.872497 
L 58.833575 240.612808 
L 58.833575 240.175088 
L 58.833575 222.22856 
L 59.450363 222.22856 
L 59.450363 221.790839 
L 59.450363 209.534674 
L 59.450363 209.096953 
L 59.450363 196.840788 
L 59.450363 196.403067 
L 59.450363 189.837264 
L 59.450363 189.399544 
L 59.450363 188.524104 
L 60.06715 180.20742 
L 60.06715 171.453016 
L 62.534301 164.887212 
L 62.534301 164.449492 
L 62.534301 156.570528 
L 64.384663 149.129285 
L 64.384663 148.691565 
L 65.001451 139.937161 
L 65.618238 139.937161 
L 65.618238 133.809078 
L 65.618238 133.371358 
L 66.851813 128.118715 
L 67.468601 122.866073 
L 68.702176 117.17571 
L 69.935751 107.545865 
L 69.935751 103.168663 
L 74.870052 98.353741 
L 74.870052 97.916021 
L 77.337202 94.414259 
L 77.95399 94.414259 
L 79.804352 90.474777 
L 79.804352 90.037057 
L 82.271503 86.535295 
L 82.88829 86.535295 
L 87.205803 84.784415 
L 91.523316 81.282653 
L 93.990466 76.467731 
L 99.541554 73.403689 
L 99.541554 72.965969 
L 100.158342 72.965969 
L 106.943005 69.901927 
L 112.494093 66.400166 
L 113.110881 66.400166 
L 119.895544 65.087005 
L 126.06342 63.773845 
L 134.081658 62.460684 
L 142.716684 60.709803 
L 150.734922 59.396642 
L 155.052435 58.521202 
L 155.669223 58.521202 
L 162.453886 57.645762 
L 163.070674 57.645762 
L 172.939275 55.894881 
L 182.807876 55.457161 
L 194.526839 55.01944 
L 195.760415 55.01944 
L 208.096166 54.144 
L 214.264041 54.144 
L 227.21658 54.144 
L 237.085181 54.144 
L 256.205596 54.144 
L 270.39171 54.144 
L 288.895337 54.144 
L 289.512124 54.144 
L 310.482902 54.144 
L 338.238342 54.144 
L 362.909845 54.144 
L 390.665285 54.144 
L 414.72 54.144 
" clip-path="url(#pc6599f7042)" style="fill: none; stroke-dasharray: 7.4,3.2; stroke-dashoffset: 0; stroke: #0000ff; stroke-width: 2"/>
   </g>
   <g id="line2d_16">
    <path d="M 57.6 307.584 
L 57.6 289.637472 
L 58.216788 289.637472 
L 58.216788 287.886591 
L 58.833575 287.886591 
L 58.833575 282.196228 
L 59.450363 282.196228 
L 59.450363 273.441824 
L 60.06715 273.441824 
L 60.06715 254.619855 
L 60.683938 254.619855 
L 60.683938 243.23913 
L 61.300725 243.23913 
L 61.300725 238.424207 
L 61.917513 238.424207 
L 61.917513 221.353119 
L 62.534301 221.353119 
L 62.534301 220.039959 
L 63.151088 220.039959 
L 63.151088 205.157472 
L 63.767876 205.157472 
L 63.767876 204.719751 
L 64.384663 204.719751 
L 64.384663 175.392497 
L 65.001451 175.392497 
L 65.001451 172.766176 
L 66.235026 172.766176 
L 66.235026 163.574052 
L 66.851813 163.574052 
L 66.851813 157.445969 
L 67.468601 157.445969 
L 67.468601 154.381927 
L 68.085389 154.381927 
L 68.085389 153.944207 
L 68.702176 153.944207 
L 68.702176 144.314363 
L 69.318964 144.314363 
L 69.318964 141.688041 
L 69.935751 141.688041 
L 69.935751 140.374881 
L 70.552539 140.374881 
L 70.552539 131.182756 
L 71.169326 131.182756 
L 71.169326 119.802031 
L 71.786114 119.802031 
L 71.786114 118.48887 
L 72.402902 118.48887 
L 72.402902 109.296746 
L 73.019689 109.296746 
L 73.019689 107.108145 
L 75.486839 107.108145 
L 75.486839 106.670425 
L 76.720415 106.670425 
L 76.720415 106.232705 
L 77.337202 106.232705 
L 77.337202 105.794984 
L 78.570777 105.794984 
L 78.570777 103.606383 
L 80.42114 103.606383 
L 80.42114 103.168663 
L 81.037927 103.168663 
L 81.037927 102.730943 
L 81.654715 102.730943 
L 81.654715 102.293223 
L 82.271503 102.293223 
L 82.271503 100.104622 
L 82.88829 100.104622 
L 82.88829 98.353741 
L 84.121865 98.353741 
L 84.121865 96.60286 
L 85.35544 96.60286 
L 85.35544 94.851979 
L 85.972228 94.851979 
L 85.972228 93.976539 
L 86.589016 93.976539 
L 86.589016 93.538819 
L 87.205803 93.538819 
L 87.205803 91.787938 
L 87.822591 91.787938 
L 87.822591 91.350218 
L 88.439378 91.350218 
L 88.439378 90.912497 
L 90.289741 90.912497 
L 90.289741 89.599337 
L 90.906528 89.599337 
L 90.906528 89.161617 
L 91.523316 89.161617 
L 91.523316 88.723896 
L 92.756891 88.723896 
L 92.756891 88.286176 
L 94.607254 88.286176 
L 94.607254 87.848456 
L 95.224041 87.848456 
L 95.224041 87.410736 
L 95.840829 87.410736 
L 95.840829 83.471254 
L 96.457617 83.471254 
L 96.457617 82.158093 
L 98.924767 82.158093 
L 98.924767 80.844933 
L 100.158342 80.844933 
L 100.158342 80.407212 
L 102.008705 80.407212 
L 102.008705 79.969492 
L 105.092642 79.969492 
L 105.092642 78.656332 
L 105.70943 78.656332 
L 105.70943 78.218611 
L 106.326218 78.218611 
L 106.326218 76.03001 
L 106.943005 76.03001 
L 106.943005 75.59229 
L 108.17658 75.59229 
L 108.17658 74.71685 
L 108.793368 74.71685 
L 108.793368 74.27913 
L 110.643731 74.27913 
L 110.643731 72.528249 
L 112.494093 72.528249 
L 112.494093 72.090528 
L 113.110881 72.090528 
L 113.110881 70.777368 
L 114.344456 70.777368 
L 114.344456 70.339648 
L 114.961244 70.339648 
L 114.961244 69.464207 
L 115.578031 69.464207 
L 115.578031 69.026487 
L 116.194819 69.026487 
L 116.194819 68.588767 
L 119.278756 68.588767 
L 119.278756 68.151047 
L 119.895544 68.151047 
L 119.895544 67.275606 
L 121.745907 67.275606 
L 121.745907 66.400166 
L 122.979482 66.400166 
L 122.979482 65.524725 
L 123.596269 65.524725 
L 123.596269 65.087005 
L 127.296995 65.087005 
L 127.296995 64.649285 
L 128.53057 64.649285 
L 128.53057 64.211565 
L 129.764145 64.211565 
L 129.764145 63.773845 
L 130.380933 63.773845 
L 130.380933 63.336124 
L 132.231295 63.336124 
L 132.231295 62.898404 
L 137.165596 62.898404 
L 137.165596 62.460684 
L 144.567047 62.460684 
L 144.567047 61.585244 
L 145.800622 61.585244 
L 145.800622 61.147523 
L 151.35171 61.147523 
L 151.35171 60.709803 
L 152.585285 60.709803 
L 152.585285 59.396642 
L 153.202073 59.396642 
L 153.202073 58.958922 
L 154.435648 58.958922 
L 154.435648 58.521202 
L 155.669223 58.521202 
L 155.669223 57.645762 
L 156.902798 57.645762 
L 156.902798 57.208041 
L 161.220311 57.208041 
L 161.220311 56.770321 
L 163.687461 56.770321 
L 163.687461 56.332601 
L 187.125389 56.332601 
L 187.125389 55.894881 
L 191.442902 55.894881 
L 191.442902 55.457161 
L 211.796891 55.457161 
L 211.796891 55.01944 
L 282.110674 55.01944 
L 282.110674 54.58172 
L 288.895337 54.58172 
L 288.895337 54.144 
L 414.72 54.144 
L 414.72 54.144 
" clip-path="url(#pc6599f7042)" style="fill: none; stroke-dasharray: 7.4,3.2; stroke-dashoffset: 0; stroke: #00bfbf; stroke-width: 2"/>
   </g>
   <g id="line2d_17">
    <path d="M 57.6 307.584 
L 57.6 307.14628 
L 58.833575 307.14628 
L 58.833575 304.519959 
L 59.450363 304.519959 
L 59.450363 293.576953 
L 60.06715 293.576953 
L 60.06715 292.263793 
L 60.683938 292.263793 
L 60.683938 291.826073 
L 61.917513 291.826073 
L 61.917513 288.762031 
L 62.534301 288.762031 
L 62.534301 287.44887 
L 63.151088 287.44887 
L 63.151088 287.01115 
L 63.767876 287.01115 
L 63.767876 280.445347 
L 64.384663 280.445347 
L 64.384663 276.505865 
L 65.001451 276.505865 
L 65.001451 275.192705 
L 65.618238 275.192705 
L 65.618238 274.754984 
L 66.235026 274.754984 
L 66.235026 274.317264 
L 66.851813 274.317264 
L 66.851813 271.690943 
L 67.468601 271.690943 
L 67.468601 266.438301 
L 68.085389 266.438301 
L 68.085389 262.498819 
L 69.318964 262.498819 
L 69.318964 261.185658 
L 69.935751 261.185658 
L 69.935751 242.801409 
L 70.552539 242.801409 
L 70.552539 229.232083 
L 71.169326 229.232083 
L 71.169326 207.346073 
L 71.786114 207.346073 
L 71.786114 188.961824 
L 72.402902 188.961824 
L 72.402902 183.271461 
L 73.019689 183.271461 
L 73.019689 181.08286 
L 73.636477 181.08286 
L 73.636477 172.328456 
L 74.253264 172.328456 
L 74.253264 160.947731 
L 74.870052 160.947731 
L 74.870052 159.19685 
L 75.486839 159.19685 
L 75.486839 156.570528 
L 76.720415 156.570528 
L 76.720415 153.506487 
L 77.337202 153.506487 
L 77.337202 153.068767 
L 78.570777 153.068767 
L 78.570777 150.004725 
L 79.187565 150.004725 
L 79.187565 149.129285 
L 79.804352 149.129285 
L 79.804352 146.940684 
L 80.42114 146.940684 
L 80.42114 145.189803 
L 81.654715 145.189803 
L 81.654715 144.314363 
L 82.271503 144.314363 
L 82.271503 143.876642 
L 82.88829 143.876642 
L 82.88829 141.250321 
L 83.505078 141.250321 
L 83.505078 139.49944 
L 84.121865 139.49944 
L 84.121865 139.06172 
L 85.35544 139.06172 
L 85.35544 137.74856 
L 85.972228 137.74856 
L 85.972228 137.310839 
L 87.205803 137.310839 
L 87.205803 135.997679 
L 88.439378 135.997679 
L 88.439378 134.246798 
L 89.672953 134.246798 
L 89.672953 133.371358 
L 90.289741 133.371358 
L 90.289741 132.495917 
L 92.140104 132.495917 
L 92.140104 131.620477 
L 92.756891 131.620477 
L 92.756891 131.182756 
L 93.373679 131.182756 
L 93.373679 128.556435 
L 94.607254 128.556435 
L 94.607254 126.805554 
L 95.224041 126.805554 
L 95.224041 126.367834 
L 95.840829 126.367834 
L 95.840829 125.930114 
L 96.457617 125.930114 
L 96.457617 122.866073 
L 98.307979 122.866073 
L 98.307979 122.428352 
L 98.924767 122.428352 
L 98.924767 121.990632 
L 100.158342 121.990632 
L 100.158342 119.802031 
L 100.77513 119.802031 
L 100.77513 119.364311 
L 102.625492 119.364311 
L 102.625492 118.926591 
L 103.859067 118.926591 
L 103.859067 118.48887 
L 105.70943 118.48887 
L 105.70943 117.61343 
L 106.326218 117.61343 
L 106.326218 114.987109 
L 108.17658 114.987109 
L 108.17658 113.673948 
L 108.793368 113.673948 
L 108.793368 113.236228 
L 110.026943 113.236228 
L 110.026943 109.734466 
L 111.260518 109.734466 
L 111.260518 108.859026 
L 112.494093 108.859026 
L 112.494093 108.421306 
L 113.110881 108.421306 
L 113.110881 107.983585 
L 114.344456 107.983585 
L 114.344456 106.670425 
L 115.578031 106.670425 
L 115.578031 104.919544 
L 116.194819 104.919544 
L 117.428394 104.481824 
L 118.045181 104.481824 
L 118.045181 103.606383 
L 118.661969 103.606383 
L 118.661969 103.168663 
L 119.278756 103.168663 
L 119.278756 101.855503 
L 121.129119 101.855503 
L 121.129119 100.542342 
L 121.745907 100.542342 
L 121.745907 100.104622 
L 123.596269 100.104622 
L 123.596269 99.229181 
L 124.213057 99.229181 
L 124.213057 98.353741 
L 125.446632 98.353741 
L 125.446632 97.916021 
L 131.614508 97.916021 
L 131.614508 97.478301 
L 132.231295 97.478301 
L 132.231295 96.60286 
L 133.46487 96.60286 
L 133.46487 96.16514 
L 134.081658 96.16514 
L 134.081658 94.851979 
L 134.698446 94.851979 
L 134.698446 93.101098 
L 135.315233 93.101098 
L 135.315233 92.663378 
L 136.548808 92.663378 
L 136.548808 90.912497 
L 137.782383 90.912497 
L 137.782383 90.037057 
L 138.399171 90.037057 
L 138.399171 89.599337 
L 139.015959 89.599337 
L 139.015959 89.161617 
L 140.866321 89.161617 
L 140.866321 87.848456 
L 143.333472 87.848456 
L 143.333472 87.410736 
L 145.800622 87.410736 
L 145.800622 85.659855 
L 146.417409 85.659855 
L 146.417409 85.222135 
L 147.034197 85.222135 
L 147.034197 84.784415 
L 151.35171 84.784415 
L 151.35171 84.346694 
L 151.968497 84.346694 
L 151.968497 83.471254 
L 153.202073 83.471254 
L 153.202073 83.033534 
L 156.902798 83.033534 
L 156.902798 81.720373 
L 159.369948 81.720373 
L 159.369948 81.282653 
L 161.220311 81.282653 
L 161.220311 80.407212 
L 164.304249 80.407212 
L 164.304249 79.969492 
L 164.921036 79.969492 
L 164.921036 76.905451 
L 166.771399 76.905451 
L 166.771399 76.467731 
L 169.855337 76.467731 
L 169.855337 75.15457 
L 170.472124 75.15457 
L 170.472124 74.71685 
L 173.556062 74.71685 
L 173.556062 74.27913 
L 174.17285 74.27913 
L 174.17285 73.841409 
L 174.789637 73.841409 
L 174.789637 73.403689 
L 175.406425 73.403689 
L 175.406425 71.652808 
L 176.64 71.652808 
L 176.64 70.777368 
L 179.10715 70.777368 
L 179.10715 70.339648 
L 180.957513 70.339648 
L 180.957513 69.464207 
L 182.191088 69.464207 
L 182.191088 69.026487 
L 185.891813 69.026487 
L 185.891813 68.151047 
L 188.975751 68.151047 
L 188.975751 66.400166 
L 192.676477 66.400166 
L 192.676477 65.524725 
L 196.377202 65.524725 
L 196.377202 65.087005 
L 196.99399 65.087005 
L 196.99399 64.649285 
L 200.694715 64.649285 
L 200.694715 63.773845 
L 206.862591 63.773845 
L 206.862591 63.336124 
L 208.096166 63.336124 
L 208.096166 62.898404 
L 208.712953 62.898404 
L 208.712953 62.460684 
L 213.030466 62.460684 
L 213.030466 62.022964 
L 216.114404 62.022964 
L 216.114404 61.585244 
L 235.234819 61.585244 
L 235.234819 61.147523 
L 259.906321 61.147523 
L 259.906321 60.709803 
L 295.063212 60.709803 
L 295.063212 60.272083 
L 323.43544 60.272083 
L 323.43544 59.834363 
L 333.304041 59.834363 
L 333.304041 59.396642 
L 336.387979 59.396642 
L 336.387979 58.958922 
L 340.088705 58.958922 
L 340.088705 58.521202 
L 340.705492 58.521202 
L 340.705492 58.083482 
L 349.340518 58.083482 
L 349.340518 57.645762 
L 359.209119 57.645762 
L 359.209119 57.208041 
L 366.61057 57.208041 
L 366.61057 56.770321 
L 368.460933 56.770321 
L 368.460933 56.332601 
L 370.928083 56.332601 
L 370.928083 55.894881 
L 371.54487 55.894881 
L 371.54487 55.457161 
L 372.161658 55.457161 
L 372.161658 55.01944 
L 376.479171 55.01944 
L 376.479171 54.58172 
L 393.749223 54.58172 
L 393.749223 54.144 
L 414.72 54.144 
L 414.72 54.144 
" clip-path="url(#pc6599f7042)" style="fill: none; stroke-dasharray: 7.4,3.2; stroke-dashoffset: 0; stroke: #bf00bf; stroke-width: 2"/>
   </g>
   <g id="line2d_18">
    <path d="M 57.6 307.584 
L 57.6 276.943585 
L 58.216788 276.943585 
L 58.216788 264.68742 
L 58.833575 264.68742 
L 58.833575 261.623378 
L 59.450363 261.623378 
L 59.450363 261.185658 
L 60.06715 261.185658 
L 60.06715 235.360166 
L 60.683938 235.360166 
L 60.683938 234.922446 
L 61.300725 234.922446 
L 61.300725 230.982964 
L 61.917513 230.982964 
L 61.917513 227.043482 
L 62.534301 227.043482 
L 62.534301 224.417161 
L 63.767876 224.417161 
L 63.767876 223.97944 
L 65.001451 223.97944 
L 65.001451 221.790839 
L 65.618238 221.790839 
L 65.618238 215.662756 
L 66.235026 215.662756 
L 66.235026 212.160995 
L 66.851813 212.160995 
L 66.851813 211.285554 
L 67.468601 211.285554 
L 67.468601 208.659233 
L 68.085389 208.659233 
L 68.085389 208.221513 
L 68.702176 208.221513 
L 68.702176 205.595192 
L 69.318964 205.595192 
L 69.318964 199.029389 
L 69.935751 199.029389 
L 69.935751 198.153948 
L 70.552539 198.153948 
L 70.552539 194.652187 
L 71.169326 194.652187 
L 71.169326 192.901306 
L 71.786114 192.901306 
L 71.786114 192.463585 
L 72.402902 192.463585 
L 72.402902 187.648663 
L 73.019689 187.648663 
L 73.019689 185.022342 
L 73.636477 185.022342 
L 73.636477 181.08286 
L 74.870052 181.08286 
L 74.870052 179.331979 
L 75.486839 179.331979 
L 75.486839 172.766176 
L 76.103627 172.766176 
L 76.103627 171.453016 
L 76.720415 171.453016 
L 76.720415 170.139855 
L 77.95399 170.139855 
L 77.95399 169.702135 
L 78.570777 169.702135 
L 78.570777 169.264415 
L 79.187565 169.264415 
L 79.187565 164.449492 
L 80.42114 164.449492 
L 80.42114 163.574052 
L 81.654715 163.574052 
L 81.654715 162.698611 
L 82.271503 162.698611 
L 82.271503 161.823171 
L 82.88829 161.823171 
L 82.88829 160.947731 
L 83.505078 160.947731 
L 83.505078 158.75913 
L 84.121865 158.75913 
L 84.121865 156.570528 
L 85.972228 156.570528 
L 85.972228 150.880166 
L 86.589016 150.880166 
L 86.589016 144.314363 
L 87.205803 144.314363 
L 87.205803 143.876642 
L 87.822591 143.876642 
L 87.822591 139.49944 
L 88.439378 139.49944 
L 88.439378 139.06172 
L 89.056166 139.06172 
L 89.056166 138.624 
L 89.672953 138.624 
L 89.672953 136.873119 
L 90.289741 136.873119 
L 90.289741 135.997679 
L 92.140104 135.997679 
L 92.140104 135.559959 
L 92.756891 135.559959 
L 92.756891 135.122238 
L 94.607254 135.122238 
L 94.607254 133.809078 
L 96.457617 133.809078 
L 96.457617 133.371358 
L 97.074404 133.371358 
L 97.074404 132.933637 
L 98.924767 132.933637 
L 98.924767 132.058197 
L 99.541554 132.058197 
L 99.541554 131.620477 
L 100.77513 131.620477 
L 100.77513 131.182756 
L 101.391917 131.182756 
L 101.391917 130.745036 
L 102.625492 130.745036 
L 102.625492 130.307316 
L 103.24228 130.307316 
L 103.24228 129.431876 
L 103.859067 129.431876 
L 103.859067 128.994155 
L 104.475855 128.994155 
L 104.475855 127.680995 
L 107.559793 127.680995 
L 107.559793 126.805554 
L 110.643731 126.805554 
L 110.643731 126.367834 
L 111.877306 126.367834 
L 111.877306 125.492394 
L 112.494093 125.492394 
L 112.494093 124.179233 
L 113.727668 124.179233 
L 113.727668 121.552912 
L 114.961244 121.552912 
L 114.961244 120.677472 
L 116.194819 120.677472 
L 116.194819 120.239751 
L 116.811606 120.239751 
L 116.811606 119.802031 
L 118.045181 119.802031 
L 118.045181 118.48887 
L 118.661969 118.48887 
L 118.661969 117.17571 
L 119.278756 117.17571 
L 119.278756 115.424829 
L 119.895544 115.424829 
L 119.895544 114.549389 
L 122.362694 114.549389 
L 122.362694 114.111668 
L 122.979482 114.111668 
L 122.979482 113.673948 
L 123.596269 113.673948 
L 123.596269 112.798508 
L 126.680207 112.798508 
L 126.680207 112.360788 
L 128.53057 112.360788 
L 128.53057 111.485347 
L 129.147358 111.485347 
L 129.147358 110.172187 
L 129.764145 110.172187 
L 129.764145 109.296746 
L 130.380933 109.296746 
L 130.380933 108.421306 
L 130.99772 108.421306 
L 130.99772 107.983585 
L 131.614508 107.983585 
L 131.614508 107.108145 
L 132.231295 107.108145 
L 132.231295 106.232705 
L 132.848083 106.232705 
L 132.848083 105.357264 
L 133.46487 105.357264 
L 133.46487 103.168663 
L 134.698446 103.168663 
L 134.698446 100.542342 
L 135.315233 100.542342 
L 135.315233 100.104622 
L 137.165596 100.104622 
L 137.165596 99.666902 
L 137.782383 99.666902 
L 137.782383 99.229181 
L 141.483109 99.229181 
L 141.483109 98.791461 
L 142.716684 98.791461 
L 142.716684 98.353741 
L 143.950259 98.353741 
L 143.950259 96.16514 
L 144.567047 96.16514 
L 144.567047 95.72742 
L 146.417409 95.72742 
L 146.417409 95.289699 
L 147.034197 95.289699 
L 147.034197 93.538819 
L 148.88456 93.538819 
L 148.88456 92.663378 
L 149.501347 92.663378 
L 149.501347 92.225658 
L 150.118135 92.225658 
L 150.118135 91.787938 
L 151.968497 91.787938 
L 151.968497 91.350218 
L 153.202073 91.350218 
L 153.202073 90.474777 
L 153.81886 90.474777 
L 153.81886 89.161617 
L 154.435648 89.161617 
L 154.435648 88.723896 
L 155.052435 88.723896 
L 155.052435 88.286176 
L 156.28601 88.286176 
L 156.28601 87.848456 
L 158.753161 87.848456 
L 158.753161 86.097575 
L 159.369948 86.097575 
L 159.369948 85.659855 
L 161.220311 85.659855 
L 161.220311 85.222135 
L 163.070674 85.222135 
L 163.070674 83.471254 
L 164.921036 83.471254 
L 164.921036 83.033534 
L 166.771399 83.033534 
L 166.771399 82.158093 
L 167.388187 82.158093 
L 167.388187 81.720373 
L 169.238549 81.720373 
L 169.238549 81.282653 
L 169.855337 81.282653 
L 169.855337 80.844933 
L 171.088912 80.844933 
L 171.088912 80.407212 
L 172.322487 80.407212 
L 172.322487 79.969492 
L 172.939275 79.969492 
L 172.939275 79.531772 
L 173.556062 79.531772 
L 173.556062 78.656332 
L 174.789637 78.656332 
L 174.789637 77.343171 
L 176.023212 77.343171 
L 176.023212 76.905451 
L 177.256788 76.905451 
L 177.256788 75.59229 
L 179.10715 75.59229 
L 179.10715 74.27913 
L 179.723938 74.27913 
L 179.723938 73.403689 
L 180.340725 73.403689 
L 180.340725 72.965969 
L 181.574301 72.965969 
L 181.574301 72.528249 
L 182.807876 72.528249 
L 182.807876 71.652808 
L 184.041451 71.652808 
L 184.041451 71.215088 
L 187.125389 71.215088 
L 187.125389 70.777368 
L 188.358964 70.777368 
L 188.358964 69.464207 
L 189.592539 69.464207 
L 189.592539 69.026487 
L 190.209326 69.026487 
L 190.209326 68.588767 
L 192.059689 68.588767 
L 192.059689 68.151047 
L 193.910052 68.151047 
L 193.910052 67.275606 
L 196.377202 67.275606 
L 196.377202 66.837886 
L 196.99399 66.837886 
L 196.99399 66.400166 
L 201.311503 66.400166 
L 201.311503 65.962446 
L 201.92829 65.962446 
L 201.92829 65.087005 
L 204.39544 65.087005 
L 204.39544 64.649285 
L 205.012228 64.649285 
L 205.012228 64.211565 
L 206.862591 64.211565 
L 206.862591 63.773845 
L 212.413679 63.773845 
L 212.413679 63.336124 
L 213.647254 63.336124 
L 213.647254 62.460684 
L 214.880829 62.460684 
L 214.880829 62.022964 
L 216.114404 62.022964 
L 216.114404 61.585244 
L 221.665492 61.585244 
L 221.665492 61.147523 
L 231.534093 61.147523 
L 231.534093 60.709803 
L 233.384456 60.709803 
L 233.384456 60.272083 
L 240.169119 60.272083 
L 240.169119 59.834363 
L 243.253057 59.834363 
L 243.253057 58.958922 
L 250.654508 58.958922 
L 250.654508 58.521202 
L 253.738446 58.521202 
L 253.738446 58.083482 
L 257.439171 58.083482 
L 257.439171 57.645762 
L 258.055959 57.645762 
L 258.055959 57.208041 
L 265.457409 57.208041 
L 265.457409 56.332601 
L 267.92456 56.332601 
L 267.92456 55.894881 
L 269.158135 55.894881 
L 269.158135 55.457161 
L 271.625285 55.457161 
L 271.625285 55.01944 
L 299.997513 55.01944 
L 299.997513 54.58172 
L 391.282073 54.58172 
L 391.282073 54.144 
L 414.72 54.144 
L 414.72 54.144 
" clip-path="url(#pc6599f7042)" style="fill: none; stroke-dasharray: 7.4,3.2; stroke-dashoffset: 0; stroke: #bfbf00; stroke-width: 2"/>
   </g>
   <g id="patch_3">
    <path d="M 57.6 307.584 
L 57.6 41.472 
" style="fill: none; stroke: #000000; stroke-width: 0.8; stroke-linejoin: miter; stroke-linecap: square"/>
   </g>
   <g id="patch_4">
    <path d="M 414.72 307.584 
L 414.72 41.472 
" style="fill: none; stroke: #000000; stroke-width: 0.8; stroke-linejoin: miter; stroke-linecap: square"/>
   </g>
   <g id="patch_5">
    <path d="M 57.6 307.584 
L 414.72 307.584 
" style="fill: none; stroke: #000000; stroke-width: 0.8; stroke-linejoin: miter; stroke-linecap: square"/>
   </g>
   <g id="patch_6">
    <path d="M 57.6 41.472 
L 414.72 41.472 
" style="fill: none; stroke: #000000; stroke-width: 0.8; stroke-linejoin: miter; stroke-linecap: square"/>
   </g>
   <g id="text_15">
    <!-- Receiver operating characteristic  -->
    <g transform="translate(134.6925 35.472)scale(0.12 -0.12)">
     <defs>
      <path id="DejaVuSans-63" d="M 3122 3366 
L 3122 2828 
Q 2878 2963 2633 3030 
Q 2388 3097 2138 3097 
Q 1578 3097 1268 2742 
Q 959 2388 959 1747 
Q 959 1106 1268 751 
Q 1578 397 2138 397 
Q 2388 397 2633 464 
Q 2878 531 3122 666 
L 3122 134 
Q 2881 22 2623 -34 
Q 2366 -91 2075 -91 
Q 1284 -91 818 406 
Q 353 903 353 1747 
Q 353 2603 823 3093 
Q 1294 3584 2113 3584 
Q 2378 3584 2631 3529 
Q 2884 3475 3122 3366 
z
" transform="scale(0.015625)"/>
      <path id="DejaVuSans-70" d="M 1159 525 
L 1159 -1331 
L 581 -1331 
L 581 3500 
L 1159 3500 
L 1159 2969 
Q 1341 3281 1617 3432 
Q 1894 3584 2278 3584 
Q 2916 3584 3314 3078 
Q 3713 2572 3713 1747 
Q 3713 922 3314 415 
Q 2916 -91 2278 -91 
Q 1894 -91 1617 61 
Q 1341 213 1159 525 
z
M 3116 1747 
Q 3116 2381 2855 2742 
Q 2594 3103 2138 3103 
Q 1681 3103 1420 2742 
Q 1159 2381 1159 1747 
Q 1159 1113 1420 752 
Q 1681 391 2138 391 
Q 2594 391 2855 752 
Q 3116 1113 3116 1747 
z
" transform="scale(0.015625)"/>
      <path id="DejaVuSans-6e" d="M 3513 2113 
L 3513 0 
L 2938 0 
L 2938 2094 
Q 2938 2591 2744 2837 
Q 2550 3084 2163 3084 
Q 1697 3084 1428 2787 
Q 1159 2491 1159 1978 
L 1159 0 
L 581 0 
L 581 3500 
L 1159 3500 
L 1159 2956 
Q 1366 3272 1645 3428 
Q 1925 3584 2291 3584 
Q 2894 3584 3203 3211 
Q 3513 2838 3513 2113 
z
" transform="scale(0.015625)"/>
      <path id="DejaVuSans-67" d="M 2906 1791 
Q 2906 2416 2648 2759 
Q 2391 3103 1925 3103 
Q 1463 3103 1205 2759 
Q 947 2416 947 1791 
Q 947 1169 1205 825 
Q 1463 481 1925 481 
Q 2391 481 2648 825 
Q 2906 1169 2906 1791 
z
M 3481 434 
Q 3481 -459 3084 -895 
Q 2688 -1331 1869 -1331 
Q 1566 -1331 1297 -1286 
Q 1028 -1241 775 -1147 
L 775 -588 
Q 1028 -725 1275 -790 
Q 1522 -856 1778 -856 
Q 2344 -856 2625 -561 
Q 2906 -266 2906 331 
L 2906 616 
Q 2728 306 2450 153 
Q 2172 0 1784 0 
Q 1141 0 747 490 
Q 353 981 353 1791 
Q 353 2603 747 3093 
Q 1141 3584 1784 3584 
Q 2172 3584 2450 3431 
Q 2728 3278 2906 2969 
L 2906 3500 
L 3481 3500 
L 3481 434 
z
" transform="scale(0.015625)"/>
      <path id="DejaVuSans-68" d="M 3513 2113 
L 3513 0 
L 2938 0 
L 2938 2094 
Q 2938 2591 2744 2837 
Q 2550 3084 2163 3084 
Q 1697 3084 1428 2787 
Q 1159 2491 1159 1978 
L 1159 0 
L 581 0 
L 581 4863 
L 1159 4863 
L 1159 2956 
Q 1366 3272 1645 3428 
Q 1925 3584 2291 3584 
Q 2894 3584 3203 3211 
Q 3513 2838 3513 2113 
z
" transform="scale(0.015625)"/>
     </defs>
     <use xlink:href="#DejaVuSans-52"/>
     <use xlink:href="#DejaVuSans-65" x="64.982422"/>
     <use xlink:href="#DejaVuSans-63" x="126.505859"/>
     <use xlink:href="#DejaVuSans-65" x="181.486328"/>
     <use xlink:href="#DejaVuSans-69" x="243.009766"/>
     <use xlink:href="#DejaVuSans-76" x="270.792969"/>
     <use xlink:href="#DejaVuSans-65" x="329.972656"/>
     <use xlink:href="#DejaVuSans-72" x="391.496094"/>
     <use xlink:href="#DejaVuSans-20" x="432.609375"/>
     <use xlink:href="#DejaVuSans-6f" x="464.396484"/>
     <use xlink:href="#DejaVuSans-70" x="525.578125"/>
     <use xlink:href="#DejaVuSans-65" x="589.054688"/>
     <use xlink:href="#DejaVuSans-72" x="650.578125"/>
     <use xlink:href="#DejaVuSans-61" x="691.691406"/>
     <use xlink:href="#DejaVuSans-74" x="752.970703"/>
     <use xlink:href="#DejaVuSans-69" x="792.179688"/>
     <use xlink:href="#DejaVuSans-6e" x="819.962891"/>
     <use xlink:href="#DejaVuSans-67" x="883.341797"/>
     <use xlink:href="#DejaVuSans-20" x="946.818359"/>
     <use xlink:href="#DejaVuSans-63" x="978.605469"/>
     <use xlink:href="#DejaVuSans-68" x="1033.585938"/>
     <use xlink:href="#DejaVuSans-61" x="1096.964844"/>
     <use xlink:href="#DejaVuSans-72" x="1158.244141"/>
     <use xlink:href="#DejaVuSans-61" x="1199.357422"/>
     <use xlink:href="#DejaVuSans-63" x="1260.636719"/>
     <use xlink:href="#DejaVuSans-74" x="1315.617188"/>
     <use xlink:href="#DejaVuSans-65" x="1354.826172"/>
     <use xlink:href="#DejaVuSans-72" x="1416.349609"/>
     <use xlink:href="#DejaVuSans-69" x="1457.462891"/>
     <use xlink:href="#DejaVuSans-73" x="1485.246094"/>
     <use xlink:href="#DejaVuSans-74" x="1537.345703"/>
     <use xlink:href="#DejaVuSans-69" x="1576.554688"/>
     <use xlink:href="#DejaVuSans-63" x="1604.337891"/>
     <use xlink:href="#DejaVuSans-20" x="1659.318359"/>
    </g>
   </g>
   <g id="legend_1">
    <g id="patch_7">
     <path d="M 219.298125 302.584 
L 407.72 302.584 
Q 409.72 302.584 409.72 300.584 
L 409.72 211.8465 
Q 409.72 209.8465 407.72 209.8465 
L 219.298125 209.8465 
Q 217.298125 209.8465 217.298125 211.8465 
L 217.298125 300.584 
Q 217.298125 302.584 219.298125 302.584 
z
" style="fill: #ffffff; opacity: 0.8; stroke: #cccccc; stroke-linejoin: miter"/>
    </g>
    <g id="line2d_19">
     <path d="M 221.298125 217.944937 
L 231.298125 217.944937 
L 241.298125 217.944937 
" style="fill: none; stroke-dasharray: 7.4,3.2; stroke-dashoffset: 0; stroke: #ff0000; stroke-width: 2"/>
    </g>
    <g id="text_16">
     <!-- gbdt_ROC curve(area=0.8836) -->
     <g transform="translate(249.298125 221.444937)scale(0.1 -0.1)">
      <defs>
       <path id="DejaVuSans-62" d="M 3116 1747 
Q 3116 2381 2855 2742 
Q 2594 3103 2138 3103 
Q 1681 3103 1420 2742 
Q 1159 2381 1159 1747 
Q 1159 1113 1420 752 
Q 1681 391 2138 391 
Q 2594 391 2855 752 
Q 3116 1113 3116 1747 
z
M 1159 2969 
Q 1341 3281 1617 3432 
Q 1894 3584 2278 3584 
Q 2916 3584 3314 3078 
Q 3713 2572 3713 1747 
Q 3713 922 3314 415 
Q 2916 -91 2278 -91 
Q 1894 -91 1617 61 
Q 1341 213 1159 525 
L 1159 0 
L 581 0 
L 581 4863 
L 1159 4863 
L 1159 2969 
z
" transform="scale(0.015625)"/>
       <path id="DejaVuSans-64" d="M 2906 2969 
L 2906 4863 
L 3481 4863 
L 3481 0 
L 2906 0 
L 2906 525 
Q 2725 213 2448 61 
Q 2172 -91 1784 -91 
Q 1150 -91 751 415 
Q 353 922 353 1747 
Q 353 2572 751 3078 
Q 1150 3584 1784 3584 
Q 2172 3584 2448 3432 
Q 2725 3281 2906 2969 
z
M 947 1747 
Q 947 1113 1208 752 
Q 1469 391 1925 391 
Q 2381 391 2643 752 
Q 2906 1113 2906 1747 
Q 2906 2381 2643 2742 
Q 2381 3103 1925 3103 
Q 1469 3103 1208 2742 
Q 947 2381 947 1747 
z
" transform="scale(0.015625)"/>
       <path id="DejaVuSans-5f" d="M 3263 -1063 
L 3263 -1509 
L -63 -1509 
L -63 -1063 
L 3263 -1063 
z
" transform="scale(0.015625)"/>
       <path id="DejaVuSans-4f" d="M 2522 4238 
Q 1834 4238 1429 3725 
Q 1025 3213 1025 2328 
Q 1025 1447 1429 934 
Q 1834 422 2522 422 
Q 3209 422 3611 934 
Q 4013 1447 4013 2328 
Q 4013 3213 3611 3725 
Q 3209 4238 2522 4238 
z
M 2522 4750 
Q 3503 4750 4090 4092 
Q 4678 3434 4678 2328 
Q 4678 1225 4090 567 
Q 3503 -91 2522 -91 
Q 1538 -91 948 565 
Q 359 1222 359 2328 
Q 359 3434 948 4092 
Q 1538 4750 2522 4750 
z
" transform="scale(0.015625)"/>
       <path id="DejaVuSans-43" d="M 4122 4306 
L 4122 3641 
Q 3803 3938 3442 4084 
Q 3081 4231 2675 4231 
Q 1875 4231 1450 3742 
Q 1025 3253 1025 2328 
Q 1025 1406 1450 917 
Q 1875 428 2675 428 
Q 3081 428 3442 575 
Q 3803 722 4122 1019 
L 4122 359 
Q 3791 134 3420 21 
Q 3050 -91 2638 -91 
Q 1578 -91 968 557 
Q 359 1206 359 2328 
Q 359 3453 968 4101 
Q 1578 4750 2638 4750 
Q 3056 4750 3426 4639 
Q 3797 4528 4122 4306 
z
" transform="scale(0.015625)"/>
       <path id="DejaVuSans-28" d="M 1984 4856 
Q 1566 4138 1362 3434 
Q 1159 2731 1159 2009 
Q 1159 1288 1364 580 
Q 1569 -128 1984 -844 
L 1484 -844 
Q 1016 -109 783 600 
Q 550 1309 550 2009 
Q 550 2706 781 3412 
Q 1013 4119 1484 4856 
L 1984 4856 
z
" transform="scale(0.015625)"/>
       <path id="DejaVuSans-3d" d="M 678 2906 
L 4684 2906 
L 4684 2381 
L 678 2381 
L 678 2906 
z
M 678 1631 
L 4684 1631 
L 4684 1100 
L 678 1100 
L 678 1631 
z
" transform="scale(0.015625)"/>
       <path id="DejaVuSans-33" d="M 2597 2516 
Q 3050 2419 3304 2112 
Q 3559 1806 3559 1356 
Q 3559 666 3084 287 
Q 2609 -91 1734 -91 
Q 1441 -91 1130 -33 
Q 819 25 488 141 
L 488 750 
Q 750 597 1062 519 
Q 1375 441 1716 441 
Q 2309 441 2620 675 
Q 2931 909 2931 1356 
Q 2931 1769 2642 2001 
Q 2353 2234 1838 2234 
L 1294 2234 
L 1294 2753 
L 1863 2753 
Q 2328 2753 2575 2939 
Q 2822 3125 2822 3475 
Q 2822 3834 2567 4026 
Q 2313 4219 1838 4219 
Q 1578 4219 1281 4162 
Q 984 4106 628 3988 
L 628 4550 
Q 988 4650 1302 4700 
Q 1616 4750 1894 4750 
Q 2613 4750 3031 4423 
Q 3450 4097 3450 3541 
Q 3450 3153 3228 2886 
Q 3006 2619 2597 2516 
z
" transform="scale(0.015625)"/>
       <path id="DejaVuSans-29" d="M 513 4856 
L 1013 4856 
Q 1481 4119 1714 3412 
Q 1947 2706 1947 2009 
Q 1947 1309 1714 600 
Q 1481 -109 1013 -844 
L 513 -844 
Q 928 -128 1133 580 
Q 1338 1288 1338 2009 
Q 1338 2731 1133 3434 
Q 928 4138 513 4856 
z
" transform="scale(0.015625)"/>
      </defs>
      <use xlink:href="#DejaVuSans-67"/>
      <use xlink:href="#DejaVuSans-62" x="63.476562"/>
      <use xlink:href="#DejaVuSans-64" x="126.953125"/>
      <use xlink:href="#DejaVuSans-74" x="190.429688"/>
      <use xlink:href="#DejaVuSans-5f" x="229.638672"/>
      <use xlink:href="#DejaVuSans-52" x="279.638672"/>
      <use xlink:href="#DejaVuSans-4f" x="349.121094"/>
      <use xlink:href="#DejaVuSans-43" x="427.832031"/>
      <use xlink:href="#DejaVuSans-20" x="497.65625"/>
      <use xlink:href="#DejaVuSans-63" x="529.443359"/>
      <use xlink:href="#DejaVuSans-75" x="584.423828"/>
      <use xlink:href="#DejaVuSans-72" x="647.802734"/>
      <use xlink:href="#DejaVuSans-76" x="688.916016"/>
      <use xlink:href="#DejaVuSans-65" x="748.095703"/>
      <use xlink:href="#DejaVuSans-28" x="809.619141"/>
      <use xlink:href="#DejaVuSans-61" x="848.632812"/>
      <use xlink:href="#DejaVuSans-72" x="909.912109"/>
      <use xlink:href="#DejaVuSans-65" x="948.775391"/>
      <use xlink:href="#DejaVuSans-61" x="1010.298828"/>
      <use xlink:href="#DejaVuSans-3d" x="1071.578125"/>
      <use xlink:href="#DejaVuSans-30" x="1155.367188"/>
      <use xlink:href="#DejaVuSans-2e" x="1218.990234"/>
      <use xlink:href="#DejaVuSans-38" x="1250.777344"/>
      <use xlink:href="#DejaVuSans-38" x="1314.400391"/>
      <use xlink:href="#DejaVuSans-33" x="1378.023438"/>
      <use xlink:href="#DejaVuSans-36" x="1441.646484"/>
      <use xlink:href="#DejaVuSans-29" x="1505.269531"/>
     </g>
    </g>
    <g id="line2d_20">
     <path d="M 221.298125 232.901187 
L 231.298125 232.901187 
L 241.298125 232.901187 
" style="fill: none; stroke-dasharray: 7.4,3.2; stroke-dashoffset: 0; stroke: #008000; stroke-width: 2"/>
    </g>
    <g id="text_17">
     <!-- lr_ROC curve(area=0.8385) -->
     <g transform="translate(249.298125 236.401187)scale(0.1 -0.1)">
      <defs>
       <path id="DejaVuSans-35" d="M 691 4666 
L 3169 4666 
L 3169 4134 
L 1269 4134 
L 1269 2991 
Q 1406 3038 1543 3061 
Q 1681 3084 1819 3084 
Q 2600 3084 3056 2656 
Q 3513 2228 3513 1497 
Q 3513 744 3044 326 
Q 2575 -91 1722 -91 
Q 1428 -91 1123 -41 
Q 819 9 494 109 
L 494 744 
Q 775 591 1075 516 
Q 1375 441 1709 441 
Q 2250 441 2565 725 
Q 2881 1009 2881 1497 
Q 2881 1984 2565 2268 
Q 2250 2553 1709 2553 
Q 1456 2553 1204 2497 
Q 953 2441 691 2322 
L 691 4666 
z
" transform="scale(0.015625)"/>
      </defs>
      <use xlink:href="#DejaVuSans-6c"/>
      <use xlink:href="#DejaVuSans-72" x="27.783203"/>
      <use xlink:href="#DejaVuSans-5f" x="68.896484"/>
      <use xlink:href="#DejaVuSans-52" x="118.896484"/>
      <use xlink:href="#DejaVuSans-4f" x="188.378906"/>
      <use xlink:href="#DejaVuSans-43" x="267.089844"/>
      <use xlink:href="#DejaVuSans-20" x="336.914062"/>
      <use xlink:href="#DejaVuSans-63" x="368.701172"/>
      <use xlink:href="#DejaVuSans-75" x="423.681641"/>
      <use xlink:href="#DejaVuSans-72" x="487.060547"/>
      <use xlink:href="#DejaVuSans-76" x="528.173828"/>
      <use xlink:href="#DejaVuSans-65" x="587.353516"/>
      <use xlink:href="#DejaVuSans-28" x="648.876953"/>
      <use xlink:href="#DejaVuSans-61" x="687.890625"/>
      <use xlink:href="#DejaVuSans-72" x="749.169922"/>
      <use xlink:href="#DejaVuSans-65" x="788.033203"/>
      <use xlink:href="#DejaVuSans-61" x="849.556641"/>
      <use xlink:href="#DejaVuSans-3d" x="910.835938"/>
      <use xlink:href="#DejaVuSans-30" x="994.625"/>
      <use xlink:href="#DejaVuSans-2e" x="1058.248047"/>
      <use xlink:href="#DejaVuSans-38" x="1090.035156"/>
      <use xlink:href="#DejaVuSans-33" x="1153.658203"/>
      <use xlink:href="#DejaVuSans-38" x="1217.28125"/>
      <use xlink:href="#DejaVuSans-35" x="1280.904297"/>
      <use xlink:href="#DejaVuSans-29" x="1344.527344"/>
     </g>
    </g>
    <g id="line2d_21">
     <path d="M 221.298125 247.857437 
L 231.298125 247.857437 
L 241.298125 247.857437 
" style="fill: none; stroke-dasharray: 7.4,3.2; stroke-dashoffset: 0; stroke: #0000ff; stroke-width: 2"/>
    </g>
    <g id="text_18">
     <!-- rf_ROC curve(area=0.9675) -->
     <g transform="translate(249.298125 251.357437)scale(0.1 -0.1)">
      <defs>
       <path id="DejaVuSans-66" d="M 2375 4863 
L 2375 4384 
L 1825 4384 
Q 1516 4384 1395 4259 
Q 1275 4134 1275 3809 
L 1275 3500 
L 2222 3500 
L 2222 3053 
L 1275 3053 
L 1275 0 
L 697 0 
L 697 3053 
L 147 3053 
L 147 3500 
L 697 3500 
L 697 3744 
Q 697 4328 969 4595 
Q 1241 4863 1831 4863 
L 2375 4863 
z
" transform="scale(0.015625)"/>
       <path id="DejaVuSans-39" d="M 703 97 
L 703 672 
Q 941 559 1184 500 
Q 1428 441 1663 441 
Q 2288 441 2617 861 
Q 2947 1281 2994 2138 
Q 2813 1869 2534 1725 
Q 2256 1581 1919 1581 
Q 1219 1581 811 2004 
Q 403 2428 403 3163 
Q 403 3881 828 4315 
Q 1253 4750 1959 4750 
Q 2769 4750 3195 4129 
Q 3622 3509 3622 2328 
Q 3622 1225 3098 567 
Q 2575 -91 1691 -91 
Q 1453 -91 1209 -44 
Q 966 3 703 97 
z
M 1959 2075 
Q 2384 2075 2632 2365 
Q 2881 2656 2881 3163 
Q 2881 3666 2632 3958 
Q 2384 4250 1959 4250 
Q 1534 4250 1286 3958 
Q 1038 3666 1038 3163 
Q 1038 2656 1286 2365 
Q 1534 2075 1959 2075 
z
" transform="scale(0.015625)"/>
       <path id="DejaVuSans-37" d="M 525 4666 
L 3525 4666 
L 3525 4397 
L 1831 0 
L 1172 0 
L 2766 4134 
L 525 4134 
L 525 4666 
z
" transform="scale(0.015625)"/>
      </defs>
      <use xlink:href="#DejaVuSans-72"/>
      <use xlink:href="#DejaVuSans-66" x="41.113281"/>
      <use xlink:href="#DejaVuSans-5f" x="76.318359"/>
      <use xlink:href="#DejaVuSans-52" x="126.318359"/>
      <use xlink:href="#DejaVuSans-4f" x="195.800781"/>
      <use xlink:href="#DejaVuSans-43" x="274.511719"/>
      <use xlink:href="#DejaVuSans-20" x="344.335938"/>
      <use xlink:href="#DejaVuSans-63" x="376.123047"/>
      <use xlink:href="#DejaVuSans-75" x="431.103516"/>
      <use xlink:href="#DejaVuSans-72" x="494.482422"/>
      <use xlink:href="#DejaVuSans-76" x="535.595703"/>
      <use xlink:href="#DejaVuSans-65" x="594.775391"/>
      <use xlink:href="#DejaVuSans-28" x="656.298828"/>
      <use xlink:href="#DejaVuSans-61" x="695.3125"/>
      <use xlink:href="#DejaVuSans-72" x="756.591797"/>
      <use xlink:href="#DejaVuSans-65" x="795.455078"/>
      <use xlink:href="#DejaVuSans-61" x="856.978516"/>
      <use xlink:href="#DejaVuSans-3d" x="918.257812"/>
      <use xlink:href="#DejaVuSans-30" x="1002.046875"/>
      <use xlink:href="#DejaVuSans-2e" x="1065.669922"/>
      <use xlink:href="#DejaVuSans-39" x="1097.457031"/>
      <use xlink:href="#DejaVuSans-36" x="1161.080078"/>
      <use xlink:href="#DejaVuSans-37" x="1224.703125"/>
      <use xlink:href="#DejaVuSans-35" x="1288.326172"/>
      <use xlink:href="#DejaVuSans-29" x="1351.949219"/>
     </g>
    </g>
    <g id="line2d_22">
     <path d="M 221.298125 262.813688 
L 231.298125 262.813688 
L 241.298125 262.813688 
" style="fill: none; stroke-dasharray: 7.4,3.2; stroke-dashoffset: 0; stroke: #00bfbf; stroke-width: 2"/>
    </g>
    <g id="text_19">
     <!-- xgb_ROC curve(area=0.9547) -->
     <g transform="translate(249.298125 266.313688)scale(0.1 -0.1)">
      <defs>
       <path id="DejaVuSans-78" d="M 3513 3500 
L 2247 1797 
L 3578 0 
L 2900 0 
L 1881 1375 
L 863 0 
L 184 0 
L 1544 1831 
L 300 3500 
L 978 3500 
L 1906 2253 
L 2834 3500 
L 3513 3500 
z
" transform="scale(0.015625)"/>
      </defs>
      <use xlink:href="#DejaVuSans-78"/>
      <use xlink:href="#DejaVuSans-67" x="59.179688"/>
      <use xlink:href="#DejaVuSans-62" x="122.65625"/>
      <use xlink:href="#DejaVuSans-5f" x="186.132812"/>
      <use xlink:href="#DejaVuSans-52" x="236.132812"/>
      <use xlink:href="#DejaVuSans-4f" x="305.615234"/>
      <use xlink:href="#DejaVuSans-43" x="384.326172"/>
      <use xlink:href="#DejaVuSans-20" x="454.150391"/>
      <use xlink:href="#DejaVuSans-63" x="485.9375"/>
      <use xlink:href="#DejaVuSans-75" x="540.917969"/>
      <use xlink:href="#DejaVuSans-72" x="604.296875"/>
      <use xlink:href="#DejaVuSans-76" x="645.410156"/>
      <use xlink:href="#DejaVuSans-65" x="704.589844"/>
      <use xlink:href="#DejaVuSans-28" x="766.113281"/>
      <use xlink:href="#DejaVuSans-61" x="805.126953"/>
      <use xlink:href="#DejaVuSans-72" x="866.40625"/>
      <use xlink:href="#DejaVuSans-65" x="905.269531"/>
      <use xlink:href="#DejaVuSans-61" x="966.792969"/>
      <use xlink:href="#DejaVuSans-3d" x="1028.072266"/>
      <use xlink:href="#DejaVuSans-30" x="1111.861328"/>
      <use xlink:href="#DejaVuSans-2e" x="1175.484375"/>
      <use xlink:href="#DejaVuSans-39" x="1207.271484"/>
      <use xlink:href="#DejaVuSans-35" x="1270.894531"/>
      <use xlink:href="#DejaVuSans-34" x="1334.517578"/>
      <use xlink:href="#DejaVuSans-37" x="1398.140625"/>
      <use xlink:href="#DejaVuSans-29" x="1461.763672"/>
     </g>
    </g>
    <g id="line2d_23">
     <path d="M 221.298125 277.769937 
L 231.298125 277.769937 
L 241.298125 277.769937 
" style="fill: none; stroke-dasharray: 7.4,3.2; stroke-dashoffset: 0; stroke: #bf00bf; stroke-width: 2"/>
    </g>
    <g id="text_20">
     <!-- svm_ROC curve(area=0.8897) -->
     <g transform="translate(249.298125 281.269937)scale(0.1 -0.1)">
      <defs>
       <path id="DejaVuSans-6d" d="M 3328 2828 
Q 3544 3216 3844 3400 
Q 4144 3584 4550 3584 
Q 5097 3584 5394 3201 
Q 5691 2819 5691 2113 
L 5691 0 
L 5113 0 
L 5113 2094 
Q 5113 2597 4934 2840 
Q 4756 3084 4391 3084 
Q 3944 3084 3684 2787 
Q 3425 2491 3425 1978 
L 3425 0 
L 2847 0 
L 2847 2094 
Q 2847 2600 2669 2842 
Q 2491 3084 2119 3084 
Q 1678 3084 1418 2786 
Q 1159 2488 1159 1978 
L 1159 0 
L 581 0 
L 581 3500 
L 1159 3500 
L 1159 2956 
Q 1356 3278 1631 3431 
Q 1906 3584 2284 3584 
Q 2666 3584 2933 3390 
Q 3200 3197 3328 2828 
z
" transform="scale(0.015625)"/>
      </defs>
      <use xlink:href="#DejaVuSans-73"/>
      <use xlink:href="#DejaVuSans-76" x="52.099609"/>
      <use xlink:href="#DejaVuSans-6d" x="111.279297"/>
      <use xlink:href="#DejaVuSans-5f" x="208.691406"/>
      <use xlink:href="#DejaVuSans-52" x="258.691406"/>
      <use xlink:href="#DejaVuSans-4f" x="328.173828"/>
      <use xlink:href="#DejaVuSans-43" x="406.884766"/>
      <use xlink:href="#DejaVuSans-20" x="476.708984"/>
      <use xlink:href="#DejaVuSans-63" x="508.496094"/>
      <use xlink:href="#DejaVuSans-75" x="563.476562"/>
      <use xlink:href="#DejaVuSans-72" x="626.855469"/>
      <use xlink:href="#DejaVuSans-76" x="667.96875"/>
      <use xlink:href="#DejaVuSans-65" x="727.148438"/>
      <use xlink:href="#DejaVuSans-28" x="788.671875"/>
      <use xlink:href="#DejaVuSans-61" x="827.685547"/>
      <use xlink:href="#DejaVuSans-72" x="888.964844"/>
      <use xlink:href="#DejaVuSans-65" x="927.828125"/>
      <use xlink:href="#DejaVuSans-61" x="989.351562"/>
      <use xlink:href="#DejaVuSans-3d" x="1050.630859"/>
      <use xlink:href="#DejaVuSans-30" x="1134.419922"/>
      <use xlink:href="#DejaVuSans-2e" x="1198.042969"/>
      <use xlink:href="#DejaVuSans-38" x="1229.830078"/>
      <use xlink:href="#DejaVuSans-38" x="1293.453125"/>
      <use xlink:href="#DejaVuSans-39" x="1357.076172"/>
      <use xlink:href="#DejaVuSans-37" x="1420.699219"/>
      <use xlink:href="#DejaVuSans-29" x="1484.322266"/>
     </g>
    </g>
    <g id="line2d_24">
     <path d="M 221.298125 292.726187 
L 231.298125 292.726187 
L 241.298125 292.726187 
" style="fill: none; stroke-dasharray: 7.4,3.2; stroke-dashoffset: 0; stroke: #bfbf00; stroke-width: 2"/>
    </g>
    <g id="text_21">
     <!-- adab_ROC curve(area=0.8916) -->
     <g transform="translate(249.298125 296.226187)scale(0.1 -0.1)">
      <use xlink:href="#DejaVuSans-61"/>
      <use xlink:href="#DejaVuSans-64" x="61.279297"/>
      <use xlink:href="#DejaVuSans-61" x="124.755859"/>
      <use xlink:href="#DejaVuSans-62" x="186.035156"/>
      <use xlink:href="#DejaVuSans-5f" x="249.511719"/>
      <use xlink:href="#DejaVuSans-52" x="299.511719"/>
      <use xlink:href="#DejaVuSans-4f" x="368.994141"/>
      <use xlink:href="#DejaVuSans-43" x="447.705078"/>
      <use xlink:href="#DejaVuSans-20" x="517.529297"/>
      <use xlink:href="#DejaVuSans-63" x="549.316406"/>
      <use xlink:href="#DejaVuSans-75" x="604.296875"/>
      <use xlink:href="#DejaVuSans-72" x="667.675781"/>
      <use xlink:href="#DejaVuSans-76" x="708.789062"/>
      <use xlink:href="#DejaVuSans-65" x="767.96875"/>
      <use xlink:href="#DejaVuSans-28" x="829.492188"/>
      <use xlink:href="#DejaVuSans-61" x="868.505859"/>
      <use xlink:href="#DejaVuSans-72" x="929.785156"/>
      <use xlink:href="#DejaVuSans-65" x="968.648438"/>
      <use xlink:href="#DejaVuSans-61" x="1030.171875"/>
      <use xlink:href="#DejaVuSans-3d" x="1091.451172"/>
      <use xlink:href="#DejaVuSans-30" x="1175.240234"/>
      <use xlink:href="#DejaVuSans-2e" x="1238.863281"/>
      <use xlink:href="#DejaVuSans-38" x="1270.650391"/>
      <use xlink:href="#DejaVuSans-39" x="1334.273438"/>
      <use xlink:href="#DejaVuSans-31" x="1397.896484"/>
      <use xlink:href="#DejaVuSans-36" x="1461.519531"/>
      <use xlink:href="#DejaVuSans-29" x="1525.142578"/>
     </g>
    </g>
   </g>
  </g>
 </g>
 <defs>
  <clipPath id="pc6599f7042">
   <rect x="57.6" y="41.472" width="357.12" height="266.112"/>
  </clipPath>
 </defs>
</svg>
