<?xml version="1.0" encoding="utf-8" standalone="no"?>
<!DOCTYPE svg PUBLIC "-//W3C//DTD SVG 1.1//EN"
  "http://www.w3.org/Graphics/SVG/1.1/DTD/svg11.dtd">
<svg xmlns:xlink="http://www.w3.org/1999/xlink" width="460.8pt" height="345.6pt" viewBox="0 0 460.8 345.6" xmlns="http://www.w3.org/2000/svg" version="1.1">
 <metadata>
  <rdf:RDF xmlns:dc="http://purl.org/dc/elements/1.1/" xmlns:cc="http://creativecommons.org/ns#" xmlns:rdf="http://www.w3.org/1999/02/22-rdf-syntax-ns#">
   <cc:Work>
    <dc:type rdf:resource="http://purl.org/dc/dcmitype/StillImage"/>
    <dc:date>2022-09-16T15:00:18.961982</dc:date>
    <dc:format>image/svg+xml</dc:format>
    <dc:creator>
     <cc:Agent>
      <dc:title>Matplotlib v3.5.2, https://matplotlib.org/</dc:title>
     </cc:Agent>
    </dc:creator>
   </cc:Work>
  </rdf:RDF>
 </metadata>
 <defs>
  <style type="text/css">*{stroke-linejoin: round; stroke-linecap: butt}</style>
 </defs>
 <g id="figure_1">
  <g id="patch_1">
   <path d="M 0 345.6 
L 460.8 345.6 
L 460.8 0 
L 0 0 
z
" style="fill: #ffffff"/>
  </g>
  <g id="axes_1">
   <g id="patch_2">
    <path d="M 57.6 307.584 
L 414.72 307.584 
L 414.72 41.472 
L 57.6 41.472 
z
" style="fill: #ffffff"/>
   </g>
   <g id="matplotlib.axis_1">
    <g id="xtick_1">
     <g id="line2d_1">
      <defs>
       <path id="m9f8fc8c328" d="M 0 0 
L 0 3.5 
" style="stroke: #000000; stroke-width: 0.8"/>
      </defs>
      <g>
       <use xlink:href="#m9f8fc8c328" x="73.832727" y="307.584" style="stroke: #000000; stroke-width: 0.8"/>
      </g>
     </g>
     <g id="text_1">
      <!-- 0.0 -->
      <g transform="translate(65.881165 322.182437)scale(0.1 -0.1)">
       <defs>
        <path id="DejaVuSans-30" d="M 2034 4250 
Q 1547 4250 1301 3770 
Q 1056 3291 1056 2328 
Q 1056 1369 1301 889 
Q 1547 409 2034 409 
Q 2525 409 2770 889 
Q 3016 1369 3016 2328 
Q 3016 3291 2770 3770 
Q 2525 4250 2034 4250 
z
M 2034 4750 
Q 2819 4750 3233 4129 
Q 3647 3509 3647 2328 
Q 3647 1150 3233 529 
Q 2819 -91 2034 -91 
Q 1250 -91 836 529 
Q 422 1150 422 2328 
Q 422 3509 836 4129 
Q 1250 4750 2034 4750 
z
" transform="scale(0.015625)"/>
        <path id="DejaVuSans-2e" d="M 684 794 
L 1344 794 
L 1344 0 
L 684 0 
L 684 794 
z
" transform="scale(0.015625)"/>
       </defs>
       <use xlink:href="#DejaVuSans-30"/>
       <use xlink:href="#DejaVuSans-2e" x="63.623047"/>
       <use xlink:href="#DejaVuSans-30" x="95.410156"/>
      </g>
     </g>
    </g>
    <g id="xtick_2">
     <g id="line2d_2">
      <g>
       <use xlink:href="#m9f8fc8c328" x="138.763636" y="307.584" style="stroke: #000000; stroke-width: 0.8"/>
      </g>
     </g>
     <g id="text_2">
      <!-- 0.2 -->
      <g transform="translate(130.812074 322.182437)scale(0.1 -0.1)">
       <defs>
        <path id="DejaVuSans-32" d="M 1228 531 
L 3431 531 
L 3431 0 
L 469 0 
L 469 531 
Q 828 903 1448 1529 
Q 2069 2156 2228 2338 
Q 2531 2678 2651 2914 
Q 2772 3150 2772 3378 
Q 2772 3750 2511 3984 
Q 2250 4219 1831 4219 
Q 1534 4219 1204 4116 
Q 875 4013 500 3803 
L 500 4441 
Q 881 4594 1212 4672 
Q 1544 4750 1819 4750 
Q 2544 4750 2975 4387 
Q 3406 4025 3406 3419 
Q 3406 3131 3298 2873 
Q 3191 2616 2906 2266 
Q 2828 2175 2409 1742 
Q 1991 1309 1228 531 
z
" transform="scale(0.015625)"/>
       </defs>
       <use xlink:href="#DejaVuSans-30"/>
       <use xlink:href="#DejaVuSans-2e" x="63.623047"/>
       <use xlink:href="#DejaVuSans-32" x="95.410156"/>
      </g>
     </g>
    </g>
    <g id="xtick_3">
     <g id="line2d_3">
      <g>
       <use xlink:href="#m9f8fc8c328" x="203.694545" y="307.584" style="stroke: #000000; stroke-width: 0.8"/>
      </g>
     </g>
     <g id="text_3">
      <!-- 0.4 -->
      <g transform="translate(195.742983 322.182437)scale(0.1 -0.1)">
       <defs>
        <path id="DejaVuSans-34" d="M 2419 4116 
L 825 1625 
L 2419 1625 
L 2419 4116 
z
M 2253 4666 
L 3047 4666 
L 3047 1625 
L 3713 1625 
L 3713 1100 
L 3047 1100 
L 3047 0 
L 2419 0 
L 2419 1100 
L 313 1100 
L 313 1709 
L 2253 4666 
z
" transform="scale(0.015625)"/>
       </defs>
       <use xlink:href="#DejaVuSans-30"/>
       <use xlink:href="#DejaVuSans-2e" x="63.623047"/>
       <use xlink:href="#DejaVuSans-34" x="95.410156"/>
      </g>
     </g>
    </g>
    <g id="xtick_4">
     <g id="line2d_4">
      <g>
       <use xlink:href="#m9f8fc8c328" x="268.625455" y="307.584" style="stroke: #000000; stroke-width: 0.8"/>
      </g>
     </g>
     <g id="text_4">
      <!-- 0.6 -->
      <g transform="translate(260.673892 322.182437)scale(0.1 -0.1)">
       <defs>
        <path id="DejaVuSans-36" d="M 2113 2584 
Q 1688 2584 1439 2293 
Q 1191 2003 1191 1497 
Q 1191 994 1439 701 
Q 1688 409 2113 409 
Q 2538 409 2786 701 
Q 3034 994 3034 1497 
Q 3034 2003 2786 2293 
Q 2538 2584 2113 2584 
z
M 3366 4563 
L 3366 3988 
Q 3128 4100 2886 4159 
Q 2644 4219 2406 4219 
Q 1781 4219 1451 3797 
Q 1122 3375 1075 2522 
Q 1259 2794 1537 2939 
Q 1816 3084 2150 3084 
Q 2853 3084 3261 2657 
Q 3669 2231 3669 1497 
Q 3669 778 3244 343 
Q 2819 -91 2113 -91 
Q 1303 -91 875 529 
Q 447 1150 447 2328 
Q 447 3434 972 4092 
Q 1497 4750 2381 4750 
Q 2619 4750 2861 4703 
Q 3103 4656 3366 4563 
z
" transform="scale(0.015625)"/>
       </defs>
       <use xlink:href="#DejaVuSans-30"/>
       <use xlink:href="#DejaVuSans-2e" x="63.623047"/>
       <use xlink:href="#DejaVuSans-36" x="95.410156"/>
      </g>
     </g>
    </g>
    <g id="xtick_5">
     <g id="line2d_5">
      <g>
       <use xlink:href="#m9f8fc8c328" x="333.556364" y="307.584" style="stroke: #000000; stroke-width: 0.8"/>
      </g>
     </g>
     <g id="text_5">
      <!-- 0.8 -->
      <g transform="translate(325.604801 322.182437)scale(0.1 -0.1)">
       <defs>
        <path id="DejaVuSans-38" d="M 2034 2216 
Q 1584 2216 1326 1975 
Q 1069 1734 1069 1313 
Q 1069 891 1326 650 
Q 1584 409 2034 409 
Q 2484 409 2743 651 
Q 3003 894 3003 1313 
Q 3003 1734 2745 1975 
Q 2488 2216 2034 2216 
z
M 1403 2484 
Q 997 2584 770 2862 
Q 544 3141 544 3541 
Q 544 4100 942 4425 
Q 1341 4750 2034 4750 
Q 2731 4750 3128 4425 
Q 3525 4100 3525 3541 
Q 3525 3141 3298 2862 
Q 3072 2584 2669 2484 
Q 3125 2378 3379 2068 
Q 3634 1759 3634 1313 
Q 3634 634 3220 271 
Q 2806 -91 2034 -91 
Q 1263 -91 848 271 
Q 434 634 434 1313 
Q 434 1759 690 2068 
Q 947 2378 1403 2484 
z
M 1172 3481 
Q 1172 3119 1398 2916 
Q 1625 2713 2034 2713 
Q 2441 2713 2670 2916 
Q 2900 3119 2900 3481 
Q 2900 3844 2670 4047 
Q 2441 4250 2034 4250 
Q 1625 4250 1398 4047 
Q 1172 3844 1172 3481 
z
" transform="scale(0.015625)"/>
       </defs>
       <use xlink:href="#DejaVuSans-30"/>
       <use xlink:href="#DejaVuSans-2e" x="63.623047"/>
       <use xlink:href="#DejaVuSans-38" x="95.410156"/>
      </g>
     </g>
    </g>
    <g id="xtick_6">
     <g id="line2d_6">
      <g>
       <use xlink:href="#m9f8fc8c328" x="398.487273" y="307.584" style="stroke: #000000; stroke-width: 0.8"/>
      </g>
     </g>
     <g id="text_6">
      <!-- 1.0 -->
      <g transform="translate(390.53571 322.182437)scale(0.1 -0.1)">
       <defs>
        <path id="DejaVuSans-31" d="M 794 531 
L 1825 531 
L 1825 4091 
L 703 3866 
L 703 4441 
L 1819 4666 
L 2450 4666 
L 2450 531 
L 3481 531 
L 3481 0 
L 794 0 
L 794 531 
z
" transform="scale(0.015625)"/>
       </defs>
       <use xlink:href="#DejaVuSans-31"/>
       <use xlink:href="#DejaVuSans-2e" x="63.623047"/>
       <use xlink:href="#DejaVuSans-30" x="95.410156"/>
      </g>
     </g>
    </g>
    <g id="text_7">
     <!-- Recall -->
     <g transform="translate(221.242812 335.860562)scale(0.1 -0.1)">
      <defs>
       <path id="DejaVuSans-52" d="M 2841 2188 
Q 3044 2119 3236 1894 
Q 3428 1669 3622 1275 
L 4263 0 
L 3584 0 
L 2988 1197 
Q 2756 1666 2539 1819 
Q 2322 1972 1947 1972 
L 1259 1972 
L 1259 0 
L 628 0 
L 628 4666 
L 2053 4666 
Q 2853 4666 3247 4331 
Q 3641 3997 3641 3322 
Q 3641 2881 3436 2590 
Q 3231 2300 2841 2188 
z
M 1259 4147 
L 1259 2491 
L 2053 2491 
Q 2509 2491 2742 2702 
Q 2975 2913 2975 3322 
Q 2975 3731 2742 3939 
Q 2509 4147 2053 4147 
L 1259 4147 
z
" transform="scale(0.015625)"/>
       <path id="DejaVuSans-65" d="M 3597 1894 
L 3597 1613 
L 953 1613 
Q 991 1019 1311 708 
Q 1631 397 2203 397 
Q 2534 397 2845 478 
Q 3156 559 3463 722 
L 3463 178 
Q 3153 47 2828 -22 
Q 2503 -91 2169 -91 
Q 1331 -91 842 396 
Q 353 884 353 1716 
Q 353 2575 817 3079 
Q 1281 3584 2069 3584 
Q 2775 3584 3186 3129 
Q 3597 2675 3597 1894 
z
M 3022 2063 
Q 3016 2534 2758 2815 
Q 2500 3097 2075 3097 
Q 1594 3097 1305 2825 
Q 1016 2553 972 2059 
L 3022 2063 
z
" transform="scale(0.015625)"/>
       <path id="DejaVuSans-63" d="M 3122 3366 
L 3122 2828 
Q 2878 2963 2633 3030 
Q 2388 3097 2138 3097 
Q 1578 3097 1268 2742 
Q 959 2388 959 1747 
Q 959 1106 1268 751 
Q 1578 397 2138 397 
Q 2388 397 2633 464 
Q 2878 531 3122 666 
L 3122 134 
Q 2881 22 2623 -34 
Q 2366 -91 2075 -91 
Q 1284 -91 818 406 
Q 353 903 353 1747 
Q 353 2603 823 3093 
Q 1294 3584 2113 3584 
Q 2378 3584 2631 3529 
Q 2884 3475 3122 3366 
z
" transform="scale(0.015625)"/>
       <path id="DejaVuSans-61" d="M 2194 1759 
Q 1497 1759 1228 1600 
Q 959 1441 959 1056 
Q 959 750 1161 570 
Q 1363 391 1709 391 
Q 2188 391 2477 730 
Q 2766 1069 2766 1631 
L 2766 1759 
L 2194 1759 
z
M 3341 1997 
L 3341 0 
L 2766 0 
L 2766 531 
Q 2569 213 2275 61 
Q 1981 -91 1556 -91 
Q 1019 -91 701 211 
Q 384 513 384 1019 
Q 384 1609 779 1909 
Q 1175 2209 1959 2209 
L 2766 2209 
L 2766 2266 
Q 2766 2663 2505 2880 
Q 2244 3097 1772 3097 
Q 1472 3097 1187 3025 
Q 903 2953 641 2809 
L 641 3341 
Q 956 3463 1253 3523 
Q 1550 3584 1831 3584 
Q 2591 3584 2966 3190 
Q 3341 2797 3341 1997 
z
" transform="scale(0.015625)"/>
       <path id="DejaVuSans-6c" d="M 603 4863 
L 1178 4863 
L 1178 0 
L 603 0 
L 603 4863 
z
" transform="scale(0.015625)"/>
      </defs>
      <use xlink:href="#DejaVuSans-52"/>
      <use xlink:href="#DejaVuSans-65" x="64.982422"/>
      <use xlink:href="#DejaVuSans-63" x="126.505859"/>
      <use xlink:href="#DejaVuSans-61" x="181.486328"/>
      <use xlink:href="#DejaVuSans-6c" x="242.765625"/>
      <use xlink:href="#DejaVuSans-6c" x="270.548828"/>
     </g>
    </g>
   </g>
   <g id="matplotlib.axis_2">
    <g id="ytick_1">
     <g id="line2d_7">
      <defs>
       <path id="mbf55d7751e" d="M 0 0 
L -3.5 0 
" style="stroke: #000000; stroke-width: 0.8"/>
      </defs>
      <g>
       <use xlink:href="#mbf55d7751e" x="57.6" y="307.584" style="stroke: #000000; stroke-width: 0.8"/>
      </g>
     </g>
     <g id="text_8">
      <!-- 0.3 -->
      <g transform="translate(34.696875 311.383219)scale(0.1 -0.1)">
       <defs>
        <path id="DejaVuSans-33" d="M 2597 2516 
Q 3050 2419 3304 2112 
Q 3559 1806 3559 1356 
Q 3559 666 3084 287 
Q 2609 -91 1734 -91 
Q 1441 -91 1130 -33 
Q 819 25 488 141 
L 488 750 
Q 750 597 1062 519 
Q 1375 441 1716 441 
Q 2309 441 2620 675 
Q 2931 909 2931 1356 
Q 2931 1769 2642 2001 
Q 2353 2234 1838 2234 
L 1294 2234 
L 1294 2753 
L 1863 2753 
Q 2328 2753 2575 2939 
Q 2822 3125 2822 3475 
Q 2822 3834 2567 4026 
Q 2313 4219 1838 4219 
Q 1578 4219 1281 4162 
Q 984 4106 628 3988 
L 628 4550 
Q 988 4650 1302 4700 
Q 1616 4750 1894 4750 
Q 2613 4750 3031 4423 
Q 3450 4097 3450 3541 
Q 3450 3153 3228 2886 
Q 3006 2619 2597 2516 
z
" transform="scale(0.015625)"/>
       </defs>
       <use xlink:href="#DejaVuSans-30"/>
       <use xlink:href="#DejaVuSans-2e" x="63.623047"/>
       <use xlink:href="#DejaVuSans-33" x="95.410156"/>
      </g>
     </g>
    </g>
    <g id="ytick_2">
     <g id="line2d_8">
      <g>
       <use xlink:href="#mbf55d7751e" x="57.6" y="271.296" style="stroke: #000000; stroke-width: 0.8"/>
      </g>
     </g>
     <g id="text_9">
      <!-- 0.4 -->
      <g transform="translate(34.696875 275.095219)scale(0.1 -0.1)">
       <use xlink:href="#DejaVuSans-30"/>
       <use xlink:href="#DejaVuSans-2e" x="63.623047"/>
       <use xlink:href="#DejaVuSans-34" x="95.410156"/>
      </g>
     </g>
    </g>
    <g id="ytick_3">
     <g id="line2d_9">
      <g>
       <use xlink:href="#mbf55d7751e" x="57.6" y="235.008" style="stroke: #000000; stroke-width: 0.8"/>
      </g>
     </g>
     <g id="text_10">
      <!-- 0.5 -->
      <g transform="translate(34.696875 238.807219)scale(0.1 -0.1)">
       <defs>
        <path id="DejaVuSans-35" d="M 691 4666 
L 3169 4666 
L 3169 4134 
L 1269 4134 
L 1269 2991 
Q 1406 3038 1543 3061 
Q 1681 3084 1819 3084 
Q 2600 3084 3056 2656 
Q 3513 2228 3513 1497 
Q 3513 744 3044 326 
Q 2575 -91 1722 -91 
Q 1428 -91 1123 -41 
Q 819 9 494 109 
L 494 744 
Q 775 591 1075 516 
Q 1375 441 1709 441 
Q 2250 441 2565 725 
Q 2881 1009 2881 1497 
Q 2881 1984 2565 2268 
Q 2250 2553 1709 2553 
Q 1456 2553 1204 2497 
Q 953 2441 691 2322 
L 691 4666 
z
" transform="scale(0.015625)"/>
       </defs>
       <use xlink:href="#DejaVuSans-30"/>
       <use xlink:href="#DejaVuSans-2e" x="63.623047"/>
       <use xlink:href="#DejaVuSans-35" x="95.410156"/>
      </g>
     </g>
    </g>
    <g id="ytick_4">
     <g id="line2d_10">
      <g>
       <use xlink:href="#mbf55d7751e" x="57.6" y="198.72" style="stroke: #000000; stroke-width: 0.8"/>
      </g>
     </g>
     <g id="text_11">
      <!-- 0.6 -->
      <g transform="translate(34.696875 202.519219)scale(0.1 -0.1)">
       <use xlink:href="#DejaVuSans-30"/>
       <use xlink:href="#DejaVuSans-2e" x="63.623047"/>
       <use xlink:href="#DejaVuSans-36" x="95.410156"/>
      </g>
     </g>
    </g>
    <g id="ytick_5">
     <g id="line2d_11">
      <g>
       <use xlink:href="#mbf55d7751e" x="57.6" y="162.432" style="stroke: #000000; stroke-width: 0.8"/>
      </g>
     </g>
     <g id="text_12">
      <!-- 0.7 -->
      <g transform="translate(34.696875 166.231219)scale(0.1 -0.1)">
       <defs>
        <path id="DejaVuSans-37" d="M 525 4666 
L 3525 4666 
L 3525 4397 
L 1831 0 
L 1172 0 
L 2766 4134 
L 525 4134 
L 525 4666 
z
" transform="scale(0.015625)"/>
       </defs>
       <use xlink:href="#DejaVuSans-30"/>
       <use xlink:href="#DejaVuSans-2e" x="63.623047"/>
       <use xlink:href="#DejaVuSans-37" x="95.410156"/>
      </g>
     </g>
    </g>
    <g id="ytick_6">
     <g id="line2d_12">
      <g>
       <use xlink:href="#mbf55d7751e" x="57.6" y="126.144" style="stroke: #000000; stroke-width: 0.8"/>
      </g>
     </g>
     <g id="text_13">
      <!-- 0.8 -->
      <g transform="translate(34.696875 129.943219)scale(0.1 -0.1)">
       <use xlink:href="#DejaVuSans-30"/>
       <use xlink:href="#DejaVuSans-2e" x="63.623047"/>
       <use xlink:href="#DejaVuSans-38" x="95.410156"/>
      </g>
     </g>
    </g>
    <g id="ytick_7">
     <g id="line2d_13">
      <g>
       <use xlink:href="#mbf55d7751e" x="57.6" y="89.856" style="stroke: #000000; stroke-width: 0.8"/>
      </g>
     </g>
     <g id="text_14">
      <!-- 0.9 -->
      <g transform="translate(34.696875 93.655219)scale(0.1 -0.1)">
       <defs>
        <path id="DejaVuSans-39" d="M 703 97 
L 703 672 
Q 941 559 1184 500 
Q 1428 441 1663 441 
Q 2288 441 2617 861 
Q 2947 1281 2994 2138 
Q 2813 1869 2534 1725 
Q 2256 1581 1919 1581 
Q 1219 1581 811 2004 
Q 403 2428 403 3163 
Q 403 3881 828 4315 
Q 1253 4750 1959 4750 
Q 2769 4750 3195 4129 
Q 3622 3509 3622 2328 
Q 3622 1225 3098 567 
Q 2575 -91 1691 -91 
Q 1453 -91 1209 -44 
Q 966 3 703 97 
z
M 1959 2075 
Q 2384 2075 2632 2365 
Q 2881 2656 2881 3163 
Q 2881 3666 2632 3958 
Q 2384 4250 1959 4250 
Q 1534 4250 1286 3958 
Q 1038 3666 1038 3163 
Q 1038 2656 1286 2365 
Q 1534 2075 1959 2075 
z
" transform="scale(0.015625)"/>
       </defs>
       <use xlink:href="#DejaVuSans-30"/>
       <use xlink:href="#DejaVuSans-2e" x="63.623047"/>
       <use xlink:href="#DejaVuSans-39" x="95.410156"/>
      </g>
     </g>
    </g>
    <g id="ytick_8">
     <g id="line2d_14">
      <g>
       <use xlink:href="#mbf55d7751e" x="57.6" y="53.568" style="stroke: #000000; stroke-width: 0.8"/>
      </g>
     </g>
     <g id="text_15">
      <!-- 1.0 -->
      <g transform="translate(34.696875 57.367219)scale(0.1 -0.1)">
       <use xlink:href="#DejaVuSans-31"/>
       <use xlink:href="#DejaVuSans-2e" x="63.623047"/>
       <use xlink:href="#DejaVuSans-30" x="95.410156"/>
      </g>
     </g>
    </g>
    <g id="text_16">
     <!-- Precision -->
     <g transform="translate(28.617187 196.835031)rotate(-90)scale(0.1 -0.1)">
      <defs>
       <path id="DejaVuSans-50" d="M 1259 4147 
L 1259 2394 
L 2053 2394 
Q 2494 2394 2734 2622 
Q 2975 2850 2975 3272 
Q 2975 3691 2734 3919 
Q 2494 4147 2053 4147 
L 1259 4147 
z
M 628 4666 
L 2053 4666 
Q 2838 4666 3239 4311 
Q 3641 3956 3641 3272 
Q 3641 2581 3239 2228 
Q 2838 1875 2053 1875 
L 1259 1875 
L 1259 0 
L 628 0 
L 628 4666 
z
" transform="scale(0.015625)"/>
       <path id="DejaVuSans-72" d="M 2631 2963 
Q 2534 3019 2420 3045 
Q 2306 3072 2169 3072 
Q 1681 3072 1420 2755 
Q 1159 2438 1159 1844 
L 1159 0 
L 581 0 
L 581 3500 
L 1159 3500 
L 1159 2956 
Q 1341 3275 1631 3429 
Q 1922 3584 2338 3584 
Q 2397 3584 2469 3576 
Q 2541 3569 2628 3553 
L 2631 2963 
z
" transform="scale(0.015625)"/>
       <path id="DejaVuSans-69" d="M 603 3500 
L 1178 3500 
L 1178 0 
L 603 0 
L 603 3500 
z
M 603 4863 
L 1178 4863 
L 1178 4134 
L 603 4134 
L 603 4863 
z
" transform="scale(0.015625)"/>
       <path id="DejaVuSans-73" d="M 2834 3397 
L 2834 2853 
Q 2591 2978 2328 3040 
Q 2066 3103 1784 3103 
Q 1356 3103 1142 2972 
Q 928 2841 928 2578 
Q 928 2378 1081 2264 
Q 1234 2150 1697 2047 
L 1894 2003 
Q 2506 1872 2764 1633 
Q 3022 1394 3022 966 
Q 3022 478 2636 193 
Q 2250 -91 1575 -91 
Q 1294 -91 989 -36 
Q 684 19 347 128 
L 347 722 
Q 666 556 975 473 
Q 1284 391 1588 391 
Q 1994 391 2212 530 
Q 2431 669 2431 922 
Q 2431 1156 2273 1281 
Q 2116 1406 1581 1522 
L 1381 1569 
Q 847 1681 609 1914 
Q 372 2147 372 2553 
Q 372 3047 722 3315 
Q 1072 3584 1716 3584 
Q 2034 3584 2315 3537 
Q 2597 3491 2834 3397 
z
" transform="scale(0.015625)"/>
       <path id="DejaVuSans-6f" d="M 1959 3097 
Q 1497 3097 1228 2736 
Q 959 2375 959 1747 
Q 959 1119 1226 758 
Q 1494 397 1959 397 
Q 2419 397 2687 759 
Q 2956 1122 2956 1747 
Q 2956 2369 2687 2733 
Q 2419 3097 1959 3097 
z
M 1959 3584 
Q 2709 3584 3137 3096 
Q 3566 2609 3566 1747 
Q 3566 888 3137 398 
Q 2709 -91 1959 -91 
Q 1206 -91 779 398 
Q 353 888 353 1747 
Q 353 2609 779 3096 
Q 1206 3584 1959 3584 
z
" transform="scale(0.015625)"/>
       <path id="DejaVuSans-6e" d="M 3513 2113 
L 3513 0 
L 2938 0 
L 2938 2094 
Q 2938 2591 2744 2837 
Q 2550 3084 2163 3084 
Q 1697 3084 1428 2787 
Q 1159 2491 1159 1978 
L 1159 0 
L 581 0 
L 581 3500 
L 1159 3500 
L 1159 2956 
Q 1366 3272 1645 3428 
Q 1925 3584 2291 3584 
Q 2894 3584 3203 3211 
Q 3513 2838 3513 2113 
z
" transform="scale(0.015625)"/>
      </defs>
      <use xlink:href="#DejaVuSans-50"/>
      <use xlink:href="#DejaVuSans-72" x="58.552734"/>
      <use xlink:href="#DejaVuSans-65" x="97.416016"/>
      <use xlink:href="#DejaVuSans-63" x="158.939453"/>
      <use xlink:href="#DejaVuSans-69" x="213.919922"/>
      <use xlink:href="#DejaVuSans-73" x="241.703125"/>
      <use xlink:href="#DejaVuSans-69" x="293.802734"/>
      <use xlink:href="#DejaVuSans-6f" x="321.585938"/>
      <use xlink:href="#DejaVuSans-6e" x="382.767578"/>
     </g>
    </g>
   </g>
   <g id="line2d_15">
    <path d="M 398.487273 235.008 
L 398.487273 214.032277 
L 397.926557 214.187016 
L 397.926557 203.940766 
L 397.365841 204.093274 
L 397.365841 203.661659 
L 396.805125 203.814348 
L 396.805125 202.727264 
L 396.244409 202.879934 
L 396.244409 198.188586 
L 395.122977 198.491774 
L 395.122977 195.480689 
L 394.562261 195.63166 
L 394.562261 194.92467 
L 394.001545 195.075692 
L 394.001545 191.47028 
L 392.880113 191.770394 
L 392.880113 188.042336 
L 392.319397 188.191256 
L 392.319397 187.9382 
L 391.197965 188.2368 
L 391.197965 187.473552 
L 390.637249 187.623 
L 390.637249 182.398685 
L 390.076533 182.54592 
L 390.076533 181.741211 
L 389.515817 181.888367 
L 389.515817 181.077677 
L 388.955101 181.224747 
L 388.955101 179.860343 
L 388.394385 180.007024 
L 388.394385 177.509408 
L 387.833669 177.655051 
L 387.833669 177.374118 
L 387.272953 177.519943 
L 387.272953 174.383656 
L 386.712237 174.528 
L 386.712237 173.657784 
L 386.151521 173.80195 
L 386.151521 172.336696 
L 385.590805 172.48031 
L 385.590805 169.796068 
L 384.469374 170.080941 
L 384.469374 168.86731 
L 383.908658 169.00948 
L 383.908658 167.783019 
L 383.347942 167.924725 
L 383.347942 167.306507 
L 381.665794 167.732494 
L 381.665794 167.109927 
L 381.105078 167.252211 
L 381.105078 166.939543 
L 380.544362 167.08197 
L 380.544362 166.138593 
L 379.983646 166.280727 
L 379.983646 165.329521 
L 378.862214 165.61354 
L 378.862214 164.974471 
L 378.301498 165.116571 
L 378.301498 163.178283 
L 377.740782 163.319351 
L 377.740782 162.993155 
L 377.180066 163.134348 
L 377.180066 162.80707 
L 376.61935 162.948388 
L 376.61935 161.960727 
L 376.058634 162.10168 
L 376.058634 161.7705 
L 375.497918 161.911572 
L 375.497918 161.246118 
L 374.937202 161.387058 
L 374.937202 159.706814 
L 372.694338 160.269139 
L 372.694338 158.904671 
L 371.01219 159.327144 
L 371.01219 158.98294 
L 369.890758 159.265933 
L 369.890758 158.573653 
L 369.330042 158.71517 
L 369.330042 157.668893 
L 368.20861 157.951392 
L 368.20861 157.600174 
L 367.087179 157.88364 
L 367.087179 156.466849 
L 365.965747 156.749538 
L 365.965747 153.498793 
L 364.844315 153.77754 
L 364.844315 152.303933 
L 364.283599 152.442607 
L 364.283599 152.071291 
L 363.162167 152.349157 
L 363.162167 151.976136 
L 362.040735 152.254912 
L 362.040735 151.88017 
L 361.480019 152.019818 
L 361.480019 151.643676 
L 360.919303 151.783385 
L 360.919303 151.0272 
L 359.797871 151.306453 
L 359.797871 149.393455 
L 359.237155 149.531931 
L 359.237155 149.145656 
L 358.676439 149.284174 
L 358.676439 148.507535 
L 355.872859 149.202553 
L 355.872859 148.810698 
L 354.751427 149.090824 
L 354.751427 147.90608 
L 354.190711 148.045633 
L 354.190711 145.64203 
L 353.629995 145.779659 
L 353.629995 145.374467 
L 352.508563 145.650162 
L 352.508563 144.424833 
L 351.947847 144.562079 
L 351.947847 143.738182 
L 350.826415 144.012255 
L 350.826415 143.597589 
L 350.265699 143.734829 
L 350.265699 142.481936 
L 349.704984 142.618307 
L 349.704984 142.197677 
L 349.144268 142.334031 
L 349.144268 141.063023 
L 348.583552 141.198464 
L 348.583552 140.771721 
L 347.46212 141.042961 
L 347.46212 140.183663 
L 346.901404 140.319 
L 346.901404 139.886873 
L 345.219256 140.294038 
L 345.219256 139.42289 
L 344.097824 139.694582 
L 344.097824 137.041994 
L 343.537108 137.175552 
L 343.537108 135.376696 
L 340.733528 136.040727 
L 340.733528 135.58478 
L 339.612096 135.852372 
L 339.612096 135.393882 
L 339.05138 135.527804 
L 339.05138 134.141684 
L 338.490664 134.274425 
L 338.490664 133.808792 
L 337.929948 133.941421 
L 337.929948 133.473695 
L 337.369232 133.606209 
L 337.369232 131.717449 
L 336.808516 131.848134 
L 336.808516 131.371417 
L 336.2478 131.50196 
L 336.2478 129.576649 
L 335.126368 129.834305 
L 335.126368 129.347694 
L 334.565652 129.476571 
L 334.565652 128.497147 
L 334.004936 128.625231 
L 334.004936 128.132384 
L 333.44422 128.260281 
L 333.44422 127.765113 
L 331.201357 128.278588 
L 331.201357 127.278 
L 330.079925 127.534829 
L 330.079925 127.030618 
L 327.837061 127.547051 
L 327.837061 127.038423 
L 327.276345 127.168 
L 327.276345 126.656905 
L 325.033481 127.17711 
L 325.033481 125.624673 
L 322.790617 126.144 
L 322.790617 125.619986 
L 321.669185 125.881043 
L 321.669185 123.225038 
L 320.547753 123.480661 
L 320.547753 122.401591 
L 317.183457 123.170682 
L 317.183457 122.623522 
L 315.501309 123.012203 
L 315.501309 122.460632 
L 314.940593 122.590373 
L 314.940593 119.797049 
L 312.69773 120.304552 
L 312.69773 119.165538 
L 310.454866 119.674047 
L 310.454866 117.3555 
L 309.89415 117.480329 
L 309.89415 116.894118 
L 309.333434 117.01853 
L 309.333434 115.243257 
L 305.969138 115.98336 
L 305.969138 114.16969 
L 305.408422 114.291871 
L 305.408422 113.068567 
L 303.726274 113.432114 
L 303.726274 112.813714 
L 303.165558 112.934871 
L 303.165558 112.312918 
L 302.044126 112.554667 
L 302.044126 111.928082 
L 299.240546 112.536 
L 299.240546 111.901528 
L 298.67983 112.023565 
L 298.67983 111.385358 
L 296.436967 111.8743 
L 296.436967 110.580994 
L 295.876251 110.702298 
L 295.876251 109.395692 
L 294.194103 109.755871 
L 294.194103 109.094897 
L 293.633387 109.214825 
L 293.633387 108.549818 
L 291.390523 109.030009 
L 291.390523 107.681684 
L 290.829807 107.800615 
L 290.829807 106.437934 
L 289.708375 106.67239 
L 289.708375 105.984 
L 288.026227 106.335785 
L 288.026227 105.640466 
L 285.222647 106.230857 
L 285.222647 105.525818 
L 282.419067 106.123034 
L 282.419067 103.968 
L 281.297635 104.202419 
L 281.297635 102.743327 
L 279.054772 103.207245 
L 279.054772 102.466723 
L 277.372624 102.816 
L 277.372624 102.067475 
L 276.811908 102.183502 
L 276.811908 101.429871 
L 276.251192 101.544923 
L 276.251192 100.023652 
L 274.569044 100.362745 
L 274.569044 99.591805 
L 272.886896 99.931047 
L 272.886896 99.151448 
L 272.32618 99.264 
L 272.32618 98.478891 
L 271.204748 98.702328 
L 271.204748 97.909945 
L 270.083316 98.132211 
L 270.083316 97.332422 
L 268.961884 97.553455 
L 268.961884 96.746127 
L 265.597588 97.412113 
L 265.597588 95.763349 
L 262.233293 96.427843 
L 262.233293 95.585684 
L 261.672577 95.696549 
L 261.672577 93.99495 
L 261.111861 94.102468 
L 261.111861 92.378695 
L 260.551145 92.482745 
L 260.551145 89.856 
L 258.308281 90.25259 
L 258.308281 89.358904 
L 257.186849 89.556099 
L 257.186849 88.653083 
L 256.065417 88.848 
L 256.065417 87.935465 
L 250.458257 88.920206 
L 250.458257 87.979034 
L 248.776109 88.278261 
L 248.776109 86.364735 
L 248.215393 86.460632 
L 248.215393 85.492927 
L 247.654677 85.586824 
L 247.654677 84.610832 
L 245.411813 84.981493 
L 245.411813 82.990703 
L 240.926086 83.714954 
L 240.926086 82.688 
L 238.122506 83.144426 
L 238.122506 82.096302 
L 233.636778 82.832516 
L 233.636778 81.752854 
L 224.104607 83.393753 
L 224.104607 82.249237 
L 222.983175 82.447723 
L 222.983175 81.288 
L 220.179595 81.777753 
L 220.179595 79.395758 
L 213.451003 80.547926 
L 213.451003 79.294567 
L 210.086707 79.883725 
L 210.086707 78.594207 
L 208.965276 78.787459 
L 208.965276 77.478698 
L 207.283128 77.76 
L 207.283128 76.426583 
L 202.7974 77.169951 
L 202.7974 75.785143 
L 201.115252 76.060562 
L 201.115252 74.648166 
L 200.554536 74.736 
L 200.554536 73.306243 
L 199.433104 73.47281 
L 199.433104 72.019525 
L 193.825944 72.835965 
L 193.825944 71.3088 
L 192.704512 71.46791 
L 192.704512 69.913946 
L 190.461649 70.213872 
L 190.461649 67.008 
L 180.368761 68.229818 
L 180.368761 64.676571 
L 169.715158 65.869017 
L 160.743702 67.091478 
L 160.743702 64.908 
L 152.332963 66.081103 
L 146.165087 67.108299 
L 141.679359 67.968 
L 141.679359 65.18016 
L 135.511484 66.300632 
L 129.343608 67.660427 
L 124.297164 69.009702 
L 120.372153 70.252138 
L 115.886425 71.941671 
L 114.764993 72.418909 
L 114.764993 67.892211 
L 110.839981 69.345391 
L 108.036401 70.578 
L 104.672106 72.337655 
L 102.989958 73.361455 
L 102.989958 67.008 
L 100.186378 68.379429 
L 97.943514 69.696 
L 95.70065 71.269463 
L 93.457786 73.183135 
L 91.214922 75.560727 
L 89.532774 77.76 
L 87.850626 80.448 
L 87.289911 81.481846 
L 86.729195 68.688 
L 85.607763 70.062545 
L 84.486331 71.712 
L 84.486331 53.568 
L 73.832727 53.568 
L 73.832727 53.568 
" clip-path="url(#p4104164b36)" style="fill: none; stroke-dasharray: 7.4,3.2; stroke-dashoffset: 0; stroke: #ff0000; stroke-width: 2"/>
   </g>
   <g id="line2d_16">
    <path d="M 398.487273 235.008 
L 398.487273 220.269176 
L 397.926557 220.424972 
L 397.926557 216.500774 
L 397.365841 216.656244 
L 397.365841 216.082679 
L 396.805125 216.238345 
L 396.805125 214.302081 
L 395.683693 214.613581 
L 395.683693 214.025143 
L 395.122977 214.18123 
L 395.122977 213.786947 
L 394.562261 213.943259 
L 394.562261 212.350301 
L 394.001545 212.506583 
L 394.001545 205.660126 
L 393.440829 205.815006 
L 393.440829 204.520131 
L 391.758681 204.985554 
L 391.758681 200.774038 
L 391.197965 200.928504 
L 391.197965 196.072378 
L 390.637249 196.225444 
L 390.637249 195.988645 
L 390.076533 196.14195 
L 390.076533 195.428216 
L 388.955101 195.735273 
L 388.955101 193.807651 
L 388.394385 193.960918 
L 388.394385 193.717497 
L 387.833669 193.871001 
L 387.833669 192.398606 
L 387.272953 192.551841 
L 387.272953 191.309354 
L 386.712237 191.4624 
L 386.712237 190.458 
L 386.151521 190.61095 
L 386.151521 190.105156 
L 385.590805 190.258224 
L 385.590805 188.983197 
L 385.030089 189.136036 
L 385.030089 188.879186 
L 384.469374 189.032253 
L 384.469374 188.774704 
L 383.908658 188.928 
L 383.908658 187.891462 
L 382.22651 188.352 
L 382.22651 187.041103 
L 381.665794 187.194697 
L 381.665794 186.665855 
L 381.105078 186.819547 
L 381.105078 186.554081 
L 380.544362 186.708 
L 380.544362 186.174961 
L 379.983646 186.328976 
L 379.983646 185.524364 
L 378.862214 185.832673 
L 378.862214 184.749972 
L 378.301498 184.904122 
L 378.301498 184.358671 
L 377.740782 184.512906 
L 377.740782 183.413687 
L 377.180066 183.567715 
L 377.180066 183.013898 
L 376.61935 183.168 
L 376.61935 182.611246 
L 374.937202 183.074874 
L 374.937202 182.79505 
L 374.376486 182.950185 
L 374.376486 182.669538 
L 372.694338 183.136733 
L 372.694338 182.005527 
L 369.890758 182.788683 
L 369.890758 181.930693 
L 369.330042 182.088 
L 369.330042 181.512177 
L 368.769326 181.66955 
L 368.769326 181.090565 
L 367.647894 181.405824 
L 367.647894 180.823316 
L 367.087179 180.981201 
L 367.087179 179.511371 
L 365.405031 179.984842 
L 365.405031 179.092528 
L 364.283599 179.40911 
L 364.283599 178.207392 
L 363.722883 178.365563 
L 363.722883 177.455694 
L 363.162167 177.613714 
L 363.162167 177.30869 
L 362.601451 177.466926 
L 362.601451 176.238231 
L 362.040735 176.396108 
L 362.040735 176.086763 
L 361.480019 176.244852 
L 361.480019 175.623369 
L 360.358587 175.939984 
L 360.358587 175.627636 
L 359.237155 175.9455 
L 359.237155 175.631937 
L 358.676439 175.79129 
L 358.676439 175.161298 
L 358.115723 175.320661 
L 358.115723 174.686949 
L 357.555007 174.846316 
L 357.555007 174.528 
L 354.751427 175.330122 
L 354.751427 173.720523 
L 354.190711 173.881155 
L 354.190711 172.577032 
L 353.069279 172.897811 
L 353.069279 171.245503 
L 352.508563 171.405391 
L 352.508563 171.072 
L 351.947847 171.232087 
L 351.947847 170.89755 
L 350.265699 171.379726 
L 350.265699 170.706462 
L 348.583552 171.191172 
L 348.583552 170.85242 
L 347.46212 171.177307 
L 347.46212 170.837126 
L 346.901404 171 
L 346.901404 170.658626 
L 346.340688 170.821705 
L 346.340688 170.135598 
L 345.779972 170.298629 
L 345.779972 169.953882 
L 345.219256 170.117116 
L 345.219256 167.674742 
L 344.65854 167.836596 
L 344.65854 167.129309 
L 343.537108 167.453307 
L 343.537108 166.740876 
L 342.976392 166.903014 
L 342.976392 164.375062 
L 340.733528 165.020227 
L 340.733528 163.917474 
L 340.172812 164.07904 
L 340.172812 163.337868 
L 339.05138 163.661196 
L 339.05138 163.288354 
L 337.929948 163.61297 
L 337.929948 163.2384 
L 337.369232 163.401116 
L 337.369232 162.648 
L 336.2478 162.973612 
L 336.2478 161.451243 
L 335.687084 161.613474 
L 335.687084 159.293281 
L 334.565652 159.615123 
L 334.565652 159.22361 
L 334.004936 159.384916 
L 334.004936 158.597587 
L 333.44422 158.758675 
L 333.44422 158.362839 
L 332.883504 158.524062 
L 332.883504 158.126644 
L 331.762073 158.449855 
L 331.762073 158.050477 
L 331.201357 158.212465 
L 331.201357 157.409244 
L 330.640641 157.570991 
L 330.640641 156.762 
L 328.958493 157.248 
L 328.958493 156.021502 
L 328.397777 156.183355 
L 328.397777 155.358428 
L 327.276345 155.682086 
L 327.276345 154.850297 
L 326.715629 155.012089 
L 326.715629 153.753169 
L 326.154913 153.914238 
L 326.154913 153.067355 
L 325.033481 153.389359 
L 325.033481 152.963008 
L 324.472765 153.124364 
L 324.472765 151.835667 
L 323.912049 151.996235 
L 323.912049 148.049194 
L 323.351333 148.20614 
L 323.351333 147.759814 
L 322.229901 148.074311 
L 322.229901 147.175236 
L 321.108469 147.489882 
L 321.108469 146.582772 
L 320.547753 146.739892 
L 320.547753 146.283533 
L 319.426321 146.598357 
L 319.426321 145.678937 
L 317.183457 146.310916 
L 317.183457 145.381012 
L 316.622741 145.53931 
L 316.622741 144.60191 
L 316.062025 144.759681 
L 316.062025 143.339707 
L 315.501309 143.496377 
L 315.501309 143.019189 
L 314.940593 143.175846 
L 314.940593 141.732507 
L 314.379878 141.888 
L 314.379878 141.402912 
L 313.819162 141.558372 
L 313.819162 141.070979 
L 313.258446 141.226401 
L 313.258446 140.736683 
L 312.69773 140.892064 
L 312.69773 140.4 
L 311.576298 140.711226 
L 311.576298 139.719367 
L 311.015582 139.874595 
L 311.015582 139.375365 
L 310.454866 139.530532 
L 310.454866 139.02887 
L 309.89415 139.183971 
L 309.89415 138.173902 
L 309.333434 138.328292 
L 309.333434 137.819846 
L 308.212002 138.129028 
L 308.212002 137.617412 
L 307.651286 137.772199 
L 307.651286 133.605084 
L 305.969138 134.056421 
L 305.969138 132.990792 
L 304.847706 133.291636 
L 304.847706 132.754338 
L 304.28699 132.904882 
L 304.28699 131.27844 
L 303.726274 131.42731 
L 303.726274 129.226378 
L 303.165558 129.37272 
L 303.165558 128.816372 
L 302.604842 128.962485 
L 302.604842 128.403175 
L 302.044126 128.549053 
L 302.044126 127.422247 
L 301.48341 127.567059 
L 301.48341 126.999513 
L 300.922694 127.144063 
L 300.922694 124.848 
L 298.67983 125.41824 
L 298.67983 124.835014 
L 295.315535 125.702361 
L 295.315535 124.518061 
L 294.194103 124.808245 
L 294.194103 123.610546 
L 293.633387 123.754667 
L 293.633387 121.325676 
L 292.511955 121.608 
L 292.511955 120.992468 
L 291.390523 121.27517 
L 291.390523 120.032337 
L 290.269091 120.31337 
L 290.269091 119.685966 
L 288.586943 120.108896 
L 288.586943 119.475692 
L 288.026227 119.616822 
L 288.026227 118.979845 
L 285.783363 119.546182 
L 285.783363 118.902143 
L 284.661931 119.186824 
L 284.661931 118.537782 
L 284.101215 118.679947 
L 284.101215 118.026947 
L 282.419067 118.453828 
L 282.419067 117.794549 
L 280.176203 118.368 
L 280.176203 117.701154 
L 277.372624 118.426643 
L 277.372624 117.750857 
L 276.811908 117.896727 
L 276.811908 117.216656 
L 274.569044 117.801931 
L 274.569044 116.422503 
L 270.644032 117.455324 
L 270.644032 116.751812 
L 268.401168 117.352133 
L 268.401168 116.64 
L 267.279736 116.94178 
L 267.279736 116.22354 
L 263.91544 117.138219 
L 263.91544 115.674601 
L 262.233293 116.133517 
L 262.233293 115.392 
L 261.111861 115.698819 
L 261.111861 114.950687 
L 258.868997 115.567598 
L 258.868997 114.809713 
L 257.186849 115.27602 
L 257.186849 114.509679 
L 253.822553 115.454512 
L 253.822553 113.890909 
L 252.701121 114.205911 
L 252.701121 113.414702 
L 252.140405 113.57178 
L 252.140405 111.973488 
L 251.579689 112.128 
L 251.579689 109.69344 
L 250.458257 109.994381 
L 250.458257 109.170581 
L 249.897541 109.320453 
L 249.897541 108.490378 
L 247.654677 109.090623 
L 247.654677 105.694409 
L 247.093961 105.838803 
L 247.093961 104.976 
L 245.972529 105.263196 
L 245.972529 104.391529 
L 245.411813 104.534292 
L 245.411813 103.655662 
L 242.047518 104.516768 
L 242.047518 103.620414 
L 240.36537 104.055652 
L 240.36537 103.147535 
L 238.683222 103.583718 
L 238.683222 102.663529 
L 238.122506 102.808354 
L 238.122506 101.880426 
L 237.56179 102.023786 
L 237.56179 101.088 
L 235.318926 101.66053 
L 235.318926 99.752727 
L 234.197494 100.034341 
L 234.197494 96.128 
L 233.076062 96.392348 
L 233.076062 94.392 
L 229.711766 95.172076 
L 229.711766 94.145636 
L 225.226039 95.209967 
L 225.226039 94.153263 
L 222.983175 94.6944 
L 222.983175 93.618301 
L 222.422459 93.752698 
L 222.422459 90.471051 
L 220.740311 90.850192 
L 220.740311 89.731299 
L 217.936731 90.363524 
L 217.936731 89.219368 
L 217.376015 89.344901 
L 217.376015 88.18906 
L 210.647423 89.722096 
L 210.647423 88.512 
L 203.358116 90.279595 
L 203.358116 89.0055 
L 199.433104 90.001735 
L 199.433104 88.685419 
L 196.629524 89.408 
L 196.629524 88.056595 
L 193.825944 88.784203 
L 193.825944 87.395797 
L 189.900933 88.429834 
L 189.900933 86.991158 
L 185.415205 88.206545 
L 185.415205 86.707726 
L 180.368761 88.128 
L 180.368761 86.557091 
L 179.247329 86.875826 
L 179.247329 85.275961 
L 172.518738 87.237278 
L 172.518738 85.531523 
L 169.715158 86.381617 
L 169.715158 84.616556 
L 166.350862 85.64579 
L 166.350862 83.808 
L 165.22943 84.147775 
L 165.22943 82.270373 
L 162.42585 83.104744 
L 162.42585 81.155368 
L 160.182986 81.816144 
L 160.182986 79.800289 
L 159.62227 79.959273 
L 159.62227 77.907512 
L 153.454395 79.657412 
L 152.332963 80.002967 
L 152.332963 73.183135 
L 150.650815 73.588966 
L 150.650815 71.208 
L 146.725803 72.109314 
L 146.725803 69.577412 
L 142.800791 70.44614 
L 142.800791 67.743 
L 141.118643 68.0832 
L 141.118643 65.273806 
L 134.390052 66.528 
L 128.782892 67.798588 
L 125.979312 68.532124 
L 125.979312 64.908 
L 120.932869 66.081103 
L 116.447141 67.348253 
L 112.522129 68.688 
L 109.157833 70.062545 
L 106.354253 71.414557 
L 103.550674 73.008 
L 101.30781 74.503385 
L 99.064946 76.248 
L 96.822082 78.309818 
L 95.139934 80.120195 
L 93.457786 82.216421 
L 92.89707 82.990703 
L 92.89707 73.728 
L 91.214922 75.560727 
L 89.532774 77.76 
L 87.850626 80.448 
L 86.729195 82.5984 
L 85.607763 85.122783 
L 85.047047 86.557091 
L 85.047047 70.848 
L 83.925615 72.666947 
L 82.804183 74.913882 
L 81.682751 77.76 
L 81.682751 53.568 
L 73.832727 53.568 
L 73.832727 53.568 
" clip-path="url(#p4104164b36)" style="fill: none; stroke-dasharray: 7.4,3.2; stroke-dashoffset: 0; stroke: #008000; stroke-width: 2"/>
   </g>
   <g id="line2d_17">
    <path d="M 398.487273 235.008 
L 398.487273 228.684354 
L 398.487273 220.817162 
L 398.487273 213.249238 
L 398.487273 204.003592 
L 398.487273 196.440126 
L 398.487273 196.209509 
L 398.487273 189.058909 
L 398.487273 183.254304 
L 398.487273 174.945103 
L 398.487273 170.420459 
L 398.487273 164.218084 
L 398.487273 161.153322 
L 397.365841 155.047551 
L 397.365841 154.7208 
L 397.365841 154.393232 
L 396.805125 148.131081 
L 396.244409 142.621228 
L 394.001545 137.196679 
L 394.001545 136.819822 
L 392.880113 132.823385 
L 392.880113 132.433254 
L 391.758681 129.883989 
L 390.076533 124.903385 
L 387.833669 119.353263 
L 386.151521 113.866922 
L 384.469374 109.523542 
L 382.787226 104.51839 
L 382.787226 104.031 
L 378.301498 100.165753 
L 374.376486 94.954314 
L 374.376486 94.42204 
L 373.81577 94.489791 
L 369.890758 90.041458 
L 363.722883 88.460308 
L 359.237155 84.839526 
L 356.994291 80.817231 
L 356.994291 80.201394 
L 352.508563 78.077719 
L 351.947847 78.123789 
L 346.901404 76.596923 
L 346.901404 75.942104 
L 342.415676 73.60871 
L 341.85496 73.648316 
L 335.687084 68.470669 
L 330.079925 68.783094 
L 317.744173 67.987073 
L 310.454866 66.82389 
L 303.726274 66.375529 
L 296.997683 65.045956 
L 296.436967 65.073951 
L 288.586943 65.480727 
L 288.586943 64.592203 
L 277.372624 64.240941 
L 276.811908 64.269555 
L 267.279736 61.791909 
L 257.186849 62.233791 
L 256.626133 62.259737 
L 248.215393 58.176 
L 237.001074 58.488407 
L 226.347471 57.526691 
L 225.226039 57.555692 
L 224.665323 57.570353 
L 216.254583 57.803953 
L 215.693867 57.8205 
L 199.99382 58.342737 
L 199.433104 58.363771 
L 183.733057 59.038553 
L 183.172341 59.066182 
L 183.172341 57.252061 
L 160.182986 58.220308 
L 159.62227 58.250323 
L 134.950768 60.106378 
L 134.390052 60.165818 
L 104.11139 53.568 
L 73.832727 53.568 
" clip-path="url(#p4104164b36)" style="fill: none; stroke-dasharray: 7.4,3.2; stroke-dashoffset: 0; stroke: #0000ff; stroke-width: 2"/>
   </g>
   <g id="line2d_18">
    <path d="M 398.487273 235.008 
L 398.487273 196.209509 
L 397.926557 196.359186 
L 397.926557 193.789146 
L 397.365841 193.938159 
L 397.365841 163.265703 
L 396.805125 163.398508 
L 396.805125 152.868076 
L 396.244409 152.993455 
L 396.244409 150.644178 
L 395.683693 150.768 
L 395.683693 137.234702 
L 395.122977 137.347007 
L 395.122977 135.840389 
L 394.562261 135.951568 
L 394.562261 133.272884 
L 394.001545 133.38177 
L 394.001545 132.606247 
L 392.880113 132.823385 
L 392.880113 132.04205 
L 392.319397 132.15029 
L 392.319397 131.363851 
L 391.758681 131.471601 
L 391.758681 131.07635 
L 390.076533 131.400201 
L 390.076533 130.603978 
L 389.515817 130.71172 
L 389.515817 127.06919 
L 388.955101 127.173447 
L 388.955101 126.350475 
L 387.833669 126.558128 
L 387.833669 121.509248 
L 387.272953 121.608 
L 387.272953 118.139294 
L 386.712237 118.234392 
L 386.712237 116.910959 
L 386.151521 117.0048 
L 386.151521 116.560522 
L 385.590805 116.654122 
L 385.590805 115.760548 
L 385.030089 115.853373 
L 385.030089 114.953389 
L 384.469374 115.045421 
L 384.469374 112.309543 
L 383.908658 112.398545 
L 383.908658 111.937165 
L 382.787226 112.114849 
L 382.787226 111.185588 
L 381.665794 111.362058 
L 381.665794 109.953969 
L 380.544362 110.128 
L 380.544362 109.654553 
L 379.983646 109.741375 
L 379.983646 107.348967 
L 379.42293 107.433 
L 379.42293 106.949408 
L 378.862214 107.033078 
L 378.862214 106.547341 
L 377.740782 106.714205 
L 377.740782 106.225666 
L 377.180066 106.308853 
L 377.180066 105.325845 
L 375.497918 105.573096 
L 375.497918 105.077282 
L 374.937202 105.159565 
L 374.937202 103.660584 
L 372.694338 103.984284 
L 372.694338 102.462545 
L 372.133622 102.542049 
L 372.133622 102.030801 
L 371.01219 102.189176 
L 371.01219 101.15882 
L 370.451474 101.236966 
L 370.451474 100.718526 
L 367.647894 101.109493 
L 367.647894 100.585674 
L 367.087179 100.663907 
L 367.087179 100.1376 
L 365.405031 100.371618 
L 365.405031 97.702054 
L 364.844315 97.776731 
L 364.844315 96.150857 
L 364.283599 96.2234 
L 364.283599 95.128615 
L 362.601451 95.342845 
L 362.601451 93.120664 
L 360.919303 93.327026 
L 360.919303 92.764098 
L 355.872859 93.38846 
L 355.872859 92.81566 
L 355.312143 92.885371 
L 355.312143 92.309637 
L 354.751427 92.378695 
L 354.751427 90.636387 
L 354.190711 90.702937 
L 354.190711 89.529081 
L 353.629995 89.593993 
L 353.629995 89.002937 
L 353.069279 89.06713 
L 353.069279 88.472973 
L 351.387131 88.664058 
L 351.387131 86.859743 
L 350.826415 86.920941 
L 350.826415 86.314077 
L 350.265699 86.374494 
L 350.265699 85.764377 
L 348.022836 86.004201 
L 348.022836 85.387701 
L 347.46212 85.447178 
L 347.46212 84.827326 
L 346.340688 84.944842 
L 346.340688 84.320542 
L 344.097824 84.553958 
L 344.097824 83.2896 
L 341.85496 83.517789 
L 341.85496 82.234821 
L 339.612096 82.457476 
L 339.612096 81.807689 
L 336.808516 82.085092 
L 336.808516 81.426898 
L 336.2478 81.481846 
L 336.2478 80.819858 
L 335.687084 80.873822 
L 335.687084 80.208 
L 335.126368 80.260962 
L 335.126368 78.24384 
L 332.322789 78.493091 
L 332.322789 77.122077 
L 331.762073 77.169951 
L 331.762073 76.478957 
L 331.201357 76.525714 
L 331.201357 75.13259 
L 330.640641 75.176871 
L 330.640641 72.350609 
L 327.837061 72.547079 
L 327.837061 71.826113 
L 316.062025 72.666947 
L 316.062025 71.911385 
L 314.379878 72.033133 
L 314.379878 71.269463 
L 299.801262 72.352376 
L 299.801262 71.54083 
L 288.026227 72.47738 
L 288.026227 71.621731 
L 286.344079 71.757474 
L 286.344079 70.891417 
L 282.979783 71.156571 
L 282.979783 70.273473 
L 270.644032 71.269463 
L 270.644032 70.331478 
L 270.083316 70.377155 
L 270.083316 69.431607 
L 266.158304 69.740925 
L 266.158304 68.772469 
L 258.308281 69.391256 
L 258.308281 68.379429 
L 246.533245 69.345391 
L 246.533245 67.176 
L 243.16895 67.436025 
L 243.16895 66.320971 
L 227.468902 67.573895 
L 214.011719 68.861793 
L 205.60098 69.794341 
L 205.60098 68.379429 
L 205.040264 68.440131 
L 205.040264 67.008 
L 193.265228 68.279351 
L 185.975921 69.194411 
L 185.975921 67.524923 
L 184.293773 67.729171 
L 184.293773 66.019765 
L 174.200886 67.224774 
L 165.22943 68.510118 
L 162.42585 68.962909 
L 162.42585 66.844098 
L 156.257975 67.798588 
L 156.257975 65.504842 
L 148.407951 66.715826 
L 141.679359 67.968 
L 141.679359 65.18016 
L 134.950768 66.41331 
L 129.343608 67.660427 
L 124.297164 69.009702 
L 119.811437 70.44614 
L 117.568573 71.269463 
L 117.568573 67.008 
L 113.643561 68.279351 
L 110.279265 69.577412 
L 106.914969 71.12671 
L 106.354253 71.414557 
L 106.354253 65.664 
L 102.989958 67.008 
L 100.186378 68.379429 
L 99.064946 69.009702 
L 99.064946 61.456696 
L 96.822082 62.208 
L 96.822082 53.568 
L 73.832727 53.568 
L 73.832727 53.568 
" clip-path="url(#p4104164b36)" style="fill: none; stroke-dasharray: 7.4,3.2; stroke-dashoffset: 0; stroke: #00bfbf; stroke-width: 2"/>
   </g>
   <g id="line2d_19">
    <path d="M 398.487273 235.008 
L 398.487273 229.519601 
L 397.926557 229.676281 
L 397.926557 224.900384 
L 397.365841 225.056995 
L 397.365841 223.824486 
L 396.805125 223.98126 
L 396.805125 223.803871 
L 396.244409 223.960915 
L 396.244409 223.78318 
L 395.683693 223.940495 
L 395.683693 223.226182 
L 395.122977 223.38371 
L 395.122977 222.844425 
L 394.562261 223.002185 
L 394.562261 220.814296 
L 394.001545 220.972075 
L 394.001545 217.976276 
L 393.440829 218.133906 
L 393.440829 215.435755 
L 392.880113 215.593214 
L 392.880113 215.39764 
L 392.319397 215.555368 
L 392.319397 214.373647 
L 391.758681 214.531454 
L 391.758681 213.535811 
L 391.197965 213.693726 
L 391.197965 210.439896 
L 390.637249 210.597398 
L 390.637249 200.629895 
L 390.076533 200.78486 
L 390.076533 187.003695 
L 389.515817 187.153455 
L 389.515817 176.375803 
L 388.955101 176.520282 
L 388.955101 167.438769 
L 388.394385 167.577976 
L 388.394385 166.04741 
L 387.833669 166.185931 
L 387.833669 164.009739 
L 387.272953 164.147104 
L 387.272953 163.832907 
L 386.712237 163.970394 
L 386.712237 163.3392 
L 386.151521 163.476586 
L 386.151521 160.270357 
L 385.030089 160.54152 
L 385.030089 158.575529 
L 384.469374 158.710154 
L 384.469374 158.379297 
L 383.908658 158.514015 
L 383.908658 156.509347 
L 382.787226 156.776727 
L 382.787226 154.737424 
L 380.544362 155.269895 
L 380.544362 153.540238 
L 379.42293 153.805769 
L 379.42293 151.696193 
L 378.862214 151.827732 
L 378.862214 151.116387 
L 377.740782 151.379321 
L 377.740782 150.303264 
L 377.180066 150.434341 
L 377.180066 148.984676 
L 376.058634 149.245377 
L 376.058634 148.513315 
L 373.81577 149.03643 
L 373.81577 148.667586 
L 373.255054 148.798939 
L 373.255054 148.428747 
L 372.694338 148.560133 
L 372.694338 148.188583 
L 372.133622 148.32 
L 372.133622 146.444979 
L 371.572906 146.575059 
L 371.572906 146.196555 
L 369.890758 146.587944 
L 369.890758 144.674043 
L 369.330042 144.803455 
L 369.330042 143.640924 
L 365.405031 144.549441 
L 365.405031 144.157091 
L 364.844315 144.288 
L 364.844315 142.307214 
L 363.722883 142.566307 
L 363.722883 141.361548 
L 363.162167 141.490467 
L 363.162167 139.865903 
L 361.480019 140.250018 
L 361.480019 137.769198 
L 360.919303 137.895436 
L 360.919303 137.057684 
L 359.797871 137.309538 
L 359.797871 136.887879 
L 359.237155 137.01393 
L 359.237155 134.023046 
L 358.676439 134.146254 
L 358.676439 133.713276 
L 358.115723 133.836387 
L 358.115723 133.4016 
L 355.872859 133.895926 
L 355.872859 132.135477 
L 355.312143 132.258047 
L 355.312143 130.473495 
L 353.629995 130.837401 
L 353.629995 129.479506 
L 353.069279 129.6 
L 353.069279 129.143962 
L 352.508563 129.264306 
L 352.508563 128.806278 
L 351.387131 129.04704 
L 351.387131 128.124404 
L 349.144268 128.606191 
L 349.144268 127.673154 
L 348.583552 127.793455 
L 348.583552 127.324098 
L 346.340688 127.806953 
L 346.340688 127.33377 
L 344.65854 127.698346 
L 344.65854 127.221861 
L 344.097824 127.343603 
L 344.097824 126.384716 
L 342.976392 126.627035 
L 342.976392 126.144 
L 342.415676 126.265162 
L 342.415676 121.338458 
L 341.85496 121.453714 
L 341.85496 120.446908 
L 340.733528 120.675945 
L 340.733528 120.168617 
L 339.612096 120.39788 
L 339.612096 118.861287 
L 339.05138 118.974447 
L 339.05138 118.458 
L 337.369232 118.797738 
L 337.369232 117.231158 
L 335.687084 117.568 
L 335.687084 117.039943 
L 335.126368 117.152283 
L 335.126368 116.621617 
L 334.004936 116.846007 
L 334.004936 116.311957 
L 333.44422 115.348645 
L 333.44422 114.808072 
L 331.201357 115.251038 
L 331.201357 114.157764 
L 329.519209 114.48946 
L 329.519209 113.383385 
L 328.958493 113.493138 
L 328.958493 112.936235 
L 328.397777 113.045569 
L 328.397777 111.923933 
L 327.276345 112.140468 
L 327.276345 111.007106 
L 322.790617 111.87575 
L 322.790617 110.719879 
L 322.229901 110.828532 
L 322.229901 110.2464 
L 320.547753 110.572138 
L 320.547753 108.804069 
L 317.183457 109.450105 
L 317.183457 108.8505 
L 316.062025 109.067294 
L 316.062025 107.248473 
L 315.501309 107.354561 
L 315.501309 106.128 
L 314.940593 106.232493 
L 314.940593 104.3712 
L 314.379878 104.47301 
L 314.379878 103.846554 
L 311.576298 104.356479 
L 311.576298 103.08523 
L 311.015582 103.186286 
L 311.015582 102.545669 
L 310.454866 102.646033 
L 310.454866 100.70499 
L 306.529854 101.39528 
L 306.529854 100.734792 
L 305.969138 100.833882 
L 305.969138 100.169432 
L 305.408422 100.267747 
L 305.408422 99.59929 
L 303.165558 99.991881 
L 303.165558 98.636608 
L 299.801262 99.223184 
L 299.801262 98.533565 
L 299.240546 98.631529 
L 299.240546 97.937607 
L 298.119114 98.132211 
L 298.119114 96.024159 
L 296.997683 96.212435 
L 296.997683 95.5008 
L 295.876251 95.688 
L 295.876251 94.249614 
L 293.633387 94.617774 
L 293.633387 93.154909 
L 291.951239 93.426673 
L 291.951239 91.941517 
L 291.390523 92.029935 
L 291.390523 91.280702 
L 289.708375 91.543814 
L 289.708375 90.02557 
L 289.147659 90.110951 
L 289.147659 89.344901 
L 286.904795 89.684019 
L 286.904795 88.907857 
L 283.540499 89.418795 
L 283.540499 88.62887 
L 282.979783 88.713763 
L 282.979783 87.918291 
L 281.858351 88.085854 
L 281.858351 86.476235 
L 279.615488 86.802059 
L 279.615488 85.984079 
L 276.811908 86.391317 
L 276.811908 85.55994 
L 275.690476 85.721924 
L 275.690476 84.882518 
L 271.765464 85.44893 
L 271.765464 83.729455 
L 271.204748 83.808 
L 271.204748 82.939488 
L 267.279736 83.486298 
L 267.279736 81.705754 
L 263.91544 82.164522 
L 263.91544 81.253668 
L 261.672577 81.558744 
L 261.672577 80.633635 
L 248.776109 82.469947 
L 247.093961 82.728 
L 247.093961 81.731821 
L 235.879642 83.52 
L 235.879642 82.45972 
L 233.076062 82.927223 
L 233.076062 81.844364 
L 225.786755 83.090441 
L 225.786755 81.956571 
L 215.693867 83.808 
L 206.722412 85.668923 
L 202.236684 86.688 
L 202.236684 85.374215 
L 193.825944 87.395797 
L 186.536637 89.367821 
L 179.808045 91.403829 
L 174.200886 93.286209 
L 174.200886 91.6704 
L 168.03301 93.888 
L 162.42585 96.140514 
L 157.379407 98.394353 
L 156.818691 98.659598 
L 156.818691 96.768 
L 151.772247 99.213283 
L 147.286519 101.631576 
L 142.800791 104.320448 
L 138.87578 106.932706 
L 134.950768 109.828465 
L 133.26862 111.168 
L 133.26862 108.72576 
L 131.586472 110.082098 
L 131.586472 104.976 
L 128.222176 107.681684 
L 126.540028 109.144216 
L 126.540028 106.350545 
L 123.175732 109.395692 
L 120.372153 112.215273 
L 119.811437 112.813714 
L 119.811437 109.683464 
L 117.007857 112.733217 
L 116.447141 113.383385 
L 116.447141 110.016 
L 115.886425 110.650247 
L 115.886425 107.175273 
L 115.325709 107.791448 
L 115.325709 104.202419 
L 113.643561 106.032578 
L 113.643561 102.247024 
L 110.839981 105.408 
L 108.597117 108.248548 
L 108.597117 103.968 
L 106.354253 106.932706 
L 104.11139 110.268 
L 101.868526 114.048 
L 100.186378 117.231158 
L 100.186378 111.888 
L 99.625662 112.948364 
L 99.625662 107.328 
L 97.943514 110.490353 
L 97.943514 104.3712 
L 96.261366 107.613957 
L 94.579218 111.298909 
L 94.018502 112.641488 
L 94.018502 97.821659 
L 93.457786 98.928 
L 93.457786 90.786462 
L 91.775638 93.888 
L 91.775638 84.672 
L 90.09349 87.588 
L 88.411342 91.10731 
L 87.289911 93.888 
L 86.168479 97.1136 
L 85.047047 100.900174 
L 83.925615 105.408 
L 82.804183 110.864842 
L 81.682751 117.605647 
L 80.561319 126.144 
L 79.439887 137.309538 
L 78.318455 152.535273 
L 77.757739 162.432 
L 77.757739 134.208 
L 77.197023 144.288 
L 76.636307 157.248 
L 76.075591 174.528 
L 75.514875 198.72 
L 74.954159 235.008 
L 74.393443 295.488 
L 74.393443 53.568 
L 73.832727 53.568 
L 73.832727 53.568 
" clip-path="url(#p4104164b36)" style="fill: none; stroke-dasharray: 7.4,3.2; stroke-dashoffset: 0; stroke: #bf00bf; stroke-width: 2"/>
   </g>
   <g id="line2d_20">
    <path d="M 398.487273 235.008 
L 398.487273 228.852 
L 397.926557 229.008643 
L 397.926557 200.439102 
L 397.365841 200.590515 
L 397.365841 189.844364 
L 396.805125 189.992009 
L 396.805125 189.006346 
L 396.244409 189.153882 
L 396.244409 188.657607 
L 395.683693 188.805246 
L 395.683693 187.805717 
L 394.562261 188.101069 
L 394.562261 185.046261 
L 394.001545 185.193 
L 394.001545 184.934615 
L 393.440829 185.081557 
L 393.440829 183.51827 
L 392.880113 183.664776 
L 392.880113 182.345143 
L 392.319397 182.491314 
L 392.319397 179.260612 
L 391.197965 179.550561 
L 391.197965 178.176445 
L 390.637249 178.321171 
L 390.637249 175.239529 
L 390.076533 175.382841 
L 390.076533 174.528 
L 389.515817 174.671148 
L 389.515817 170.004767 
L 388.955101 170.145391 
L 388.955101 167.438769 
L 388.394385 167.577976 
L 388.394385 166.968 
L 387.833669 167.107141 
L 387.833669 166.493756 
L 386.712237 166.772242 
L 386.712237 166.154996 
L 386.151521 166.294337 
L 386.151521 163.476586 
L 385.590805 163.614316 
L 385.590805 162.660226 
L 385.030089 162.797622 
L 385.030089 162.47776 
L 384.469374 162.615273 
L 384.469374 161.326782 
L 383.347942 161.600977 
L 383.347942 161.276331 
L 382.787226 161.413714 
L 382.787226 159.116108 
L 382.22651 159.252124 
L 382.22651 158.920258 
L 381.665794 159.056372 
L 381.665794 157.719273 
L 380.544362 157.9905 
L 380.544362 156.976941 
L 379.983646 157.112293 
L 379.983646 156.089945 
L 379.42293 156.224842 
L 379.42293 155.881992 
L 378.862214 156.016971 
L 378.862214 155.328 
L 377.180066 155.733418 
L 377.180066 155.039105 
L 376.61935 155.1744 
L 376.61935 153.420886 
L 376.058634 153.555097 
L 376.058634 152.846491 
L 374.937202 153.114811 
L 374.937202 152.401171 
L 374.376486 152.535273 
L 374.376486 151.817143 
L 373.81577 151.950997 
L 373.81577 151.590156 
L 372.694338 151.858342 
L 372.694338 151.49589 
L 371.01219 151.899994 
L 371.01219 150.803801 
L 369.330042 151.208388 
L 369.330042 150.470587 
L 368.769326 150.605549 
L 368.769326 149.862972 
L 367.087179 150.26814 
L 367.087179 149.519392 
L 365.965747 149.790059 
L 365.965747 149.413424 
L 365.405031 149.54899 
L 365.405031 149.170946 
L 364.844315 149.306553 
L 364.844315 148.546549 
L 364.283599 148.681846 
L 364.283599 147.9168 
L 363.722883 148.051777 
L 363.722883 147.667255 
L 363.162167 147.802261 
L 363.162167 146.640968 
L 362.601451 146.775273 
L 362.601451 146.385572 
L 361.480019 146.654609 
L 361.480019 145.476472 
L 360.919303 145.610449 
L 360.919303 144.420826 
L 358.676439 144.956041 
L 358.676439 143.751195 
L 358.115723 143.8848 
L 358.115723 142.668 
L 357.555007 142.800787 
L 357.555007 142.392358 
L 355.312143 142.925838 
L 355.312143 141.273136 
L 354.751427 141.405821 
L 354.751427 140.571096 
L 354.190711 140.703319 
L 354.190711 140.283616 
L 353.629995 140.415805 
L 353.629995 139.994382 
L 351.947847 140.392049 
L 351.947847 139.968 
L 350.826415 140.234256 
L 350.826415 139.380427 
L 350.265699 139.513263 
L 350.265699 138.221188 
L 349.704984 138.353047 
L 349.704984 137.919201 
L 349.144268 138.051 
L 349.144268 137.615324 
L 348.022836 137.879209 
L 348.022836 136.56106 
L 345.779972 137.088 
L 345.779972 136.643866 
L 345.219256 136.776153 
L 345.219256 135.433728 
L 344.65854 135.564923 
L 344.65854 135.114067 
L 341.85496 135.773825 
L 341.85496 134.862545 
L 341.294244 134.994732 
L 341.294244 134.07645 
L 340.733528 134.208 
L 340.733528 131.413545 
L 340.172812 131.542215 
L 340.172812 131.070517 
L 339.612096 131.199045 
L 339.612096 129.7728 
L 339.05138 129.90002 
L 339.05138 129.420843 
L 335.687084 130.189622 
L 335.687084 129.219254 
L 332.883504 129.865846 
L 332.883504 129.375123 
L 331.762073 129.635629 
L 331.762073 129.141976 
L 330.640641 129.403026 
L 330.640641 128.906408 
L 329.519209 129.168 
L 329.519209 128.668383 
L 328.958493 128.79922 
L 328.958493 128.297215 
L 327.837061 128.558963 
L 327.837061 128.053895 
L 326.715629 128.316169 
L 326.715629 127.808 
L 325.033481 128.202894 
L 325.033481 127.690913 
L 323.912049 127.955166 
L 323.912049 126.404129 
L 323.351333 126.534894 
L 323.351333 123.90887 
L 322.229901 124.164655 
L 322.229901 123.632262 
L 321.669185 123.760117 
L 321.669185 123.225038 
L 321.108469 123.352615 
L 321.108469 121.18955 
L 319.987037 121.44 
L 319.987037 120.892675 
L 317.744173 121.396037 
L 317.744173 120.843506 
L 316.062025 121.223593 
L 316.062025 120.666566 
L 314.379878 121.048531 
L 314.379878 119.9232 
L 313.819162 120.049832 
L 313.819162 119.483105 
L 313.258446 119.609379 
L 313.258446 118.467692 
L 312.137014 118.71827 
L 312.137014 117.564279 
L 308.772718 118.317176 
L 308.772718 117.143433 
L 307.09057 117.521109 
L 307.09057 116.928 
L 305.969138 117.18043 
L 305.969138 115.98336 
L 305.408422 116.108441 
L 305.408422 113.068567 
L 304.28699 113.310439 
L 304.28699 110.198144 
L 302.604842 110.549157 
L 302.604842 109.915826 
L 302.044126 110.03273 
L 302.044126 109.395692 
L 300.922694 109.628793 
L 300.922694 108.986912 
L 300.361978 109.103094 
L 300.361978 107.809011 
L 299.801262 107.923443 
L 299.801262 107.271171 
L 299.240546 107.384949 
L 299.240546 106.069787 
L 298.67983 106.181731 
L 298.67983 105.518769 
L 297.558398 105.741734 
L 297.558398 103.728518 
L 296.997683 103.837091 
L 296.997683 103.158976 
L 296.436967 103.266783 
L 296.436967 101.210888 
L 294.754819 101.525709 
L 294.754819 99.430882 
L 294.194103 99.5328 
L 294.194103 98.826976 
L 293.633387 98.928 
L 293.633387 96.787416 
L 292.511955 96.982537 
L 292.511955 96.259765 
L 290.269091 96.649644 
L 290.269091 95.91784 
L 289.708375 96.014972 
L 289.708375 95.278345 
L 289.147659 95.374452 
L 289.147659 94.632942 
L 283.540499 95.603745 
L 283.540499 94.84345 
L 282.979783 94.941492 
L 282.979783 94.176 
L 274.569044 95.68 
L 274.569044 94.88602 
L 267.279736 96.259765 
L 267.279736 93.784082 
L 264.476156 94.309097 
L 264.476156 93.465801 
L 261.672577 93.99495 
L 261.672577 93.137362 
L 260.551145 93.348963 
L 260.551145 92.482745 
L 259.429713 92.692528 
L 259.429713 91.817514 
L 258.308281 92.025391 
L 258.308281 90.25259 
L 257.186849 90.454154 
L 257.186849 88.653083 
L 251.018973 89.752615 
L 251.018973 88.8192 
L 250.458257 88.920206 
L 250.458257 87.979034 
L 249.897541 88.078202 
L 249.897541 86.174609 
L 248.215393 86.460632 
L 248.215393 85.492927 
L 246.533245 85.776284 
L 246.533245 84.795062 
L 238.122506 86.249739 
L 238.122506 85.221084 
L 235.879642 85.620492 
L 235.879642 83.52 
L 230.833198 84.400941 
L 230.833198 83.312262 
L 227.468902 83.909137 
L 227.468902 82.793235 
L 221.301027 83.913366 
L 221.301027 82.750657 
L 220.740311 82.853053 
L 220.740311 81.678423 
L 218.497447 82.08 
L 218.497447 80.881548 
L 214.011719 81.687852 
L 214.011719 80.448 
L 212.890287 80.648597 
L 212.890287 79.390921 
L 204.479548 80.928 
L 204.479548 79.591267 
L 201.115252 80.228571 
L 201.115252 78.850623 
L 200.554536 78.954667 
L 200.554536 77.560066 
L 197.19024 78.170034 
L 197.19024 76.730553 
L 196.068808 76.929373 
L 196.068808 75.465931 
L 191.583081 76.248 
L 191.583081 74.722439 
L 183.733057 76.139483 
L 183.733057 74.503385 
L 180.929477 75.019034 
L 180.929477 71.621731 
L 180.368761 71.712 
L 180.368761 68.229818 
L 177.004465 68.688 
L 177.004465 66.867267 
L 171.958022 67.524923 
L 171.958022 65.597171 
L 166.911578 66.226605 
L 166.911578 64.178526 
L 166.350862 64.240941 
L 166.350862 62.156876 
L 156.257975 63.180715 
L 147.847235 64.240941 
L 140.557927 65.368976 
L 134.390052 66.528 
L 133.26862 66.763636 
L 133.26862 63.555523 
L 132.707904 63.648 
L 132.707904 60.350804 
L 128.782892 60.8256 
L 128.782892 57.233455 
L 119.811437 57.940048 
L 113.082845 58.678986 
L 113.082845 53.568 
L 73.832727 53.568 
L 73.832727 53.568 
" clip-path="url(#p4104164b36)" style="fill: none; stroke-dasharray: 7.4,3.2; stroke-dashoffset: 0; stroke: #bfbf00; stroke-width: 2"/>
   </g>
   <g id="patch_3">
    <path d="M 57.6 307.584 
L 57.6 41.472 
" style="fill: none; stroke: #000000; stroke-width: 0.8; stroke-linejoin: miter; stroke-linecap: square"/>
   </g>
   <g id="patch_4">
    <path d="M 414.72 307.584 
L 414.72 41.472 
" style="fill: none; stroke: #000000; stroke-width: 0.8; stroke-linejoin: miter; stroke-linecap: square"/>
   </g>
   <g id="patch_5">
    <path d="M 57.6 307.584 
L 414.72 307.584 
" style="fill: none; stroke: #000000; stroke-width: 0.8; stroke-linejoin: miter; stroke-linecap: square"/>
   </g>
   <g id="patch_6">
    <path d="M 57.6 41.472 
L 414.72 41.472 
" style="fill: none; stroke: #000000; stroke-width: 0.8; stroke-linejoin: miter; stroke-linecap: square"/>
   </g>
   <g id="text_17">
    <!-- Precision/Recall Curve -->
    <g transform="translate(169.860938 35.472)scale(0.12 -0.12)">
     <defs>
      <path id="DejaVuSans-2f" d="M 1625 4666 
L 2156 4666 
L 531 -594 
L 0 -594 
L 1625 4666 
z
" transform="scale(0.015625)"/>
      <path id="DejaVuSans-20" transform="scale(0.015625)"/>
      <path id="DejaVuSans-43" d="M 4122 4306 
L 4122 3641 
Q 3803 3938 3442 4084 
Q 3081 4231 2675 4231 
Q 1875 4231 1450 3742 
Q 1025 3253 1025 2328 
Q 1025 1406 1450 917 
Q 1875 428 2675 428 
Q 3081 428 3442 575 
Q 3803 722 4122 1019 
L 4122 359 
Q 3791 134 3420 21 
Q 3050 -91 2638 -91 
Q 1578 -91 968 557 
Q 359 1206 359 2328 
Q 359 3453 968 4101 
Q 1578 4750 2638 4750 
Q 3056 4750 3426 4639 
Q 3797 4528 4122 4306 
z
" transform="scale(0.015625)"/>
      <path id="DejaVuSans-75" d="M 544 1381 
L 544 3500 
L 1119 3500 
L 1119 1403 
Q 1119 906 1312 657 
Q 1506 409 1894 409 
Q 2359 409 2629 706 
Q 2900 1003 2900 1516 
L 2900 3500 
L 3475 3500 
L 3475 0 
L 2900 0 
L 2900 538 
Q 2691 219 2414 64 
Q 2138 -91 1772 -91 
Q 1169 -91 856 284 
Q 544 659 544 1381 
z
M 1991 3584 
L 1991 3584 
z
" transform="scale(0.015625)"/>
      <path id="DejaVuSans-76" d="M 191 3500 
L 800 3500 
L 1894 563 
L 2988 3500 
L 3597 3500 
L 2284 0 
L 1503 0 
L 191 3500 
z
" transform="scale(0.015625)"/>
     </defs>
     <use xlink:href="#DejaVuSans-50"/>
     <use xlink:href="#DejaVuSans-72" x="58.552734"/>
     <use xlink:href="#DejaVuSans-65" x="97.416016"/>
     <use xlink:href="#DejaVuSans-63" x="158.939453"/>
     <use xlink:href="#DejaVuSans-69" x="213.919922"/>
     <use xlink:href="#DejaVuSans-73" x="241.703125"/>
     <use xlink:href="#DejaVuSans-69" x="293.802734"/>
     <use xlink:href="#DejaVuSans-6f" x="321.585938"/>
     <use xlink:href="#DejaVuSans-6e" x="382.767578"/>
     <use xlink:href="#DejaVuSans-2f" x="446.146484"/>
     <use xlink:href="#DejaVuSans-52" x="479.837891"/>
     <use xlink:href="#DejaVuSans-65" x="544.820312"/>
     <use xlink:href="#DejaVuSans-63" x="606.34375"/>
     <use xlink:href="#DejaVuSans-61" x="661.324219"/>
     <use xlink:href="#DejaVuSans-6c" x="722.603516"/>
     <use xlink:href="#DejaVuSans-6c" x="750.386719"/>
     <use xlink:href="#DejaVuSans-20" x="778.169922"/>
     <use xlink:href="#DejaVuSans-43" x="809.957031"/>
     <use xlink:href="#DejaVuSans-75" x="879.78125"/>
     <use xlink:href="#DejaVuSans-72" x="943.160156"/>
     <use xlink:href="#DejaVuSans-76" x="984.273438"/>
     <use xlink:href="#DejaVuSans-65" x="1043.453125"/>
    </g>
   </g>
   <g id="legend_1">
    <g id="patch_7">
     <path d="M 223.123125 302.584 
L 407.72 302.584 
Q 409.72 302.584 409.72 300.584 
L 409.72 211.8465 
Q 409.72 209.8465 407.72 209.8465 
L 223.123125 209.8465 
Q 221.123125 209.8465 221.123125 211.8465 
L 221.123125 300.584 
Q 221.123125 302.584 223.123125 302.584 
z
" style="fill: #ffffff; opacity: 0.8; stroke: #cccccc; stroke-linejoin: miter"/>
    </g>
    <g id="line2d_21">
     <path d="M 225.123125 217.944937 
L 235.123125 217.944937 
L 245.123125 217.944937 
" style="fill: none; stroke-dasharray: 7.4,3.2; stroke-dashoffset: 0; stroke: #ff0000; stroke-width: 2"/>
    </g>
    <g id="text_18">
     <!-- gbdt_P_R curve(area=0.8771) -->
     <g transform="translate(253.123125 221.444937)scale(0.1 -0.1)">
      <defs>
       <path id="DejaVuSans-67" d="M 2906 1791 
Q 2906 2416 2648 2759 
Q 2391 3103 1925 3103 
Q 1463 3103 1205 2759 
Q 947 2416 947 1791 
Q 947 1169 1205 825 
Q 1463 481 1925 481 
Q 2391 481 2648 825 
Q 2906 1169 2906 1791 
z
M 3481 434 
Q 3481 -459 3084 -895 
Q 2688 -1331 1869 -1331 
Q 1566 -1331 1297 -1286 
Q 1028 -1241 775 -1147 
L 775 -588 
Q 1028 -725 1275 -790 
Q 1522 -856 1778 -856 
Q 2344 -856 2625 -561 
Q 2906 -266 2906 331 
L 2906 616 
Q 2728 306 2450 153 
Q 2172 0 1784 0 
Q 1141 0 747 490 
Q 353 981 353 1791 
Q 353 2603 747 3093 
Q 1141 3584 1784 3584 
Q 2172 3584 2450 3431 
Q 2728 3278 2906 2969 
L 2906 3500 
L 3481 3500 
L 3481 434 
z
" transform="scale(0.015625)"/>
       <path id="DejaVuSans-62" d="M 3116 1747 
Q 3116 2381 2855 2742 
Q 2594 3103 2138 3103 
Q 1681 3103 1420 2742 
Q 1159 2381 1159 1747 
Q 1159 1113 1420 752 
Q 1681 391 2138 391 
Q 2594 391 2855 752 
Q 3116 1113 3116 1747 
z
M 1159 2969 
Q 1341 3281 1617 3432 
Q 1894 3584 2278 3584 
Q 2916 3584 3314 3078 
Q 3713 2572 3713 1747 
Q 3713 922 3314 415 
Q 2916 -91 2278 -91 
Q 1894 -91 1617 61 
Q 1341 213 1159 525 
L 1159 0 
L 581 0 
L 581 4863 
L 1159 4863 
L 1159 2969 
z
" transform="scale(0.015625)"/>
       <path id="DejaVuSans-64" d="M 2906 2969 
L 2906 4863 
L 3481 4863 
L 3481 0 
L 2906 0 
L 2906 525 
Q 2725 213 2448 61 
Q 2172 -91 1784 -91 
Q 1150 -91 751 415 
Q 353 922 353 1747 
Q 353 2572 751 3078 
Q 1150 3584 1784 3584 
Q 2172 3584 2448 3432 
Q 2725 3281 2906 2969 
z
M 947 1747 
Q 947 1113 1208 752 
Q 1469 391 1925 391 
Q 2381 391 2643 752 
Q 2906 1113 2906 1747 
Q 2906 2381 2643 2742 
Q 2381 3103 1925 3103 
Q 1469 3103 1208 2742 
Q 947 2381 947 1747 
z
" transform="scale(0.015625)"/>
       <path id="DejaVuSans-74" d="M 1172 4494 
L 1172 3500 
L 2356 3500 
L 2356 3053 
L 1172 3053 
L 1172 1153 
Q 1172 725 1289 603 
Q 1406 481 1766 481 
L 2356 481 
L 2356 0 
L 1766 0 
Q 1100 0 847 248 
Q 594 497 594 1153 
L 594 3053 
L 172 3053 
L 172 3500 
L 594 3500 
L 594 4494 
L 1172 4494 
z
" transform="scale(0.015625)"/>
       <path id="DejaVuSans-5f" d="M 3263 -1063 
L 3263 -1509 
L -63 -1509 
L -63 -1063 
L 3263 -1063 
z
" transform="scale(0.015625)"/>
       <path id="DejaVuSans-28" d="M 1984 4856 
Q 1566 4138 1362 3434 
Q 1159 2731 1159 2009 
Q 1159 1288 1364 580 
Q 1569 -128 1984 -844 
L 1484 -844 
Q 1016 -109 783 600 
Q 550 1309 550 2009 
Q 550 2706 781 3412 
Q 1013 4119 1484 4856 
L 1984 4856 
z
" transform="scale(0.015625)"/>
       <path id="DejaVuSans-3d" d="M 678 2906 
L 4684 2906 
L 4684 2381 
L 678 2381 
L 678 2906 
z
M 678 1631 
L 4684 1631 
L 4684 1100 
L 678 1100 
L 678 1631 
z
" transform="scale(0.015625)"/>
       <path id="DejaVuSans-29" d="M 513 4856 
L 1013 4856 
Q 1481 4119 1714 3412 
Q 1947 2706 1947 2009 
Q 1947 1309 1714 600 
Q 1481 -109 1013 -844 
L 513 -844 
Q 928 -128 1133 580 
Q 1338 1288 1338 2009 
Q 1338 2731 1133 3434 
Q 928 4138 513 4856 
z
" transform="scale(0.015625)"/>
      </defs>
      <use xlink:href="#DejaVuSans-67"/>
      <use xlink:href="#DejaVuSans-62" x="63.476562"/>
      <use xlink:href="#DejaVuSans-64" x="126.953125"/>
      <use xlink:href="#DejaVuSans-74" x="190.429688"/>
      <use xlink:href="#DejaVuSans-5f" x="229.638672"/>
      <use xlink:href="#DejaVuSans-50" x="279.638672"/>
      <use xlink:href="#DejaVuSans-5f" x="339.941406"/>
      <use xlink:href="#DejaVuSans-52" x="389.941406"/>
      <use xlink:href="#DejaVuSans-20" x="459.423828"/>
      <use xlink:href="#DejaVuSans-63" x="491.210938"/>
      <use xlink:href="#DejaVuSans-75" x="546.191406"/>
      <use xlink:href="#DejaVuSans-72" x="609.570312"/>
      <use xlink:href="#DejaVuSans-76" x="650.683594"/>
      <use xlink:href="#DejaVuSans-65" x="709.863281"/>
      <use xlink:href="#DejaVuSans-28" x="771.386719"/>
      <use xlink:href="#DejaVuSans-61" x="810.400391"/>
      <use xlink:href="#DejaVuSans-72" x="871.679688"/>
      <use xlink:href="#DejaVuSans-65" x="910.542969"/>
      <use xlink:href="#DejaVuSans-61" x="972.066406"/>
      <use xlink:href="#DejaVuSans-3d" x="1033.345703"/>
      <use xlink:href="#DejaVuSans-30" x="1117.134766"/>
      <use xlink:href="#DejaVuSans-2e" x="1180.757812"/>
      <use xlink:href="#DejaVuSans-38" x="1212.544922"/>
      <use xlink:href="#DejaVuSans-37" x="1276.167969"/>
      <use xlink:href="#DejaVuSans-37" x="1339.791016"/>
      <use xlink:href="#DejaVuSans-31" x="1403.414062"/>
      <use xlink:href="#DejaVuSans-29" x="1467.037109"/>
     </g>
    </g>
    <g id="line2d_22">
     <path d="M 225.123125 232.901187 
L 235.123125 232.901187 
L 245.123125 232.901187 
" style="fill: none; stroke-dasharray: 7.4,3.2; stroke-dashoffset: 0; stroke: #008000; stroke-width: 2"/>
    </g>
    <g id="text_19">
     <!-- lr_P_R curve(area=0.8356) -->
     <g transform="translate(253.123125 236.401187)scale(0.1 -0.1)">
      <use xlink:href="#DejaVuSans-6c"/>
      <use xlink:href="#DejaVuSans-72" x="27.783203"/>
      <use xlink:href="#DejaVuSans-5f" x="68.896484"/>
      <use xlink:href="#DejaVuSans-50" x="118.896484"/>
      <use xlink:href="#DejaVuSans-5f" x="179.199219"/>
      <use xlink:href="#DejaVuSans-52" x="229.199219"/>
      <use xlink:href="#DejaVuSans-20" x="298.681641"/>
      <use xlink:href="#DejaVuSans-63" x="330.46875"/>
      <use xlink:href="#DejaVuSans-75" x="385.449219"/>
      <use xlink:href="#DejaVuSans-72" x="448.828125"/>
      <use xlink:href="#DejaVuSans-76" x="489.941406"/>
      <use xlink:href="#DejaVuSans-65" x="549.121094"/>
      <use xlink:href="#DejaVuSans-28" x="610.644531"/>
      <use xlink:href="#DejaVuSans-61" x="649.658203"/>
      <use xlink:href="#DejaVuSans-72" x="710.9375"/>
      <use xlink:href="#DejaVuSans-65" x="749.800781"/>
      <use xlink:href="#DejaVuSans-61" x="811.324219"/>
      <use xlink:href="#DejaVuSans-3d" x="872.603516"/>
      <use xlink:href="#DejaVuSans-30" x="956.392578"/>
      <use xlink:href="#DejaVuSans-2e" x="1020.015625"/>
      <use xlink:href="#DejaVuSans-38" x="1051.802734"/>
      <use xlink:href="#DejaVuSans-33" x="1115.425781"/>
      <use xlink:href="#DejaVuSans-35" x="1179.048828"/>
      <use xlink:href="#DejaVuSans-36" x="1242.671875"/>
      <use xlink:href="#DejaVuSans-29" x="1306.294922"/>
     </g>
    </g>
    <g id="line2d_23">
     <path d="M 225.123125 247.857437 
L 235.123125 247.857437 
L 245.123125 247.857437 
" style="fill: none; stroke-dasharray: 7.4,3.2; stroke-dashoffset: 0; stroke: #0000ff; stroke-width: 2"/>
    </g>
    <g id="text_20">
     <!-- rf_P_R curve(area=0.9637) -->
     <g transform="translate(253.123125 251.357437)scale(0.1 -0.1)">
      <defs>
       <path id="DejaVuSans-66" d="M 2375 4863 
L 2375 4384 
L 1825 4384 
Q 1516 4384 1395 4259 
Q 1275 4134 1275 3809 
L 1275 3500 
L 2222 3500 
L 2222 3053 
L 1275 3053 
L 1275 0 
L 697 0 
L 697 3053 
L 147 3053 
L 147 3500 
L 697 3500 
L 697 3744 
Q 697 4328 969 4595 
Q 1241 4863 1831 4863 
L 2375 4863 
z
" transform="scale(0.015625)"/>
      </defs>
      <use xlink:href="#DejaVuSans-72"/>
      <use xlink:href="#DejaVuSans-66" x="41.113281"/>
      <use xlink:href="#DejaVuSans-5f" x="76.318359"/>
      <use xlink:href="#DejaVuSans-50" x="126.318359"/>
      <use xlink:href="#DejaVuSans-5f" x="186.621094"/>
      <use xlink:href="#DejaVuSans-52" x="236.621094"/>
      <use xlink:href="#DejaVuSans-20" x="306.103516"/>
      <use xlink:href="#DejaVuSans-63" x="337.890625"/>
      <use xlink:href="#DejaVuSans-75" x="392.871094"/>
      <use xlink:href="#DejaVuSans-72" x="456.25"/>
      <use xlink:href="#DejaVuSans-76" x="497.363281"/>
      <use xlink:href="#DejaVuSans-65" x="556.542969"/>
      <use xlink:href="#DejaVuSans-28" x="618.066406"/>
      <use xlink:href="#DejaVuSans-61" x="657.080078"/>
      <use xlink:href="#DejaVuSans-72" x="718.359375"/>
      <use xlink:href="#DejaVuSans-65" x="757.222656"/>
      <use xlink:href="#DejaVuSans-61" x="818.746094"/>
      <use xlink:href="#DejaVuSans-3d" x="880.025391"/>
      <use xlink:href="#DejaVuSans-30" x="963.814453"/>
      <use xlink:href="#DejaVuSans-2e" x="1027.4375"/>
      <use xlink:href="#DejaVuSans-39" x="1059.224609"/>
      <use xlink:href="#DejaVuSans-36" x="1122.847656"/>
      <use xlink:href="#DejaVuSans-33" x="1186.470703"/>
      <use xlink:href="#DejaVuSans-37" x="1250.09375"/>
      <use xlink:href="#DejaVuSans-29" x="1313.716797"/>
     </g>
    </g>
    <g id="line2d_24">
     <path d="M 225.123125 262.813688 
L 235.123125 262.813688 
L 245.123125 262.813688 
" style="fill: none; stroke-dasharray: 7.4,3.2; stroke-dashoffset: 0; stroke: #00bfbf; stroke-width: 2"/>
    </g>
    <g id="text_21">
     <!-- xgb_P_R curve(area=0.9419) -->
     <g transform="translate(253.123125 266.313688)scale(0.1 -0.1)">
      <defs>
       <path id="DejaVuSans-78" d="M 3513 3500 
L 2247 1797 
L 3578 0 
L 2900 0 
L 1881 1375 
L 863 0 
L 184 0 
L 1544 1831 
L 300 3500 
L 978 3500 
L 1906 2253 
L 2834 3500 
L 3513 3500 
z
" transform="scale(0.015625)"/>
      </defs>
      <use xlink:href="#DejaVuSans-78"/>
      <use xlink:href="#DejaVuSans-67" x="59.179688"/>
      <use xlink:href="#DejaVuSans-62" x="122.65625"/>
      <use xlink:href="#DejaVuSans-5f" x="186.132812"/>
      <use xlink:href="#DejaVuSans-50" x="236.132812"/>
      <use xlink:href="#DejaVuSans-5f" x="296.435547"/>
      <use xlink:href="#DejaVuSans-52" x="346.435547"/>
      <use xlink:href="#DejaVuSans-20" x="415.917969"/>
      <use xlink:href="#DejaVuSans-63" x="447.705078"/>
      <use xlink:href="#DejaVuSans-75" x="502.685547"/>
      <use xlink:href="#DejaVuSans-72" x="566.064453"/>
      <use xlink:href="#DejaVuSans-76" x="607.177734"/>
      <use xlink:href="#DejaVuSans-65" x="666.357422"/>
      <use xlink:href="#DejaVuSans-28" x="727.880859"/>
      <use xlink:href="#DejaVuSans-61" x="766.894531"/>
      <use xlink:href="#DejaVuSans-72" x="828.173828"/>
      <use xlink:href="#DejaVuSans-65" x="867.037109"/>
      <use xlink:href="#DejaVuSans-61" x="928.560547"/>
      <use xlink:href="#DejaVuSans-3d" x="989.839844"/>
      <use xlink:href="#DejaVuSans-30" x="1073.628906"/>
      <use xlink:href="#DejaVuSans-2e" x="1137.251953"/>
      <use xlink:href="#DejaVuSans-39" x="1169.039062"/>
      <use xlink:href="#DejaVuSans-34" x="1232.662109"/>
      <use xlink:href="#DejaVuSans-31" x="1296.285156"/>
      <use xlink:href="#DejaVuSans-39" x="1359.908203"/>
      <use xlink:href="#DejaVuSans-29" x="1423.53125"/>
     </g>
    </g>
    <g id="line2d_25">
     <path d="M 225.123125 277.769937 
L 235.123125 277.769937 
L 245.123125 277.769937 
" style="fill: none; stroke-dasharray: 7.4,3.2; stroke-dashoffset: 0; stroke: #bf00bf; stroke-width: 2"/>
    </g>
    <g id="text_22">
     <!-- svm_P_R curve(area=0.8519) -->
     <g transform="translate(253.123125 281.269937)scale(0.1 -0.1)">
      <defs>
       <path id="DejaVuSans-6d" d="M 3328 2828 
Q 3544 3216 3844 3400 
Q 4144 3584 4550 3584 
Q 5097 3584 5394 3201 
Q 5691 2819 5691 2113 
L 5691 0 
L 5113 0 
L 5113 2094 
Q 5113 2597 4934 2840 
Q 4756 3084 4391 3084 
Q 3944 3084 3684 2787 
Q 3425 2491 3425 1978 
L 3425 0 
L 2847 0 
L 2847 2094 
Q 2847 2600 2669 2842 
Q 2491 3084 2119 3084 
Q 1678 3084 1418 2786 
Q 1159 2488 1159 1978 
L 1159 0 
L 581 0 
L 581 3500 
L 1159 3500 
L 1159 2956 
Q 1356 3278 1631 3431 
Q 1906 3584 2284 3584 
Q 2666 3584 2933 3390 
Q 3200 3197 3328 2828 
z
" transform="scale(0.015625)"/>
      </defs>
      <use xlink:href="#DejaVuSans-73"/>
      <use xlink:href="#DejaVuSans-76" x="52.099609"/>
      <use xlink:href="#DejaVuSans-6d" x="111.279297"/>
      <use xlink:href="#DejaVuSans-5f" x="208.691406"/>
      <use xlink:href="#DejaVuSans-50" x="258.691406"/>
      <use xlink:href="#DejaVuSans-5f" x="318.994141"/>
      <use xlink:href="#DejaVuSans-52" x="368.994141"/>
      <use xlink:href="#DejaVuSans-20" x="438.476562"/>
      <use xlink:href="#DejaVuSans-63" x="470.263672"/>
      <use xlink:href="#DejaVuSans-75" x="525.244141"/>
      <use xlink:href="#DejaVuSans-72" x="588.623047"/>
      <use xlink:href="#DejaVuSans-76" x="629.736328"/>
      <use xlink:href="#DejaVuSans-65" x="688.916016"/>
      <use xlink:href="#DejaVuSans-28" x="750.439453"/>
      <use xlink:href="#DejaVuSans-61" x="789.453125"/>
      <use xlink:href="#DejaVuSans-72" x="850.732422"/>
      <use xlink:href="#DejaVuSans-65" x="889.595703"/>
      <use xlink:href="#DejaVuSans-61" x="951.119141"/>
      <use xlink:href="#DejaVuSans-3d" x="1012.398438"/>
      <use xlink:href="#DejaVuSans-30" x="1096.1875"/>
      <use xlink:href="#DejaVuSans-2e" x="1159.810547"/>
      <use xlink:href="#DejaVuSans-38" x="1191.597656"/>
      <use xlink:href="#DejaVuSans-35" x="1255.220703"/>
      <use xlink:href="#DejaVuSans-31" x="1318.84375"/>
      <use xlink:href="#DejaVuSans-39" x="1382.466797"/>
      <use xlink:href="#DejaVuSans-29" x="1446.089844"/>
     </g>
    </g>
    <g id="line2d_26">
     <path d="M 225.123125 292.726187 
L 235.123125 292.726187 
L 245.123125 292.726187 
" style="fill: none; stroke-dasharray: 7.4,3.2; stroke-dashoffset: 0; stroke: #bfbf00; stroke-width: 2"/>
    </g>
    <g id="text_23">
     <!-- adab_P_R curve(area=0.8875) -->
     <g transform="translate(253.123125 296.226187)scale(0.1 -0.1)">
      <use xlink:href="#DejaVuSans-61"/>
      <use xlink:href="#DejaVuSans-64" x="61.279297"/>
      <use xlink:href="#DejaVuSans-61" x="124.755859"/>
      <use xlink:href="#DejaVuSans-62" x="186.035156"/>
      <use xlink:href="#DejaVuSans-5f" x="249.511719"/>
      <use xlink:href="#DejaVuSans-50" x="299.511719"/>
      <use xlink:href="#DejaVuSans-5f" x="359.814453"/>
      <use xlink:href="#DejaVuSans-52" x="409.814453"/>
      <use xlink:href="#DejaVuSans-20" x="479.296875"/>
      <use xlink:href="#DejaVuSans-63" x="511.083984"/>
      <use xlink:href="#DejaVuSans-75" x="566.064453"/>
      <use xlink:href="#DejaVuSans-72" x="629.443359"/>
      <use xlink:href="#DejaVuSans-76" x="670.556641"/>
      <use xlink:href="#DejaVuSans-65" x="729.736328"/>
      <use xlink:href="#DejaVuSans-28" x="791.259766"/>
      <use xlink:href="#DejaVuSans-61" x="830.273438"/>
      <use xlink:href="#DejaVuSans-72" x="891.552734"/>
      <use xlink:href="#DejaVuSans-65" x="930.416016"/>
      <use xlink:href="#DejaVuSans-61" x="991.939453"/>
      <use xlink:href="#DejaVuSans-3d" x="1053.21875"/>
      <use xlink:href="#DejaVuSans-30" x="1137.007812"/>
      <use xlink:href="#DejaVuSans-2e" x="1200.630859"/>
      <use xlink:href="#DejaVuSans-38" x="1232.417969"/>
      <use xlink:href="#DejaVuSans-38" x="1296.041016"/>
      <use xlink:href="#DejaVuSans-37" x="1359.664062"/>
      <use xlink:href="#DejaVuSans-35" x="1423.287109"/>
      <use xlink:href="#DejaVuSans-29" x="1486.910156"/>
     </g>
    </g>
   </g>
  </g>
 </g>
 <defs>
  <clipPath id="p4104164b36">
   <rect x="57.6" y="41.472" width="357.12" height="266.112"/>
  </clipPath>
 </defs>
</svg>
